NewsreaderDisplay-LightItalic.ufo
<glyph name="exclam" format="2">
	<unicode hex="0021"/>
	<advance width="490.08"/>
	<outline>
		<contour>
			<point x="588.7466666667" y="1383.48" type="line" smooth="yes"/>
			<point x="601.9578154941" y="1426.4162336891"/>
			<point x="566.6666666667" y="1447.4933333333"/>
			<point x="523.36" y="1447.4933333333" type="curve" smooth="yes"/>
			<point x="482.9333333333" y="1447.4933333333"/>
			<point x="444.8060554821" y="1426.8530136502"/>
			<point x="432.28" y="1385.9866666667" type="curve" smooth="yes"/>
			<point x="423.6533333333" y="1357.48" type="line" smooth="yes"/>
			<point x="412.4133333333" y="1320.1333333333"/>
			<point x="309.4" y="830.4933333333"/>
			<point x="201.8266666667" y="421.0133333333" type="curve"/>
			<point x="227.8133333333" y="421.0133333333" type="line"/>
			<point x="365.4" y="814.8133333333"/>
			<point x="564.6533333333" y="1303.4533333333"/>
			<point x="580.12" y="1354.9733333333" type="curve" smooth="yes"/>
		</contour>
		<contour>
			<point x="127.0533333333" y="193.8266666667" type="curve" smooth="yes"/>
			<point x="56.9866666667" y="193.8266666667"/>
			<point x="8.5466666667" y="141.2533333333"/>
			<point x="8.5466666667" y="74.9466666667" type="curve" smooth="yes"/>
			<point x="8.5466666667" y="21.36"/>
			<point x="46.7733333333" y="-15.8666666667"/>
			<point x="103.1066666667" y="-15.8666666667" type="curve" smooth="yes"/>
			<point x="173.1733333333" y="-15.8666666667"/>
			<point x="221.6133333333" y="36.7066666667"/>
			<point x="221.6133333333" y="102.64" type="curve" smooth="yes"/>
			<point x="221.6133333333" y="156.6"/>
			<point x="183.3866666667" y="193.8266666667"/>
		</contour>
	</outline>
</glyph>
<glyph name="ampersand" format="2">
  <advance width="1378.5733333333333"/>
  <unicode hex="0026"/>
  <outline>
    <contour>
      <point x="915.1999999999999" y="245.7866666666667" type="line"/>
      <point x="1033.5733333333333" y="378.5466666666667"/>
      <point x="1156.3200000000002" y="568.0666666666667"/>
      <point x="1283.5866666666666" y="829.5333333333333" type="curve"/>
      <point x="1452.4533333333334" y="857.64" type="line"/>
      <point x="1457.5733333333333" y="874.0" type="line"/>
      <point x="1060.4" y="874.0" type="line"/>
      <point x="1055.2800000000002" y="857.64" type="line"/>
      <point x="1210.4133333333334" y="829.5333333333333" type="line"/>
      <point x="1111.2533333333333" y="567.8266666666667"/>
      <point x="1005.24" y="385.08"/>
      <point x="897.1066666666667" y="265.92" type="curve"/>
      <point x="863.7466666666667" y="230.8" type="line"/>
      <point x="734.4399999999999" y="100.45333333333333"/>
      <point x="603.1333333333333" y="56.25333333333334"/>
      <point x="476.3066666666666" y="56.25333333333334" type="curve" smooth="yes"/>
      <point x="301.32000000000005" y="56.25333333333334"/>
      <point x="179.44" y="161.13333333333333"/>
      <point x="179.44" y="345.7866666666667" type="curve" smooth="yes"/>
      <point x="179.44" y="511.28"/>
      <point x="251.46666666666667" y="648.1866666666667"/>
      <point x="561.9066666666666" y="778.88" type="curve"/>
      <point x="630.7866666666666" y="805.4533333333333" type="line"/>
      <point x="960.6533333333333" y="956.3199999999999"/>
      <point x="1056.5866666666668" y="1085.08"/>
      <point x="1056.5866666666668" y="1228.3600000000001" type="curve" smooth="yes"/>
      <point x="1056.5866666666668" y="1352.1066666666666"/>
      <point x="969.72" y="1450.0"/>
      <point x="792.48" y="1450.0" type="curve" smooth="yes"/>
      <point x="585.7066666666667" y="1450.0"/>
      <point x="434.17333333333335" y="1321.0933333333332"/>
      <point x="434.17333333333335" y="1113.4666666666667" type="curve" smooth="yes"/>
      <point x="434.17333333333335" y="1022.9466666666666"/>
      <point x="460.32" y="917.0266666666666"/>
      <point x="525.24" y="798.5733333333334" type="curve" smooth="yes"/>
      <point x="959.48" y="0.0" type="line"/>
      <point x="1238.0800000000002" y="0.0" type="line"/>
      <point x="1242.5733333333333" y="13.733333333333334" type="line"/>
      <point x="1058.4133333333334" y="50.093333333333334" type="line"/>
      <point x="605.0666666666666" y="873.5333333333334" type="line" smooth="yes"/>
      <point x="550.68" y="972.0533333333333"/>
      <point x="522.7866666666666" y="1073.0933333333332"/>
      <point x="522.7866666666666" y="1166.52" type="curve" smooth="yes"/>
      <point x="522.7866666666666" y="1313.76"/>
      <point x="623.44" y="1419.52"/>
      <point x="783.24" y="1419.52" type="curve" smooth="yes"/>
      <point x="905.2933333333334" y="1419.52"/>
      <point x="970.72" y="1347.48"/>
      <point x="970.72" y="1236.9466666666667" type="curve" smooth="yes"/>
      <point x="970.72" y="1086.0266666666666"/>
      <point x="879.7466666666667" y="959.5466666666666"/>
      <point x="616.8133333333333" y="825.08" type="curve"/>
      <point x="555.2" y="800.88" type="line"/>
      <point x="157.85333333333332" y="643.48"/>
      <point x="69.49333333333334" y="490.46666666666664"/>
      <point x="69.49333333333334" y="303.9866666666667" type="curve" smooth="yes"/>
      <point x="69.49333333333334" y="109.57333333333334"/>
      <point x="196.62666666666667" y="-20.0"/>
      <point x="426.44" y="-20.0" type="curve" smooth="yes"/>
      <point x="574.3199999999999" y="-20.0"/>
      <point x="723.0799999999999" y="44.38666666666667"/>
      <point x="881.4666666666666" y="209.8" type="curve"/>
    </contour>
  </outline>
</glyph>
<glyph name="quotesingle" format="2">
	<unicode hex="0027"/>
	<advance width="320.24"/>
	<outline>
		<contour>
			<point x="282.24" y="978" type="line"/>
			<point x="303.0933333333" y="978" type="line"/>
			<point x="489.0666666667" y="1389.24" type="line"/>
			<point x="501.32" y="1430" type="line"/>
			<point x="366.92" y="1430" type="line"/>
			<point x="354.2933333333" y="1389.24" type="line"/>
		</contour>
	</outline>
</glyph>
<glyph name="parenleft" format="2">
	<unicode hex="0028"/>
	<advance width="508.8"/>
	<outline>
		<contour>
			<point x="736.16" y="1444.32" type="curve"/>
			<point x="717.16" y="1462.6933333333" type="line"/>
			<point x="202.8533333333" y="939.7333333333"/>
			<point x="74.2666666667" y="680.0266666667"/>
			<point x="74.2666666667" y="327.32" type="curve" smooth="yes"/>
			<point x="74.2666666667" y="145.1866666667"/>
			<point x="122.4933333333" y="-20.68"/>
			<point x="197.44" y="-237.3333333333" type="curve"/>
			<point x="221.56" y="-228.96" type="line"/>
			<point x="175.4266666667" y="-60.8533333333"/>
			<point x="156.7866666667" y="77.56"/>
			<point x="156.7866666667" y="271.4666666667" type="curve" smooth="yes"/>
			<point x="156.7866666667" y="582.1066666667"/>
			<point x="259.52" y="910.24"/>
		</contour>
	</outline>
</glyph>
<glyph name="parenright" format="2">
	<unicode hex="0029"/>
	<advance width="510.0533333333"/>
	<outline>
		<contour>
			<point x="-165.36" y="-218.96" type="curve"/>
			<point x="-146.36" y="-237.3333333333" type="line"/>
			<point x="367.9466666667" y="285.6266666667"/>
			<point x="496.5333333333" y="545.3333333333"/>
			<point x="496.5333333333" y="898.04" type="curve" smooth="yes"/>
			<point x="496.5333333333" y="1080.1733333333"/>
			<point x="448.3066666667" y="1246.04"/>
			<point x="373.36" y="1462.6933333333" type="curve"/>
			<point x="349.24" y="1454.32" type="line"/>
			<point x="395.3733333333" y="1286.2133333333"/>
			<point x="414.0133333333" y="1147.8"/>
			<point x="414.0133333333" y="953.8933333333" type="curve" smooth="yes"/>
			<point x="414.0133333333" y="643.2533333333"/>
			<point x="311.28" y="315.12"/>
		</contour>
	</outline>
</glyph>
<glyph name="asterisk" format="2">
  <advance width="760.9466666666667"/>
  <unicode hex="002A"/>
  <outline>
    <contour>
      <point x="698.2133333333334" y="894.9466666666667" type="line"/>
      <point x="626.6933333333334" y="1128.9333333333334" type="line"/>
      <point x="869.5733333333334" y="1174.1599999999999" type="line"/>
      <point x="868.2" y="1194.1466666666665" type="line"/>
      <point x="621.5733333333334" y="1199.6266666666666" type="line"/>
      <point x="659.3466666666667" y="1444.1200000000001" type="line"/>
      <point x="638.7333333333332" y="1449.8666666666668" type="line"/>
      <point x="553.2533333333333" y="1215.9866666666667" type="line"/>
      <point x="332.52" y="1324.88" type="line"/>
      <point x="321.6533333333333" y="1307.52" type="line"/>
      <point x="515.5333333333333" y="1156.7866666666666" type="line"/>
      <point x="346.7733333333333" y="979.6800000000001" type="line"/>
      <point x="360.0133333333334" y="965.0666666666666" type="line"/>
      <point x="561.12" y="1102.7066666666667" type="line"/>
      <point x="679.6" y="887.1999999999999" type="line"/>
    </contour>
  </outline>
</glyph>
<glyph name="plus" format="2">
	<unicode hex="002B"/>
	<advance width="1150"/>
	<outline>
		<contour>
			<point x="422.52" y="101" type="line"/>
			<point x="475.48" y="101" type="line"/>
			<point x="727.48" y="923" type="line"/>
			<point x="674.52" y="923" type="line"/>
		</contour>
		<contour>
			<point x="172.12" y="538.1066666667" type="line"/>
			<point x="155.88" y="485.8933333333" type="line"/>
			<point x="977.88" y="485.8933333333" type="line"/>
			<point x="994.12" y="538.1066666667" type="line"/>
		</contour>
	</outline>
</glyph>
<glyph name="comma" format="2">
	<unicode hex="002C"/>
	<advance width="366.8933333333"/>
	<outline>
		<contour>
			<point x="-158.6533333333" y="-277.8266666667" type="curve"/>
			<point x="-146.4133333333" y="-295.9333333333" type="line"/>
			<point x="89" y="-139.2"/>
			<point x="173.1466666667" y="-0.9333333333"/>
			<point x="173.1466666667" y="100.52" type="curve" smooth="yes"/>
			<point x="173.1466666667" y="158.3733333333"/>
			<point x="135.6666666667" y="189.3466666667"/>
			<point x="86.0933333333" y="189.3466666667" type="curve" smooth="yes"/>
			<point x="18.6533333333" y="189.3466666667"/>
			<point x="-24.04" y="137.52"/>
			<point x="-24.04" y="89.8133333333" type="curve" smooth="yes"/>
			<point x="-24.04" y="58.1866666667"/>
			<point x="57.3066666667" y="49.36"/>
			<point x="57.3066666667" y="-10.1066666667" type="curve" smooth="yes"/>
			<point x="57.3066666667" y="-68.96"/>
			<point x="0.96" y="-162.56"/>
		</contour>
	</outline>
</glyph>
<glyph name="hyphen" format="2">
	<unicode hex="002D"/>
	<advance width="563.8266666667"/>
	<outline>
		<contour>
			<point x="117.1866666667" y="558.08" type="line"/>
			<point x="89.3333333333" y="469.28" type="line"/>
			<point x="447.3866666667" y="469.28" type="line"/>
			<point x="475.24" y="558.08" type="line"/>
		</contour>
	</outline>
</glyph>
<glyph name="period" format="2">
  <advance width="402"/>
  <unicode hex="002E"/>
  <outline>
    <contour>
      <point x="107.75999999999999" y="193.45333333333335" type="curve" smooth="yes"/>
      <point x="37.69333333333333" y="193.45333333333335"/>
      <point x="-10.746666666666666" y="140.88"/>
      <point x="-10.746666666666666" y="74.94666666666667" type="curve" smooth="yes"/>
      <point x="-10.746666666666666" y="21.36"/>
      <point x="27.479999999999997" y="-15.866666666666665"/>
      <point x="83.81333333333333" y="-15.866666666666665" type="curve" smooth="yes"/>
      <point x="153.88" y="-15.866666666666665"/>
      <point x="202.32" y="36.70666666666667"/>
      <point x="202.32" y="102.64" type="curve" smooth="yes"/>
      <point x="202.32" y="156.2266666666667"/>
      <point x="164.09333333333333" y="193.45333333333335"/>
    </contour>
  </outline>
</glyph>
<glyph name="slash" format="2">
	<unicode hex="002F"/>
	<advance width="806.4933333333"/>
	<outline>
		<contour>
			<point x="-68.4933333333" y="0" type="line"/>
			<point x="-1.76" y="0" type="line"/>
			<point x="1000.36" y="1430" type="line"/>
			<point x="933.6266666667" y="1430" type="line"/>
		</contour>
	</outline>
</glyph>
<glyph name="zero" format="2">
	<unicode hex="0030"/>
	<advance width="1200"/>
	<outline>
		<contour>
			<point x="234.0133333333" y="346.2933333333" type="curve" smooth="yes"/>
			<point x="234.0133333333" y="733.4133333333"/>
			<point x="499.7466666667" y="1419.9066666667"/>
			<point x="873" y="1419.9066666667" type="curve" smooth="yes"/>
			<point x="1010.0533333333" y="1419.9066666667"/>
			<point x="1089.6133333333" y="1311.68"/>
			<point x="1089.6133333333" y="1083.7066666667" type="curve" smooth="yes"/>
			<point x="1089.6133333333" y="696.5866666667"/>
			<point x="823.88" y="10.0933333333"/>
			<point x="450.6266666667" y="10.0933333333" type="curve" smooth="yes"/>
			<point x="313.5733333333" y="10.0933333333"/>
			<point x="234.0133333333" y="118.32"/>
		</contour>
		<contour>
			<point x="871.12" y="1450" type="curve" smooth="yes"/>
			<point x="423.3866666667" y="1450"/>
			<point x="127.6666666667" y="841.3733333333"/>
			<point x="127.6666666667" y="397.04" type="curve" smooth="yes"/>
			<point x="127.6666666667" y="136.6133333333"/>
			<point x="243.1066666667" y="-20"/>
			<point x="452.5066666667" y="-20" type="curve" smooth="yes"/>
			<point x="900.24" y="-20"/>
			<point x="1195.96" y="588.6266666667"/>
			<point x="1195.96" y="1032.96" type="curve" smooth="yes"/>
			<point x="1195.96" y="1293.3866666667"/>
			<point x="1080.52" y="1450"/>
		</contour>
	</outline>
</glyph>
<glyph name="one" format="2">
  <advance width="1200.0"/>
  <unicode hex="0031"/>
  <outline>
    <contour>
      <point x="473.5866666666667" y="51.2" type="line"/>
      <point x="166.4" y="14.986666666666666" type="line"/>
      <point x="159.90666666666667" y="0.0" type="line"/>
      <point x="881.36" y="0.0" type="line"/>
      <point x="889.48" y="14.986666666666666" type="line"/>
      <point x="590.0266666666666" y="51.2" type="line"/>
      <point x="1017.2933333333333" y="1449.3733333333332" type="line"/>
      <point x="996.4399999999999" y="1449.3733333333332" type="line"/>
      <point x="426.72" y="1200.8" type="line"/>
      <point x="431.84000000000003" y="1186.56" type="line"/>
      <point x="906.4266666666666" y="1322.0266666666669" type="line"/>
      <point x="871.12" y="1350.8" type="line"/>
    </contour>
  </outline>
</glyph>
<glyph name="colon" format="2">
  <advance width="473.08"/>
  <unicode hex="003A"/>
  <outline>
    <contour>
      <point x="118.61333333333334" y="193.45333333333335" type="curve" smooth="yes"/>
      <point x="48.54666666666667" y="193.45333333333335"/>
      <point x="0.10666666666666558" y="140.88"/>
      <point x="0.10666666666666558" y="74.94666666666667" type="curve" smooth="yes"/>
      <point x="0.10666666666666558" y="21.36"/>
      <point x="38.333333333333336" y="-15.866666666666665"/>
      <point x="94.66666666666667" y="-15.866666666666665" type="curve" smooth="yes"/>
      <point x="164.73333333333332" y="-15.866666666666665"/>
      <point x="213.17333333333332" y="36.70666666666667"/>
      <point x="213.17333333333332" y="102.64" type="curve" smooth="yes"/>
      <point x="213.17333333333332" y="156.2266666666667"/>
      <point x="174.94666666666666" y="193.45333333333335"/>
    </contour>
    <contour>
      <point x="377.4133333333333" y="1039.4933333333333" type="curve" smooth="yes"/>
      <point x="307.3466666666667" y="1039.4933333333333"/>
      <point x="258.90666666666664" y="986.92"/>
      <point x="258.90666666666664" y="920.9866666666667" type="curve" smooth="yes"/>
      <point x="258.90666666666664" y="867.4"/>
      <point x="297.1333333333333" y="830.1733333333333"/>
      <point x="353.46666666666664" y="830.1733333333333" type="curve" smooth="yes"/>
      <point x="423.5333333333333" y="830.1733333333333"/>
      <point x="471.97333333333336" y="882.7466666666667"/>
      <point x="471.97333333333336" y="948.6800000000001" type="curve" smooth="yes"/>
      <point x="471.97333333333336" y="1002.2666666666667"/>
      <point x="433.7466666666666" y="1039.4933333333333"/>
    </contour>
  </outline>
</glyph>
<glyph name="semicolon" format="2">
	<unicode hex="003B"/>
	<advance width="485.2266666667"/>
	<outline>
		<contour>
			<point x="-116.9866666667" y="-277.8266666667" type="curve"/>
			<point x="-104.7466666667" y="-295.9333333333" type="line"/>
			<point x="130.6666666667" y="-139.2"/>
			<point x="214.8133333333" y="-0.9333333333"/>
			<point x="214.8133333333" y="100.52" type="curve" smooth="yes"/>
			<point x="214.8133333333" y="158.3733333333"/>
			<point x="177.3333333333" y="189.3466666667"/>
			<point x="127.76" y="189.3466666667" type="curve" smooth="yes"/>
			<point x="60.32" y="189.3466666667"/>
			<point x="17.6266666667" y="137.52"/>
			<point x="17.6266666667" y="89.8133333333" type="curve" smooth="yes"/>
			<point x="17.6266666667" y="58.1866666667"/>
			<point x="98.9733333333" y="49.36"/>
			<point x="98.9733333333" y="-10.1066666667" type="curve" smooth="yes"/>
			<point x="98.9733333333" y="-68.96"/>
			<point x="42.6266666667" y="-162.56"/>
		</contour>
		<contour>
			<point x="384.3066666667" y="1039.4933333333" type="curve" smooth="yes"/>
			<point x="314.24" y="1039.4933333333"/>
			<point x="265.8" y="986.92"/>
			<point x="265.8" y="920.9866666667" type="curve" smooth="yes"/>
			<point x="265.8" y="867.4"/>
			<point x="304.0266666667" y="830.1733333333"/>
			<point x="360.36" y="830.1733333333" type="curve" smooth="yes"/>
			<point x="430.4266666667" y="830.1733333333"/>
			<point x="478.8666666667" y="882.7466666667"/>
			<point x="478.8666666667" y="948.68" type="curve" smooth="yes"/>
			<point x="478.8666666667" y="1002.2666666667"/>
			<point x="440.64" y="1039.4933333333"/>
		</contour>
	</outline>
</glyph>
<glyph name="less" format="2">
  <advance width="1150.0"/>
  <unicode hex="003C"/>
  <guideline x="1100.3733333333334" y="909.0" angle="176.00844947234282" identifier="rrevOd4Prw"/>
  <outline>
    <contour>
      <point x="178.82666666666668" y="497.62666666666667" type="line"/>
      <point x="1080.76" y="844.0400000000001" type="line"/>
      <point x="1100.3733333333334" y="909.0" type="line"/>
      <point x="151.49333333333334" y="539.36" type="line"/>
      <point x="135.25333333333333" y="484.64" type="line"/>
      <point x="858.3733333333333" y="115.0" type="line"/>
      <point x="873.9866666666667" y="168.46666666666667" type="line"/>
      <point x="186.08" y="520.88" type="line"/>
    </contour>
  </outline>
</glyph>
<glyph name="greater" format="2">
	<unicode hex="003E"/>
	<advance width="1150"/>
	<outline>
		<contour>
			<point x="970.1733333333" y="526.3733333333" type="line"/>
			<point x="68.24" y="179.96" type="line"/>
			<point x="48.6266666667" y="115" type="line"/>
			<point x="997.5066666667" y="484.64" type="line"/>
			<point x="1013.7466666667" y="539.36" type="line"/>
			<point x="290.6266666667" y="909" type="line"/>
			<point x="275.0133333333" y="855.5333333333" type="line"/>
			<point x="962.92" y="503.12" type="line"/>
		</contour>
	</outline>
</glyph>
<glyph name="question" format="2">
	<unicode hex="003F"/>
	<advance width="955.3333333333"/>
	<outline>
		<contour>
			<point x="290.9466666667" y="193.8266666667" type="curve" smooth="yes"/>
			<point x="220.88" y="193.8266666667"/>
			<point x="172.44" y="141.2533333333"/>
			<point x="172.44" y="74.9466666667" type="curve" smooth="yes"/>
			<point x="172.44" y="21.36"/>
			<point x="210.6666666667" y="-15.8666666667"/>
			<point x="267" y="-15.8666666667" type="curve" smooth="yes"/>
			<point x="337.0666666667" y="-15.8666666667"/>
			<point x="385.5066666667" y="36.7066666667"/>
			<point x="385.5066666667" y="102.64" type="curve" smooth="yes"/>
			<point x="385.5066666667" y="156.6"/>
			<point x="347.28" y="193.8266666667"/>
		</contour>
		<contour>
			<point x="539.6666666667" y="1450" type="curve" smooth="yes"/>
			<point x="367.4133333333" y="1450"/>
			<point x="312.64" y="1406.6533333333"/>
			<point x="312.64" y="1352.2" type="curve" smooth="yes"/>
			<point x="312.64" y="1319.3466666667"/>
			<point x="335" y="1293.8533333333"/>
			<point x="361.48" y="1293.8533333333" type="curve" smooth="yes"/>
			<point x="374.4666666667" y="1293.8533333333"/>
			<point x="468.28" y="1379.16"/>
			<point x="628.8666666667" y="1379.16" type="curve" smooth="yes"/>
			<point x="808.2933333333" y="1379.16"/>
			<point x="930" y="1263.9866666667"/>
			<point x="930" y="1063.6533333333" type="curve" smooth="yes"/>
			<point x="930" y="832.88"/>
			<point x="789.2666666667" y="744.52"/>
			<point x="434.1066666667" y="792.8666666667" type="curve"/>
			<point x="355.3866666667" y="421.0133333333" type="line"/>
			<point x="379.24" y="421.0133333333" type="line"/>
			<point x="500.68" y="770.16" type="line"/>
			<point x="442.24" y="688.2533333333" type="line"/>
			<point x="832.4" y="636.4"/>
			<point x="991.8133333333" y="770.9066666667"/>
			<point x="991.8133333333" y="1023.2266666667" type="curve" smooth="yes"/>
			<point x="991.8133333333" y="1264.0666666667"/>
			<point x="783.96" y="1450"/>
		</contour>
	</outline>
</glyph>
<glyph name="at" format="2">
  <advance width="1773"/>
  <unicode hex="0040"/>
  <outline>
    <contour>
      <point x="1319.0666666666666" y="271.7333333333333" type="curve" smooth="yes"/>
      <point x="1238.6533333333334" y="271.7333333333333"/>
      <point x="1184.3733333333332" y="315.62666666666667"/>
      <point x="1184.3733333333332" y="419.92" type="curve" smooth="yes"/>
      <point x="1184.3733333333332" y="466.3066666666667"/>
      <point x="1194.6266666666668" y="525.32"/>
      <point x="1218.76" y="598.3333333333333" type="curve" smooth="yes"/>
      <point x="1361.3866666666668" y="1039.0" type="line"/>
      <point x="1250.0666666666666" y="1039.0" type="line"/>
      <point x="1224.0666666666666" y="960.2666666666667" type="line"/>
      <point x="1114.0533333333335" y="624.7466666666667" type="line" smooth="yes"/>
      <point x="946.7066666666666" y="378.64"/>
      <point x="854.1733333333334" y="319.1333333333333"/>
      <point x="777.1466666666668" y="319.1333333333333" type="curve" smooth="yes"/>
      <point x="710.7333333333333" y="319.1333333333333"/>
      <point x="682.8399999999999" y="363.15999999999997"/>
      <point x="682.8399999999999" y="448.18666666666667" type="curve" smooth="yes"/>
      <point x="682.8399999999999" y="653.6133333333333"/>
      <point x="883.5333333333334" y="1016.8133333333334"/>
      <point x="1085.6133333333332" y="1016.8133333333334" type="curve" smooth="yes"/>
      <point x="1143.6133333333335" y="1016.8133333333334"/>
      <point x="1190.76" y="996.08"/>
      <point x="1234.7733333333333" y="927.7199999999999" type="curve"/>
      <point x="1245.52" y="940.7066666666667" type="line"/>
      <point x="1202.6399999999999" y="1021.1466666666666"/>
      <point x="1143.1733333333334" y="1056.12"/>
      <point x="1066.68" y="1056.12" type="curve" smooth="yes"/>
      <point x="826.9333333333333" y="1056.12"/>
      <point x="562.28" y="692.3733333333333"/>
      <point x="562.28" y="432.74666666666667" type="curve" smooth="yes"/>
      <point x="562.28" y="320.52"/>
      <point x="606.8933333333333" y="245.50666666666666"/>
      <point x="731.0266666666666" y="245.50666666666666" type="curve" smooth="yes"/>
      <point x="827.76" y="245.50666666666666"/>
      <point x="945.3866666666668" y="326.53333333333336"/>
      <point x="1126.0133333333333" y="609.6" type="curve"/>
      <point x="1113.16" y="610.3466666666667" type="line"/>
      <point x="1094.4133333333332" y="533.2533333333333" type="line" smooth="yes"/>
      <point x="1086.7866666666666" y="501.2533333333333"/>
      <point x="1082.4133333333332" y="470.25333333333333"/>
      <point x="1082.4133333333332" y="442.62666666666667" type="curve" smooth="yes"/>
      <point x="1082.4133333333332" y="319.52"/>
      <point x="1158.8933333333334" y="245.50666666666666"/>
      <point x="1298.1200000000001" y="245.50666666666666" type="curve" smooth="yes"/>
      <point x="1580.156127424494" y="245.50666666666666"/>
      <point x="1785.04" y="528.4266666666667"/>
      <point x="1785.04" y="878.08" type="curve" smooth="yes"/>
      <point x="1785.04" y="1206.7199999999998"/>
      <point x="1546.0819900497513" y="1451.4933333333333"/>
      <point x="1121.3466666666666" y="1451.4933333333333" type="curve" smooth="yes"/>
      <point x="556.1602414998412" y="1451.4933333333333"/>
      <point x="102.38666666666667" y="977.8570542635659"/>
      <point x="102.38666666666667" y="439.25333333333333" type="curve" smooth="yes"/>
      <point x="102.38666666666667" y="11.745333333333338"/>
      <point x="398.2266666666667" y="-218.0"/>
      <point x="844.36" y="-218.0" type="curve" smooth="yes"/>
      <point x="1059.0666666666666" y="-218.0"/>
      <point x="1311.72" y="-143.74666666666667"/>
      <point x="1492.8266666666668" y="-23.373333333333335" type="curve"/>
      <point x="1481.7066666666667" y="-3.2666666666666675" type="line"/>
      <point x="1281.6000000000001" y="-127.89333333333332"/>
      <point x="1041.1999999999998" y="-179.4"/>
      <point x="874.8533333333334" y="-179.4" type="curve" smooth="yes"/>
      <point x="447.17333333333335" y="-179.4"/>
      <point x="188.9333333333333" y="45.21333333333333"/>
      <point x="188.9333333333333" y="444.36" type="curve" smooth="yes"/>
      <point x="188.9333333333333" y="988.3733333333334"/>
      <point x="584.7343300830624" y="1416.6399999999999"/>
      <point x="1115.1066666666666" y="1416.6399999999999" type="curve" smooth="yes"/>
      <point x="1491.9802409638553" y="1416.6399999999999"/>
      <point x="1714.24" y="1174.9866666666667"/>
      <point x="1714.24" y="860.2133333333334" type="curve" smooth="yes"/>
      <point x="1714.24" y="519.9733333333334"/>
      <point x="1532.138542637504" y="271.7333333333333"/>
    </contour>
  </outline>
</glyph>
<glyph name="A" format="2">
  <advance width="1374.6799999999998"/>
  <unicode hex="0041"/>
  <anchor x="923.6133333333333" y="1430.0" name="UCtop"/>
  <anchor x="528.1466666666666" y="0.0" name="bottom"/>
  <anchor x="1152.1466666666665" y="0.0" name="right"/>
  <outline>
    <contour>
      <point x="399.4266666666667" y="578.3066666666667" type="line"/>
      <point x="1012.52" y="578.3066666666667" type="line"/>
      <point x="1024.8799999999999" y="616.76" type="line"/>
      <point x="412.16" y="616.76" type="line"/>
    </contour>
    <contour>
      <point x="1099.1066666666668" y="45.46666666666666" type="line"/>
      <point x="974.8666666666667" y="1450.0" type="line"/>
      <point x="947.64" y="1450.0" type="line"/>
      <point x="22.400000000000002" y="48.45333333333333" type="line"/>
      <point x="-154.24" y="14.986666666666666" type="line"/>
      <point x="-158.35999999999999" y="0.0" type="line"/>
      <point x="229.25333333333333" y="0.0" type="line"/>
      <point x="233.37333333333333" y="14.986666666666666" type="line"/>
      <point x="69.22666666666666" y="47.333333333333336" type="line"/>
      <point x="891.24" y="1300.84" type="line"/>
      <point x="874.76" y="1300.84" type="line"/>
      <point x="980.8" y="44.72" type="line"/>
      <point x="809.6400000000001" y="14.986666666666666" type="line"/>
      <point x="804.8933333333334" y="0.0" type="line"/>
      <point x="1255.0266666666666" y="0.0" type="line"/>
      <point x="1259.1466666666668" y="14.986666666666666" type="line"/>
    </contour>
  </outline>
</glyph>
<glyph name="B" format="2">
	<unicode hex="0042"/>
	<advance width="1192.6666666667"/>
	<outline>
		<contour>
			<point x="531.8933333333" y="1394.5333333333" type="line"/>
			<point x="770.2666666667" y="1394.5333333333" type="line" smooth="yes"/>
			<point x="997.3733333333" y="1394.5333333333"/>
			<point x="1070.7466666667" y="1298.3466666667"/>
			<point x="1070.7466666667" y="1158.7066666667" type="curve" smooth="yes"/>
			<point x="1070.7466666667" y="950.0933333333"/>
			<point x="921.0666666667" y="778.7333333333"/>
			<point x="656.8533333333" y="778.7333333333" type="curve" smooth="yes"/>
			<point x="345" y="778.7333333333" type="line"/>
			<point x="340.84" y="743.2666666667" type="line"/>
			<point x="649.8533333333" y="743.2666666667" type="line" smooth="yes"/>
			<point x="872.3333333333" y="743.2666666667"/>
			<point x="955.7333333333" y="650.88"/>
			<point x="955.7333333333" y="505.8533333333" type="curve" smooth="yes"/>
			<point x="955.7333333333" y="231.4"/>
			<point x="772.44" y="35.4666666667"/>
			<point x="424.1866666667" y="35.4666666667" type="curve" smooth="yes"/>
			<point x="125.32" y="35.4666666667" type="line"/>
			<point x="157.2666666667" y="0" type="line"/>
			<point x="427.6666666667" y="0" type="line" smooth="yes"/>
			<point x="851.2" y="0"/>
			<point x="1079.9066666667" y="220.0133333333"/>
			<point x="1079.9066666667" y="478.7733333333" type="curve" smooth="yes"/>
			<point x="1079.9066666667" y="620.1333333333"/>
			<point x="991.44" y="744.36"/>
			<point x="758.2133333333" y="764.9866666667" type="curve"/>
			<point x="745.1333333333" y="758" type="line"/>
			<point x="1057.2666666667" y="803.04"/>
			<point x="1188.8" y="966.1466666667"/>
			<point x="1188.8" y="1161.1333333333" type="curve" smooth="yes"/>
			<point x="1188.8" y="1310.76"/>
			<point x="1077.2933333333" y="1430"/>
			<point x="817.92" y="1430" type="curve" smooth="yes"/>
			<point x="593.8933333333" y="1430" type="line"/>
		</contour>
		<contour>
			<point x="508.1333333333" y="1385.04" type="line"/>
			<point x="99.7333333333" y="44.96" type="line"/>
			<point x="-78.8933333333" y="14.9866666667" type="line"/>
			<point x="-83.0133333333" y="0" type="line"/>
			<point x="206.5466666667" y="0" type="line"/>
			<point x="642.8" y="1430" type="line"/>
			<point x="344.8666666667" y="1430" type="line"/>
			<point x="340.12" y="1415.0133333333" type="line"/>
		</contour>
	</outline>
	<anchor name="UCtop" x="833.8933333333" y="1430"/>
	<anchor name="bottom" x="482.16" y="0"/>
</glyph>
<glyph name="C" format="2">
	<unicode hex="0043"/>
	<advance width="1379.6133333333"/>
	<outline>
		<contour>
			<point x="1092.9066666667" y="115.8" type="line"/>
			<point x="981.5733333333" y="42.8533333333"/>
			<point x="850.96" y="10.6"/>
			<point x="735.7066666667" y="10.6" type="curve" smooth="yes"/>
			<point x="463.2" y="10.6"/>
			<point x="268.6" y="193.3066666667"/>
			<point x="268.6" y="536.3333333333" type="curve" smooth="yes"/>
			<point x="268.6" y="1071.9066666667"/>
			<point x="609.9466666667" y="1412.7733333333"/>
			<point x="1034.5333333333" y="1412.7733333333" type="curve" smooth="yes"/>
			<point x="1174.3466666667" y="1412.7733333333"/>
			<point x="1284.9066666667" y="1381.64"/>
			<point x="1381.2" y="1289.8933333333" type="curve"/>
			<point x="1321.7866666667" y="1362" type="line"/>
			<point x="1384.0933333333" y="1010.92" type="line"/>
			<point x="1404.08" y="1010.92" type="line"/>
			<point x="1441.1866666667" y="1480.8666666667" type="line"/>
			<point x="1433.8266666667" y="1480.8666666667" type="line"/>
			<point x="1329.7866666667" y="1387.3466666667" type="line"/>
			<point x="1411.5066666667" y="1395.08" type="line"/>
			<point x="1313.76" y="1431.1066666667"/>
			<point x="1210.48" y="1450"/>
			<point x="1076.28" y="1450" type="curve" smooth="yes"/>
			<point x="576.2266666667" y="1450"/>
			<point x="149.4" y="1097.04"/>
			<point x="149.4" y="546.3066666667" type="curve" smooth="yes"/>
			<point x="149.4" y="203.8"/>
			<point x="367.1466666667" y="-20"/>
			<point x="732.0933333333" y="-20" type="curve" smooth="yes"/>
			<point x="855.56" y="-20"/>
			<point x="1001.72" y="-0.9866666667"/>
			<point x="1127.6533333333" y="41.52" type="curve"/>
			<point x="1287.3733333333" y="351.6" type="line"/>
			<point x="1267.76" y="351.6" type="line"/>
			<point x="1021.84" y="54.4533333333" type="line"/>
		</contour>
	</outline>
	<anchor name="UCtop" x="1004.9066666667" y="1430"/>
	<anchor name="bottom" x="675.7066666667" y="0"/>
	<anchor name="right" x="1109.2533333333" y="0"/>
</glyph>
<glyph name="D" format="2">
	<unicode hex="0044"/>
	<advance width="1457.52"/>
	<outline>
		<contour>
			<point x="448.6666666667" y="38.4533333333" type="curve" smooth="yes"/>
			<point x="129.6" y="38.4533333333" type="line"/>
			<point x="129.8933333333" y="0" type="line"/>
			<point x="467.9066666667" y="0" type="line" smooth="yes"/>
			<point x="1083.1333333333" y="0"/>
			<point x="1437.3866666667" y="412.6"/>
			<point x="1437.3866666667" y="905.0266666667" type="curve" smooth="yes"/>
			<point x="1437.3866666667" y="1236.2266666667"/>
			<point x="1190.9466666667" y="1430"/>
			<point x="800.28" y="1430" type="curve" smooth="yes"/>
			<point x="567.2666666667" y="1430" type="line"/>
			<point x="543.7466666667" y="1391.5466666667" type="line"/>
			<point x="777.1333333333" y="1391.5466666667" type="line" smooth="yes"/>
			<point x="1121.4933333333" y="1391.5466666667"/>
			<point x="1312.96" y="1220.7707936508"/>
			<point x="1312.96" y="917.8133333333" type="curve" smooth="yes"/>
			<point x="1312.96" y="423.0628592758"/>
			<point x="999.7866666667" y="38.4533333333"/>
		</contour>
		<contour>
			<point x="508.1333333333" y="1385.04" type="line"/>
			<point x="99.7333333333" y="44.96" type="line"/>
			<point x="-78.8933333333" y="14.9866666667" type="line"/>
			<point x="-83.0133333333" y="0" type="line"/>
			<point x="206.5466666667" y="0" type="line"/>
			<point x="642.8" y="1430" type="line"/>
			<point x="344.8666666667" y="1430" type="line"/>
			<point x="340.12" y="1415.0133333333" type="line"/>
		</contour>
	</outline>
	<anchor name="UCtop" x="1030.72" y="1430"/>
	<anchor name="bottom" x="613.92" y="0"/>
</glyph>
<glyph name="E" format="2">
	<unicode hex="0045"/>
	<advance width="1245.88"/>
	<outline>
		<contour>
			<point x="508.1333333333" y="1385.04" type="line"/>
			<point x="99.7333333333" y="44.96" type="line"/>
			<point x="-78.8933333333" y="14.9866666667" type="line"/>
			<point x="-83.0133333333" y="0" type="line"/>
			<point x="206.5466666667" y="0" type="line"/>
			<point x="642.8" y="1430" type="line"/>
			<point x="344.8666666667" y="1430" type="line"/>
			<point x="340.12" y="1415.0133333333" type="line"/>
		</contour>
		<contour>
			<point x="1227.8133333333" y="1407.16" type="line"/>
			<point x="1272.2533333333" y="1057.9466666667" type="line"/>
			<point x="1289.9866666667" y="1057.9466666667" type="line"/>
			<point x="1345.1866666667" y="1477.1066666667" type="line"/>
			<point x="1340.0666666667" y="1477.1066666667" type="line"/>
			<point x="1238.1866666667" y="1430" type="line"/>
			<point x="545.0266666667" y="1430" type="line"/>
			<point x="532.6666666667" y="1391.5466666667" type="line"/>
			<point x="1302.68" y="1391.5466666667" type="line"/>
		</contour>
		<contour>
			<point x="927.4" y="-50.8666666667" type="line"/>
			<point x="933.7733333333" y="-50.8666666667" type="line"/>
			<point x="1162.52" y="368.3733333333" type="line"/>
			<point x="1148.16" y="378.36" type="line"/>
			<point x="840.1733333333" y="24.84" type="line"/>
			<point x="939.08" y="38.4533333333" type="line"/>
			<point x="120.3866666667" y="38.4533333333" type="line"/>
			<point x="108.0266666667" y="0" type="line"/>
			<point x="851.16" y="0" type="line"/>
		</contour>
		<contour>
			<point x="842.8" y="460.0133333333" type="line"/>
			<point x="897.92" y="747.2533333333" type="line"/>
			<point x="1019.2933333333" y="1035.8666666667" type="line"/>
			<point x="1005.1866666667" y="1035.8666666667" type="line"/>
			<point x="837.8533333333" y="776.48" type="line"/>
			<point x="375.7333333333" y="758.5066666667" type="line"/>
			<point x="368.1066666667" y="737.6266666667" type="line"/>
			<point x="825.9866666667" y="722.4" type="line"/>
			<point x="829.32" y="460.0133333333" type="line"/>
		</contour>
	</outline>
	<anchor name="UCtop" x="884.3066666667" y="1430"/>
	<anchor name="right" x="925.1333333333" y="0"/>
	<anchor name="bottom" x="522.5733333333" y="0"/>
</glyph>
<glyph name="F" format="2">
	<unicode hex="0046"/>
	<advance width="1101.84"/>
	<outline>
		<contour>
			<point x="996.6" y="1005.24" type="line"/>
			<point x="982.4933333333" y="1005.24" type="line"/>
			<point x="815.16" y="745.8533333333" type="line"/>
			<point x="371.2133333333" y="727.88" type="line"/>
			<point x="363.5866666667" y="707" type="line"/>
			<point x="803.2933333333" y="691.7733333333" type="line"/>
			<point x="806.6266666667" y="429.3866666667" type="line"/>
			<point x="820.1066666667" y="429.3866666667" type="line"/>
			<point x="875.2266666667" y="716.6266666667" type="line"/>
		</contour>
		<contour>
			<point x="1231.12" y="1057.9466666667" type="line"/>
			<point x="1286.32" y="1477.1066666667" type="line"/>
			<point x="1281.2" y="1477.1066666667" type="line"/>
			<point x="1179.32" y="1430" type="line"/>
			<point x="545.0266666667" y="1430" type="line"/>
			<point x="532.6666666667" y="1391.5466666667" type="line"/>
			<point x="1243.8133333333" y="1391.5466666667" type="line"/>
			<point x="1168.9466666667" y="1407.16" type="line"/>
			<point x="1213.3866666667" y="1057.9466666667" type="line"/>
		</contour>
		<contour>
			<point x="220.16" y="44.96" type="line"/>
			<point x="642.8" y="1430" type="line"/>
			<point x="344.8666666667" y="1430" type="line"/>
			<point x="340.12" y="1415.0133333333" type="line"/>
			<point x="508.1333333333" y="1385.04" type="line"/>
			<point x="99.7333333333" y="44.96" type="line"/>
			<point x="-78.8933333333" y="14.9866666667" type="line"/>
			<point x="-83.0133333333" y="0" type="line"/>
			<point x="383.4266666667" y="0" type="line"/>
			<point x="387.8" y="14.9866666667" type="line"/>
		</contour>
	</outline>
	<anchor name="UCtop" x="848.92" y="1430"/>
	<anchor name="bottom" x="152.12" y="0"/>
</glyph>
<glyph name="G" format="2">
	<unicode hex="0047"/>
	<advance width="1488.7333333333"/>
	<outline>
		<contour>
			<point x="736.9066666667" y="10.6" type="curve" smooth="yes"/>
			<point x="455.84" y="10.6"/>
			<point x="268.6" y="197.04"/>
			<point x="268.6" y="536.3333333333" type="curve" smooth="yes"/>
			<point x="268.6" y="1071.9066666667"/>
			<point x="606.96" y="1412.7733333333"/>
			<point x="1027.44" y="1412.7733333333" type="curve" smooth="yes"/>
			<point x="1167.2533333333" y="1412.7733333333"/>
			<point x="1277.8133333333" y="1381.64"/>
			<point x="1374.1066666667" y="1289.8933333333" type="curve"/>
			<point x="1314.6933333333" y="1362" type="line"/>
			<point x="1377" y="1010.92" type="line"/>
			<point x="1396.9866666667" y="1010.92" type="line"/>
			<point x="1434.0933333333" y="1480.8666666667" type="line"/>
			<point x="1426.7333333333" y="1480.8666666667" type="line"/>
			<point x="1322.6933333333" y="1387.3466666667" type="line"/>
			<point x="1404.4133333333" y="1395.08" type="line"/>
			<point x="1306.6666666667" y="1431.1066666667"/>
			<point x="1203.3866666667" y="1450"/>
			<point x="1069.1866666667" y="1450" type="curve" smooth="yes"/>
			<point x="573.24" y="1450"/>
			<point x="149.4" y="1097.04"/>
			<point x="149.4" y="546.3066666667" type="curve" smooth="yes"/>
			<point x="149.4" y="203.8"/>
			<point x="376.2133333333" y="-20"/>
			<point x="741.1333333333" y="-20" type="curve" smooth="yes"/>
			<point x="905.960205342" y="-20"/>
			<point x="1097.84" y="19.4"/>
			<point x="1291.4666666667" y="86.1333333333" type="curve"/>
			<point x="1294.7066666667" y="97.1066666667" type="line"/>
			<point x="1175.8266666667" y="97.1066666667" type="line"/>
			<point x="1327.72" y="595.5333333333" type="line"/>
			<point x="1475.8666666667" y="624.3866666667" type="line"/>
			<point x="1480.9866666667" y="639.3733333333" type="line"/>
			<point x="1021.3866666667" y="639.3733333333" type="line"/>
			<point x="1016.2666666667" y="624.3866666667" type="line"/>
			<point x="1211.8933333333" y="593.2933333333" type="line"/>
			<point x="1044.52" y="43.1733333333" type="line"/>
			<point x="1102" y="99" type="line"/>
			<point x="988.8807367747" y="33.5792641496"/>
			<point x="857.5771868979" y="10.6"/>
		</contour>
	</outline>
	<anchor name="UCtop" x="996.5066666667" y="1430"/>
	<anchor name="bottom" x="738.5066666667" y="0"/>
</glyph>
<glyph name="H" format="2">
	<unicode hex="0048"/>
	<advance width="1515.8133333333"/>
	<outline>
		<contour>
			<point x="345.7733333333" y="722.6533333333" type="line"/>
			<point x="1294.1866666667" y="722.6533333333" type="line"/>
			<point x="1306.92" y="761.1066666667" type="line"/>
			<point x="358.1333333333" y="761.1066666667" type="line"/>
		</contour>
		<contour>
			<point x="508.1333333333" y="1385.04" type="line"/>
			<point x="99.7333333333" y="44.96" type="line"/>
			<point x="-78.8933333333" y="14.9866666667" type="line"/>
			<point x="-83.0133333333" y="0" type="line"/>
			<point x="383.4266666667" y="0" type="line"/>
			<point x="387.8" y="14.9866666667" type="line"/>
			<point x="220.16" y="44.96" type="line"/>
			<point x="629.1866666667" y="1385.04" type="line"/>
			<point x="807.1866666667" y="1415.0133333333" type="line"/>
			<point x="811.9333333333" y="1430" type="line"/>
			<point x="344.8666666667" y="1430" type="line"/>
			<point x="340.12" y="1415.0133333333" type="line"/>
		</contour>
		<contour>
			<point x="1416.6533333333" y="1385.04" type="line"/>
			<point x="1008.2533333333" y="44.96" type="line"/>
			<point x="829.6266666667" y="14.9866666667" type="line"/>
			<point x="825.5066666667" y="0" type="line"/>
			<point x="1291.9466666667" y="0" type="line"/>
			<point x="1296.6933333333" y="14.9866666667" type="line"/>
			<point x="1129.0533333333" y="44.96" type="line"/>
			<point x="1538.08" y="1385.04" type="line"/>
			<point x="1715.7066666667" y="1415.0133333333" type="line"/>
			<point x="1720.4533333333" y="1430" type="line"/>
			<point x="1253.3866666667" y="1430" type="line"/>
			<point x="1249.0133333333" y="1415.0133333333" type="line"/>
		</contour>
	</outline>
	<anchor name="UCtop" x="1003.2666666667" y="1430"/>
	<anchor name="bottom" x="587.6666666667" y="0"/>
</glyph>
<glyph name="I" format="2">
	<unicode hex="0049"/>
	<advance width="606.92"/>
	<outline>
		<contour>
			<point x="508.1333333333" y="1385.04" type="line"/>
			<point x="99.7333333333" y="44.96" type="line"/>
			<point x="-78.8933333333" y="14.9866666667" type="line"/>
			<point x="-83.0133333333" y="0" type="line"/>
			<point x="383.4266666667" y="0" type="line"/>
			<point x="387.8" y="14.9866666667" type="line"/>
			<point x="220.16" y="44.96" type="line"/>
			<point x="629.1866666667" y="1385.04" type="line"/>
			<point x="807.1866666667" y="1415.0133333333" type="line"/>
			<point x="811.9333333333" y="1430" type="line"/>
			<point x="344.8666666667" y="1430" type="line"/>
			<point x="340.12" y="1415.0133333333" type="line"/>
		</contour>
	</outline>
	<anchor name="UCtop" x="572.04" y="1430"/>
	<anchor name="right" x="231.5866666667" y="0"/>
	<anchor name="bottom" x="140.3866666667" y="0"/>
</glyph>
<glyph name="J" format="2">
	<unicode hex="004A"/>
	<advance width="684.2666666667"/>
	<outline>
		<contour>
			<point x="451.8266666667" y="458.44" type="curve" smooth="yes"/>
			<point x="735.1466666667" y="1385.04" type="line"/>
			<point x="913.1466666667" y="1415.0133333333" type="line"/>
			<point x="917.8933333333" y="1430" type="line"/>
			<point x="450.8266666667" y="1430" type="line"/>
			<point x="446.08" y="1415.0133333333" type="line"/>
			<point x="614.0933333333" y="1385.04" type="line"/>
			<point x="270.2133333333" y="259.6533333333" type="line" smooth="yes"/>
			<point x="226.2" y="113.7333333333"/>
			<point x="162.6266666667" y="53.9066666667"/>
			<point x="69.56" y="53.9066666667" type="curve" smooth="yes"/>
			<point x="7.6133333333" y="53.9066666667"/>
			<point x="-35.12" y="105.7066666667"/>
			<point x="-64.24" y="105.7066666667" type="curve" smooth="yes"/>
			<point x="-95.3333333333" y="105.7066666667"/>
			<point x="-120.6533333333" y="81.3733333333"/>
			<point x="-120.6533333333" y="45.68" type="curve" smooth="yes"/>
			<point x="-120.6533333333" y="5.72"/>
			<point x="-90.56" y="-18.12"/>
			<point x="-23.36" y="-18.12" type="curve" smooth="yes"/>
			<point x="149.4133333333" y="-18.12"/>
			<point x="356.7333333333" y="148.04"/>
		</contour>
	</outline>
	<anchor name="UCtop" x="679.7466666667" y="1430"/>
	<anchor name="bottom" x="129.2133333333" y="0"/>
</glyph>
<glyph name="K" format="2">
	<unicode hex="004B"/>
	<advance width="1355.0266666667"/>
	<outline>
		<contour>
			<point x="1072.4533333333" y="44.2133333333" type="line"/>
			<point x="607.48" y="804" type="line"/>
			<point x="552.9066666667" y="742.56" type="line"/>
			<point x="1382.5466666667" y="1383.5333333333" type="line"/>
			<point x="1562.68" y="1413.76" type="line"/>
			<point x="1567.68" y="1430" type="line"/>
			<point x="1162.8666666667" y="1430" type="line"/>
			<point x="1158.12" y="1413.76" type="line"/>
			<point x="1324.8666666667" y="1382.7866666667" type="line"/>
			<point x="533.24" y="770.5866666667" type="line"/>
			<point x="406.2266666667" y="770.5866666667" type="line"/>
			<point x="393.4933333333" y="732.1333333333" type="line"/>
			<point x="518" y="732.1333333333" type="line"/>
			<point x="930.4533333333" y="44.5866666667" type="line"/>
			<point x="757.9333333333" y="14.9866666667" type="line"/>
			<point x="753.1866666667" y="0" type="line"/>
			<point x="1230.5066666667" y="0" type="line"/>
			<point x="1235.2533333333" y="14.9866666667" type="line"/>
		</contour>
		<contour>
			<point x="508.1333333333" y="1385.04" type="line"/>
			<point x="99.7333333333" y="44.96" type="line"/>
			<point x="-78.8933333333" y="14.9866666667" type="line"/>
			<point x="-83.0133333333" y="0" type="line"/>
			<point x="383.4266666667" y="0" type="line"/>
			<point x="387.8" y="14.9866666667" type="line"/>
			<point x="220.16" y="44.96" type="line"/>
			<point x="629.1866666667" y="1385.04" type="line"/>
			<point x="807.1866666667" y="1415.0133333333" type="line"/>
			<point x="811.9333333333" y="1430" type="line"/>
			<point x="344.8666666667" y="1430" type="line"/>
			<point x="340.12" y="1415.0133333333" type="line"/>
		</contour>
	</outline>
	<anchor name="UCtop" x="950.6133333333" y="1430"/>
	<anchor name="bottom" x="562.6133333333" y="0"/>
</glyph>
<glyph name="L" format="2">
	<unicode hex="004C"/>
	<advance width="1141.2533333333"/>
	<outline>
		<contour>
			<point x="629.1866666667" y="1385.04" type="line"/>
			<point x="807.1866666667" y="1415.0133333333" type="line"/>
			<point x="811.9333333333" y="1430" type="line"/>
			<point x="344.8666666667" y="1430" type="line"/>
			<point x="340.12" y="1415.0133333333" type="line"/>
			<point x="508.1333333333" y="1385.04" type="line"/>
			<point x="99.7333333333" y="44.96" type="line"/>
			<point x="-78.8933333333" y="14.9866666667" type="line"/>
			<point x="-83.0133333333" y="0" type="line"/>
			<point x="206.5466666667" y="0" type="line"/>
		</contour>
		<contour>
			<point x="751.7866666667" y="24.84" type="line"/>
			<point x="805.8933333333" y="38.4533333333" type="line"/>
			<point x="147.0666666667" y="38.4533333333" type="line"/>
			<point x="134.7066666667" y="0" type="line"/>
			<point x="762.7733333333" y="0" type="line"/>
			<point x="839.0133333333" y="-50.8666666667" type="line"/>
			<point x="845.3866666667" y="-50.8666666667" type="line"/>
			<point x="1078.6133333333" y="375.0933333333" type="line"/>
			<point x="1064.2533333333" y="385.08" type="line"/>
		</contour>
	</outline>
	<anchor name="UCtop" x="572.5333333333" y="1430"/>
	<anchor name="right" x="824.5466666667" y="1430"/>
	<anchor name="bottom" x="447.0666666667" y="0"/>
	<anchor name="mid" x="968.9866666667" y="773"/>
</glyph>
<glyph name="M" format="2">
	<unicode hex="004D"/>
	<advance width="1888.6666666667"/>
	<outline>
		<contour>
			<point x="602.8666666667" y="1390.9333333333" type="line"/>
			<point x="579.1466666667" y="1368.7333333333" type="line"/>
			<point x="722.7066666667" y="-20" type="line"/>
			<point x="745.9333333333" y="-20" type="line"/>
			<point x="1756.5866666667" y="1401.5066666667" type="line"/>
			<point x="1764.96" y="1430" type="line"/>
			<point x="1730.4933333333" y="1430" type="line"/>
			<point x="787.56" y="102.3866666667" type="line"/>
			<point x="822.92" y="106.7733333333" type="line"/>
			<point x="688.2133333333" y="1430" type="line"/>
			<point x="398.52" y="1430" type="line"/>
			<point x="394.1466666667" y="1414.3866666667" type="line"/>
			<point x="553.7866666667" y="1368.1866666667" type="line"/>
			<point x="72.2266666667" y="45.7066666667" type="line"/>
			<point x="-107.64" y="14.9866666667" type="line"/>
			<point x="-112.0133333333" y="0" type="line"/>
			<point x="282.68" y="0" type="line"/>
			<point x="287.4266666667" y="14.9866666667" type="line"/>
			<point x="114.56" y="45.7066666667" type="line"/>
		</contour>
		<contour>
			<point x="1730.4933333333" y="1430" type="line"/>
			<point x="1412.84" y="45.7066666667" type="line"/>
			<point x="1229.84" y="14.9866666667" type="line"/>
			<point x="1225.72" y="0" type="line"/>
			<point x="1690.5333333333" y="0" type="line"/>
			<point x="1695.28" y="14.9866666667" type="line"/>
			<point x="1533.8933333333" y="45.7066666667" type="line"/>
			<point x="1837.3066666667" y="1377.7733333333" type="line"/>
			<point x="2027.6533333333" y="1413.1333333333" type="line"/>
			<point x="2032.6533333333" y="1430" type="line"/>
		</contour>
	</outline>
	<anchor name="UCtop" x="1187.4" y="1430"/>
	<anchor name="bottom" x="755.6666666667" y="0"/>
</glyph>
<glyph name="N" format="2">
	<unicode hex="004E"/>
	<advance width="1480.0933333333"/>
	<outline>
		<contour>
			<point x="1121.8933333333" y="146.9733333333" type="line"/>
			<point x="630.6666666667" y="1430" type="line"/>
			<point x="345.2666666667" y="1430" type="line"/>
			<point x="340.52" y="1415.0133333333" type="line"/>
			<point x="507.5066666667" y="1376.8133333333" type="line"/>
			<point x="101.2266666667" y="44.2133333333" type="line"/>
			<point x="-76.7733333333" y="14.9866666667" type="line"/>
			<point x="-81.52" y="0" type="line"/>
			<point x="313.92" y="0" type="line"/>
			<point x="318.6666666667" y="14.9866666667" type="line"/>
			<point x="143.56" y="44.2133333333" type="line"/>
			<point x="553.4666666667" y="1387.5733333333" type="line"/>
			<point x="530.9733333333" y="1363.9866666667" type="line"/>
			<point x="1064" y="-20" type="line"/>
			<point x="1088.4666666667" y="-20" type="line"/>
			<point x="1517.2266666667" y="1385.7866666667" type="line"/>
			<point x="1695.2266666667" y="1415.0133333333" type="line"/>
			<point x="1699.9733333333" y="1430" type="line"/>
			<point x="1304.5333333333" y="1430" type="line"/>
			<point x="1299.7866666667" y="1415.0133333333" type="line"/>
			<point x="1474.8933333333" y="1385.7866666667" type="line"/>
			<point x="1085.52" y="110" type="line"/>
		</contour>
	</outline>
	<anchor name="UCtop" x="1027.6933333333" y="1430"/>
	<anchor name="bottom" x="639.6933333333" y="0"/>
</glyph>
<glyph name="O" format="2">
	<unicode hex="004F"/>
	<advance width="1517.56"/>
	<outline>
		<contour>
			<point x="255.08" y="475.44" type="curve" smooth="yes"/>
			<point x="255.08" y="884.84"/>
			<point x="545.2933333333" y="1415.5333333333"/>
			<point x="995.8666666667" y="1415.5333333333" type="curve" smooth="yes"/>
			<point x="1246.4533333333" y="1415.5333333333"/>
			<point x="1386.1066666667" y="1257.7466666667"/>
			<point x="1386.1066666667" y="954.56" type="curve" smooth="yes"/>
			<point x="1386.1066666667" y="545.16"/>
			<point x="1095.8933333333" y="14.4666666667"/>
			<point x="645.32" y="14.4666666667" type="curve" smooth="yes"/>
			<point x="394.7333333333" y="14.4666666667"/>
			<point x="255.08" y="172.2533333333"/>
		</contour>
		<contour>
			<point x="1502.9333333333" y="912.0133333333" type="curve" smooth="yes"/>
			<point x="1502.9333333333" y="1240.24"/>
			<point x="1328.7733333333" y="1450"/>
			<point x="988.1333333333" y="1450" type="curve" smooth="yes"/>
			<point x="499.9866666667" y="1450"/>
			<point x="138.2533333333" y="968.8266666667"/>
			<point x="138.2533333333" y="517.9866666667" type="curve" smooth="yes"/>
			<point x="138.2533333333" y="189.76"/>
			<point x="312.4133333333" y="-20"/>
			<point x="653.0533333333" y="-20" type="curve" smooth="yes"/>
			<point x="1141.2" y="-20"/>
			<point x="1502.9333333333" y="461.1733333333"/>
		</contour>
	</outline>
	<anchor name="UCtop" x="1039.0933333333" y="1430"/>
	<anchor name="bottom" x="589.8933333333" y="0"/>
	<anchor name="right" x="698.56" y="0"/>
	<anchor name="horn" x="1374.3866666667" y="1430"/>
</glyph>
<glyph name="P" format="2">
	<unicode hex="0050"/>
	<advance width="1161.5733333333"/>
	<outline>
		<contour>
			<point x="615.2933333333" y="696.7333333333" type="curve" smooth="yes"/>
			<point x="344.7866666667" y="696.7333333333" type="line"/>
			<point x="332.0533333333" y="658.28" type="line"/>
			<point x="656.8" y="658.28" type="line" smooth="yes"/>
			<point x="1038.68" y="658.28"/>
			<point x="1274.9466666667" y="845.88"/>
			<point x="1274.9466666667" y="1127.5466666667" type="curve" smooth="yes"/>
			<point x="1274.9466666667" y="1292.6533333333"/>
			<point x="1157.96" y="1430"/>
			<point x="851.5333333333" y="1430" type="curve" smooth="yes"/>
			<point x="574.56" y="1430" type="line"/>
			<point x="555.9333333333" y="1391.5466666667" type="line"/>
			<point x="797.32" y="1391.5466666667" type="line" smooth="yes"/>
			<point x="1049.5866666667" y="1391.5466666667"/>
			<point x="1153.64" y="1287.5866666667"/>
			<point x="1153.64" y="1134.92" type="curve" smooth="yes"/>
			<point x="1153.64" y="871.2666666667"/>
			<point x="977.7466666667" y="696.7333333333"/>
		</contour>
		<contour>
			<point x="220.16" y="44.96" type="line"/>
			<point x="642.8" y="1430" type="line"/>
			<point x="344.8666666667" y="1430" type="line"/>
			<point x="340.12" y="1415.0133333333" type="line"/>
			<point x="508.1333333333" y="1385.04" type="line"/>
			<point x="99.7333333333" y="44.96" type="line"/>
			<point x="-78.8933333333" y="14.9866666667" type="line"/>
			<point x="-83.0133333333" y="0" type="line"/>
			<point x="383.4266666667" y="0" type="line"/>
			<point x="387.8" y="14.9866666667" type="line"/>
		</contour>
	</outline>
	<anchor name="UCtop" x="876.6533333333" y="1430"/>
	<anchor name="bottom" x="153.6133333333" y="0"/>
</glyph>
<glyph name="Q" format="2">
  <advance width="1521.9466666666667"/>
  <unicode hex="0051"/>
  <anchor x="1041.3466666666666" y="1430.0" name="UCtop"/>
  <anchor x="498.5466666666667" y="-160.8" name="bottom"/>
  <outline>
    <contour>
      <point x="901.3733333333333" y="-337.06666666666666" type="line" smooth="yes"/>
      <point x="1005.7466666666667" y="-412.93333333333334"/>
      <point x="1092.1200000000001" y="-465.0"/>
      <point x="1218.5333333333333" y="-465.0" type="curve" smooth="yes"/>
      <point x="1283.1066666666666" y="-465.0"/>
      <point x="1351.1066666666668" y="-449.78666666666663"/>
      <point x="1427.0533333333333" y="-425.18666666666667" type="curve"/>
      <point x="1434.6666666666667" y="-401.2266666666667" type="line"/>
      <point x="1271.6266666666666" y="-419.97333333333336"/>
      <point x="1199.84" y="-404.8"/>
      <point x="1023.3066666666667" y="-292.26666666666665" type="curve" smooth="yes"/>
      <point x="555.8399999999999" y="5.400000000000002" type="line"/>
      <point x="552.0933333333334" y="-2.719999999999999" type="line"/>
      <point x="1079.0266666666666" y="-95.80000000000001"/>
      <point x="1504.8133333333333" y="400.25333333333333"/>
      <point x="1504.8133333333333" y="912.0133333333334" type="curve" smooth="yes"/>
      <point x="1504.8133333333333" y="1240.24"/>
      <point x="1315.6133333333335" y="1450.0"/>
      <point x="974.9733333333334" y="1450.0" type="curve" smooth="yes"/>
      <point x="486.8266666666667" y="1450.0"/>
      <point x="140.13333333333333" y="968.8266666666667"/>
      <point x="140.13333333333333" y="517.9866666666667" type="curve" smooth="yes"/>
      <point x="140.13333333333333" y="314.11999999999995"/>
      <point x="211.12" y="163.73333333333332"/>
      <point x="344.12" y="66.86666666666667" type="curve" smooth="yes"/>
    </contour>
    <contour>
      <point x="256.96000000000004" y="475.44" type="curve" smooth="yes"/>
      <point x="256.96000000000004" y="884.8399999999999"/>
      <point x="528.3733333333333" y="1415.5333333333333"/>
      <point x="978.9466666666666" y="1415.5333333333333" type="curve" smooth="yes"/>
      <point x="1229.5333333333333" y="1415.5333333333333"/>
      <point x="1387.9866666666667" y="1257.7466666666667"/>
      <point x="1387.9866666666667" y="954.56" type="curve" smooth="yes"/>
      <point x="1387.9866666666667" y="545.1600000000001"/>
      <point x="1116.5733333333333" y="14.466666666666665"/>
      <point x="666.0" y="14.466666666666665" type="curve" smooth="yes"/>
      <point x="415.41333333333336" y="14.466666666666665"/>
      <point x="256.96000000000004" y="172.25333333333333"/>
    </contour>
  </outline>
</glyph>
<glyph name="R" format="2">
	<unicode hex="0052"/>
	<advance width="1272.4"/>
	<outline>
		<contour>
			<point x="648.0933333333" y="757.9733333333" type="curve" smooth="yes"/>
			<point x="355.72" y="757.9733333333" type="line"/>
			<point x="342.2266666667" y="721.0133333333" type="line"/>
			<point x="646.8" y="721.0133333333" type="line" smooth="yes"/>
			<point x="729.08" y="721.0133333333"/>
			<point x="751.96" y="703.1333333333"/>
			<point x="802.5733333333" y="541.4" type="curve" smooth="yes"/>
			<point x="912.4266666667" y="188.0533333333" type="line" smooth="yes"/>
			<point x="970.44" y="1.6133333333"/>
			<point x="998.6533333333" y="-16.36"/>
			<point x="1198.5466666667" y="0" type="curve"/>
			<point x="1205.7866666667" y="21.84" type="line"/>
			<point x="1095.9866666667" y="20.84"/>
			<point x="1078.72" y="40.8666666667"/>
			<point x="1032.2266666667" y="187.1333333333" type="curve" smooth="yes"/>
			<point x="917.3733333333" y="546.1466666667" type="line" smooth="yes"/>
			<point x="873.1333333333" y="683.52"/>
			<point x="831.5733333333" y="739"/>
			<point x="682.68" y="739.3733333333" type="curve"/>
			<point x="682.68" y="736.7466666667" type="line"/>
			<point x="1009.3866666667" y="752.64"/>
			<point x="1190.9866666667" y="928.2933333333"/>
			<point x="1190.9866666667" y="1149.7466666667" type="curve" smooth="yes"/>
			<point x="1190.9866666667" y="1308.24"/>
			<point x="1085.5333333333" y="1430"/>
			<point x="793.9333333333" y="1430" type="curve" smooth="yes"/>
			<point x="553.7066666667" y="1430" type="line"/>
			<point x="544.6" y="1393.04" type="line"/>
			<point x="759.24" y="1393.04" type="line" smooth="yes"/>
			<point x="986.0266666667" y="1393.04"/>
			<point x="1073.4133333333" y="1300.6133333333"/>
			<point x="1073.4133333333" y="1152.5066666667" type="curve" smooth="yes"/>
			<point x="1073.4133333333" y="926.3733333333"/>
			<point x="911.5333333333" y="757.9733333333"/>
		</contour>
		<contour>
			<point x="220.16" y="44.96" type="line"/>
			<point x="642.8" y="1430" type="line"/>
			<point x="344.8666666667" y="1430" type="line"/>
			<point x="340.12" y="1415.0133333333" type="line"/>
			<point x="508.1333333333" y="1385.04" type="line"/>
			<point x="99.7333333333" y="44.96" type="line"/>
			<point x="-78.8933333333" y="14.9866666667" type="line"/>
			<point x="-83.0133333333" y="0" type="line"/>
			<point x="383.4266666667" y="0" type="line"/>
			<point x="387.8" y="14.9866666667" type="line"/>
		</contour>
	</outline>
	<anchor name="UCtop" x="832.84" y="1430"/>
	<anchor name="bottom" x="627.5333333333" y="0"/>
</glyph>
<glyph name="S" format="2">
	<unicode hex="0053"/>
	<advance width="1029.3733333333"/>
	<outline>
		<contour>
			<point x="1004.5466666667" y="1287.8533333333" type="curve"/>
			<point x="968.8133333333" y="1359.2933333333" type="line"/>
			<point x="1022" y="1026.64" type="line"/>
			<point x="1040.8666666667" y="1026.64" type="line"/>
			<point x="1091.6" y="1481.4933333333" type="line"/>
			<point x="1082.4933333333" y="1481.4933333333" type="line"/>
			<point x="988.6933333333" y="1378.3866666667" type="line"/>
			<point x="1060.8533333333" y="1358.92" type="line"/>
			<point x="978.2933333333" y="1413"/>
			<point x="877.2933333333" y="1450"/>
			<point x="753.5866666667" y="1450" type="curve" smooth="yes"/>
			<point x="472.9733333333" y="1450"/>
			<point x="309.4" y="1283.88"/>
			<point x="309.4" y="1063.1733333333" type="curve" smooth="yes"/>
			<point x="309.4" y="894.4533333333"/>
			<point x="408.3066666667" y="809.5733333333"/>
			<point x="528.8133333333" y="732.0666666667" type="curve" smooth="yes"/>
			<point x="649.9466666667" y="654.56"/>
			<point x="802.0266666667" y="583.0266666667"/>
			<point x="802.0266666667" y="381.92" type="curve" smooth="yes"/>
			<point x="802.0266666667" y="140.9066666667"/>
			<point x="620.7066666667" y="13.1066666667"/>
			<point x="363.28" y="13.1066666667" type="curve" smooth="yes"/>
			<point x="258.4666666667" y="13.1066666667"/>
			<point x="159.6533333333" y="36.1866666667"/>
			<point x="77.2933333333" y="96.5466666667" type="curve"/>
			<point x="154.8666666667" y="15.1066666667" type="line"/>
			<point x="64.6" y="393.5733333333" type="line"/>
			<point x="42.8666666667" y="393.5733333333" type="line"/>
			<point x="42.8533333333" y="37.6133333333" type="line"/>
			<point x="132.3466666667" y="-0.88"/>
			<point x="240.44" y="-20"/>
			<point x="361.9333333333" y="-20" type="curve" smooth="yes"/>
			<point x="688.1466666667" y="-20"/>
			<point x="897" y="179.1466666667"/>
			<point x="897" y="442.7466666667" type="curve" smooth="yes"/>
			<point x="897" y="648.04"/>
			<point x="759.7866666667" y="731.92"/>
			<point x="635.7866666667" y="809.0533333333" type="curve" smooth="yes"/>
			<point x="511.7866666667" y="886.1866666667"/>
			<point x="395.8933333333" y="959.08"/>
			<point x="395.8933333333" y="1123.3333333333" type="curve" smooth="yes"/>
			<point x="395.8933333333" y="1309.8933333333"/>
			<point x="532.9733333333" y="1417.16"/>
			<point x="727.72" y="1417.16" type="curve" smooth="yes"/>
			<point x="841.4133333333" y="1417.16"/>
			<point x="941.5333333333" y="1375.0933333333"/>
		</contour>
	</outline>
	<anchor name="UCtop" x="741.0266666667" y="1430"/>
	<anchor name="bottom" x="436.8933333333" y="0"/>
</glyph>
<glyph name="T" format="2">
	<unicode hex="0054"/>
	<advance width="1297.1733333333"/>
	<outline>
		<contour>
			<point x="1433.24" y="1391.5466666667" type="line"/>
			<point x="1371.68" y="1407.8" type="line"/>
			<point x="1393.7333333333" y="1027.9733333333" type="line"/>
			<point x="1416.2133333333" y="1027.9733333333" type="line"/>
			<point x="1500.9333333333" y="1499.8666666667" type="line"/>
			<point x="1490.8266666667" y="1499.8666666667" type="line"/>
			<point x="1367.0666666667" y="1419.0133333333" type="line"/>
			<point x="1421.3466666667" y="1430" type="line"/>
			<point x="428.1866666667" y="1430" type="line"/>
			<point x="477.08" y="1419.0133333333" type="line"/>
			<point x="398.6933333333" y="1499.8666666667" type="line"/>
			<point x="389.2133333333" y="1499.8666666667" type="line"/>
			<point x="201.28" y="1033.2133333333" type="line"/>
			<point x="219.8933333333" y="1024.9733333333" type="line"/>
			<point x="479.0933333333" y="1407.8" type="line"/>
			<point x="395.5866666667" y="1391.5466666667" type="line"/>
		</contour>
		<contour>
			<point x="864.88" y="1410.0266666667" type="line"/>
			<point x="448.7333333333" y="44.96" type="line"/>
			<point x="270.1066666667" y="14.9866666667" type="line"/>
			<point x="265.9866666667" y="0" type="line"/>
			<point x="732.4266666667" y="0" type="line"/>
			<point x="736.8" y="14.9866666667" type="line"/>
			<point x="569.16" y="44.96" type="line"/>
			<point x="985.9333333333" y="1410.0266666667" type="line"/>
		</contour>
	</outline>
	<anchor name="UCtop" x="920.72" y="1430"/>
	<anchor name="bottom" x="505.12" y="0"/>
</glyph>
<glyph name="U" format="2">
  <advance width="1482.88"/>
  <unicode hex="0055"/>
  <anchor x="1049.6666666666665" y="1430.0" name="UCtop"/>
  <anchor x="768.8533333333332" y="0.0" name="right"/>
  <anchor x="630.44" y="0.0" name="bottom"/>
  <anchor x="1576.8533333333335" y="1430.0" name="horn"/>
  <outline>
    <contour>
      <point x="374.18666666666667" y="611.1466666666668" type="curve" smooth="yes"/>
      <point x="610.6933333333333" y="1385.04" type="line"/>
      <point x="788.6933333333333" y="1415.0133333333333" type="line"/>
      <point x="793.4399999999999" y="1430.0" type="line"/>
      <point x="326.37333333333333" y="1430.0" type="line"/>
      <point x="321.62666666666667" y="1415.0133333333333" type="line"/>
      <point x="489.64" y="1385.04" type="line"/>
      <point x="257.6133333333333" y="625.5733333333334" type="line" smooth="yes"/>
      <point x="120.37333333333333" y="175.22666666666666"/>
      <point x="305.03999999999996" y="-20.0"/>
      <point x="650.12" y="-20.0" type="curve" smooth="yes"/>
      <point x="985.7733333333333" y="-20.0"/>
      <point x="1159.5066666666667" y="155.62666666666667"/>
      <point x="1279.1333333333332" y="546.76" type="curve" smooth="yes"/>
      <point x="1535.64" y="1385.7866666666666" type="line"/>
      <point x="1713.64" y="1415.0133333333333" type="line"/>
      <point x="1718.3866666666668" y="1430.0" type="line"/>
      <point x="1322.9466666666667" y="1430.0" type="line"/>
      <point x="1318.2" y="1415.0133333333333" type="line"/>
      <point x="1493.3066666666666" y="1385.7866666666666" type="line"/>
      <point x="1250.0533333333333" y="590.52" type="line" smooth="yes"/>
      <point x="1127.52" y="189.28"/>
      <point x="961.4133333333334" y="52.013333333333335"/>
      <point x="682.08" y="52.013333333333335" type="curve" smooth="yes"/>
      <point x="378.02666666666664" y="52.013333333333335"/>
      <point x="256.17333333333335" y="224.22666666666666"/>
    </contour>
  </outline>
</glyph>
<glyph name="V" format="2">
	<unicode hex="0056"/>
	<advance width="1349.2"/>
	<outline>
		<contour>
			<point x="397.5866666667" y="1383.28" type="line"/>
			<point x="516.1866666667" y="-20.6266666667" type="line"/>
			<point x="542.7866666667" y="-20.6266666667" type="line"/>
			<point x="1447.4266666667" y="1380.2933333333" type="line"/>
			<point x="1622.1866666667" y="1412.5066666667" type="line"/>
			<point x="1627.56" y="1430" type="line"/>
			<point x="1238.6933333333" y="1430" type="line"/>
			<point x="1233.32" y="1412.5066666667" type="line"/>
			<point x="1400.6" y="1381.4133333333" type="line"/>
			<point x="597.9333333333" y="128.5333333333" type="line"/>
			<point x="615.6666666667" y="128.5333333333" type="line"/>
			<point x="517.7733333333" y="1384.0266666667" type="line"/>
			<point x="687.0533333333" y="1412.5066666667" type="line"/>
			<point x="692.4266666667" y="1430" type="line"/>
			<point x="240.4133333333" y="1430" type="line"/>
			<point x="235.04" y="1412.5066666667" type="line"/>
		</contour>
	</outline>
	<anchor name="UCtop" x="960.6533333333" y="1430"/>
	<anchor name="bottom" x="548.92" y="0"/>
</glyph>
<glyph name="W" format="2">
	<unicode hex="0057"/>
	<advance width="1880.3733333333"/>
	<outline>
		<contour>
			<point x="1933.7333333333" y="1382.7866666667" type="line"/>
			<point x="1249.1333333333" y="135.2533333333" type="line"/>
			<point x="1285.9733333333" y="142.1466666667" type="line"/>
			<point x="1265.5733333333" y="1450.6266666667" type="line"/>
			<point x="1234.24" y="1450.6266666667" type="line"/>
			<point x="406.64" y="116.4533333333" type="line"/>
			<point x="453.1466666667" y="142.1466666667" type="line"/>
			<point x="525" y="1382.7866666667" type="line"/>
			<point x="705.5066666667" y="1413.1333333333" type="line"/>
			<point x="710.5066666667" y="1430" type="line"/>
			<point x="255.5333333333" y="1430" type="line"/>
			<point x="250.9066666667" y="1413.1333333333" type="line"/>
			<point x="408.5733333333" y="1382.04" type="line"/>
			<point x="334.84" y="-20.6266666667" type="line"/>
			<point x="361.44" y="-20.6266666667" type="line"/>
			<point x="1196.0266666667" y="1319.4933333333" type="line"/>
			<point x="1153.12" y="1295.32" type="line"/>
			<point x="1174.7733333333" y="-20.6266666667" type="line"/>
			<point x="1202.6266666667" y="-20.6266666667" type="line"/>
			<point x="1981.32" y="1381.6666666667" type="line"/>
			<point x="2158.6" y="1413.1333333333" type="line"/>
			<point x="2163.2266666667" y="1430" type="line"/>
			<point x="1773.9733333333" y="1430" type="line"/>
			<point x="1768.9733333333" y="1413.1333333333" type="line"/>
		</contour>
	</outline>
	<anchor name="UCtop" x="1207.9333333333" y="1430"/>
	<anchor name="bottom" x="807.5333333333" y="0"/>
</glyph>
<glyph name="X" format="2">
	<unicode hex="0058"/>
	<advance width="1352.08"/>
	<outline>
		<contour>
			<point x="734.0133333333" y="716.2933333333" type="line"/>
			<point x="769.9333333333" y="734.48" type="line"/>
			<point x="1424.72" y="1378.4266666667" type="line"/>
			<point x="1594.4933333333" y="1415.0133333333" type="line"/>
			<point x="1599.24" y="1430" type="line"/>
			<point x="1209.0133333333" y="1430" type="line"/>
			<point x="1204.64" y="1415.0133333333" type="line"/>
			<point x="1369.0133333333" y="1379.5466666667" type="line"/>
			<point x="756.84" y="774.9733333333" type="line"/>
			<point x="719.8" y="756.9066666667" type="line"/>
			<point x="10.2666666667" y="51.5733333333" type="line"/>
			<point x="-159.5066666667" y="14.9866666667" type="line"/>
			<point x="-164.6266666667" y="0" type="line"/>
			<point x="228.4666666667" y="0" type="line"/>
			<point x="233.2133333333" y="14.9866666667" type="line"/>
			<point x="68.2133333333" y="50.4533333333" type="line"/>
		</contour>
		<contour>
			<point x="932.9866666667" y="45.3333333333" type="line"/>
			<point x="755.2133333333" y="14.9866666667" type="line"/>
			<point x="750.0933333333" y="0" type="line"/>
			<point x="1211.68" y="0" type="line"/>
			<point x="1215.8" y="14.9866666667" type="line"/>
			<point x="1056.0266666667" y="46.08" type="line"/>
			<point x="798.76" y="782.9333333333" type="line"/>
			<point x="793.8933333333" y="796.9066666667" type="line"/>
			<point x="590.5733333333" y="1382.16" type="line"/>
			<point x="769.3466666667" y="1415.0133333333" type="line"/>
			<point x="773.72" y="1430" type="line"/>
			<point x="312.5066666667" y="1430" type="line"/>
			<point x="308.3866666667" y="1415.0133333333" type="line"/>
			<point x="467.5333333333" y="1381.4133333333" type="line"/>
			<point x="700.3066666667" y="716.5333333333" type="line"/>
			<point x="706.1733333333" y="700.9333333333" type="line"/>
		</contour>
	</outline>
	<anchor name="UCtop" x="996.7866666667" y="1430"/>
	<anchor name="bottom" x="495.1866666667" y="0"/>
</glyph>
<glyph name="Y" format="2">
	<unicode hex="0059"/>
	<advance width="1320.5066666667"/>
	<outline>
		<contour>
			<point x="1354.36" y="1382.0533333333" type="line"/>
			<point x="739.16" y="659.3066666667" type="line"/>
			<point x="758.8933333333" y="659.9333333333" type="line"/>
			<point x="535.7333333333" y="1384.6666666667" type="line"/>
			<point x="715.4933333333" y="1415.0133333333" type="line"/>
			<point x="719.8666666667" y="1430" type="line"/>
			<point x="252.1466666667" y="1430" type="line"/>
			<point x="248.1466666667" y="1415.0133333333" type="line"/>
			<point x="408.0533333333" y="1383.92" type="line"/>
			<point x="644.5866666667" y="635.0666666667" type="line"/>
			<point x="465.0933333333" y="44.96" type="line"/>
			<point x="286.4666666667" y="14.9866666667" type="line"/>
			<point x="282.3466666667" y="0" type="line"/>
			<point x="748.7866666667" y="0" type="line"/>
			<point x="753.16" y="14.9866666667" type="line"/>
			<point x="585.52" y="44.96" type="line"/>
			<point x="765.64" y="635.5733333333" type="line"/>
			<point x="1404.32" y="1380.9333333333" type="line"/>
			<point x="1580.36" y="1415.0133333333" type="line"/>
			<point x="1584.1066666667" y="1430" type="line"/>
			<point x="1192.1066666667" y="1430" type="line"/>
			<point x="1188.36" y="1415.0133333333" type="line"/>
		</contour>
	</outline>
	<anchor name="UCtop" x="945.0933333333" y="1430"/>
	<anchor name="bottom" x="529.6266666667" y="0"/>
</glyph>
<glyph name="Z" format="2">
	<unicode hex="005A"/>
	<advance width="1226.8133333333"/>
	<outline>
		<contour>
			<point x="1380.1466666667" y="1430" type="line"/>
			<point x="524.5333333333" y="1430" type="line"/>
			<point x="450.6133333333" y="1488.6133333333" type="line"/>
			<point x="442.3733333333" y="1488.6133333333" type="line"/>
			<point x="232.5066666667" y="1051.0266666667" type="line"/>
			<point x="248.6266666667" y="1041.7866666667" type="line"/>
			<point x="524.9066666667" y="1391.5466666667" type="line"/>
			<point x="1305.8" y="1391.5466666667" type="line"/>
			<point x="1228.8533333333" y="1406.3733333333" type="line"/>
			<point x="-40.8533333333" y="14.1333333333" type="line"/>
			<point x="-45.1066666667" y="0" type="line"/>
			<point x="840.6666666667" y="0" type="line"/>
			<point x="922.2266666667" y="-45.1066666667" type="line"/>
			<point x="933.2133333333" y="-45.1066666667" type="line"/>
			<point x="1130.0666666667" y="367.44" type="line"/>
			<point x="1113.8266666667" y="376.0533333333" type="line"/>
			<point x="844.04" y="38.4533333333" type="line"/>
			<point x="81.9866666667" y="38.4533333333" type="line"/>
			<point x="104.5466666667" y="23.4933333333" type="line"/>
			<point x="1375.8933333333" y="1415.4933333333" type="line"/>
		</contour>
	</outline>
	<anchor name="UCtop" x="907.3733333333" y="1430"/>
	<anchor name="bottom" x="469.5066666667" y="0"/>
</glyph>
<glyph name="bracketleft" format="2">
	<unicode hex="005B"/>
	<advance width="539.6533333333"/>
	<outline>
		<contour>
			<point x="-26.48" y="-217.3333333333" type="line"/>
			<point x="281.9066666667" y="-217.3333333333" type="line"/>
			<point x="289.0266666667" y="-193.9733333333" type="line"/>
			<point x="78.7733333333" y="-172.48" type="line"/>
			<point x="565.7733333333" y="1419.7733333333" type="line"/>
			<point x="788.7733333333" y="1441.2666666667" type="line"/>
			<point x="795.8933333333" y="1464.6266666667" type="line"/>
			<point x="488.1333333333" y="1464.6266666667" type="line"/>
		</contour>
	</outline>
</glyph>
<glyph name="backslash" format="2">
	<unicode hex="005C"/>
	<advance width="748.24"/>
	<outline>
		<contour>
			<point x="531.7333333333" y="0" type="line"/>
			<point x="396.0933333333" y="1430" type="line"/>
			<point x="337.5066666667" y="1430" type="line"/>
			<point x="473.1466666667" y="0" type="line"/>
		</contour>
	</outline>
</glyph>
<glyph name="bracketright" format="2">
	<unicode hex="005D"/>
	<advance width="538.6533333333"/>
	<outline>
		<contour>
			<point x="631.8933333333" y="1463.3733333333" type="line"/>
			<point x="324.1333333333" y="1463.3733333333" type="line"/>
			<point x="317.0133333333" y="1440.0133333333" type="line"/>
			<point x="527.2666666667" y="1418.52" type="line"/>
			<point x="40.2666666667" y="-172.48" type="line"/>
			<point x="-182.7333333333" y="-193.9733333333" type="line"/>
			<point x="-189.8533333333" y="-217.3333333333" type="line"/>
			<point x="118.5333333333" y="-217.3333333333" type="line"/>
		</contour>
	</outline>
</glyph>
<glyph name="asciicircum" format="2">
	<unicode hex="005E"/>
	<advance width="1150"/>
	<outline>
		<contour>
			<point x="840.5066666667" y="1386.4266666667" type="line"/>
			<point x="957.0133333333" y="662" type="line"/>
			<point x="1007.8533333333" y="662" type="line"/>
			<point x="880.8533333333" y="1430" type="line"/>
			<point x="835.1466666667" y="1430" type="line"/>
			<point x="240.1466666667" y="662" type="line"/>
			<point x="303.2266666667" y="662" type="line"/>
			<point x="858.64" y="1386.4266666667" type="line"/>
		</contour>
	</outline>
</glyph>
<glyph name="a" format="2">
	<unicode hex="0061"/>
	<advance width="975.3333333333"/>
	<outline>
		<contour>
			<point x="528.8533333333" y="74.9066666667" type="line" smooth="yes"/>
			<point x="503.7066666667" y="0.3466666667"/>
			<point x="520.68" y="-20"/>
			<point x="574.1466666667" y="-20" type="curve" smooth="yes"/>
			<point x="670.7733333333" y="-20"/>
			<point x="786.36" y="61.24"/>
			<point x="939.96" y="296.68" type="curve"/>
			<point x="932.2133333333" y="302.4266666667" type="line"/>
			<point x="766.1733333333" y="103.12"/>
			<point x="653.92" y="57.3866666667"/>
			<point x="590.8933333333" y="76.0133333333" type="curve"/>
			<point x="616.9066666667" y="36.24" type="line"/>
			<point x="949.4533333333" y="1024" type="line"/>
			<point x="844.7333333333" y="1024" type="line"/>
			<point x="810.9866666667" y="924.88" type="line"/>
			<point x="657.2666666667" y="469.8133333333" type="line" smooth="yes"/>
			<point x="393.7866666667" y="114.6666666667"/>
			<point x="298.2266666667" y="65.88"/>
			<point x="212.4533333333" y="65.88" type="curve" smooth="yes"/>
			<point x="147.56" y="65.88"/>
			<point x="114.2" y="108.16"/>
			<point x="114.2" y="189.0266666667" type="curve" smooth="yes"/>
			<point x="114.2" y="456.48"/>
			<point x="416.0933333333" y="999.44"/>
			<point x="659.1733333333" y="999.44" type="curve" smooth="yes"/>
			<point x="719.9333333333" y="999.44"/>
			<point x="773.08" y="976.1866666667"/>
			<point x="814.3466666667" y="897.6666666667" type="curve"/>
			<point x="825.2266666667" y="915.52" type="line"/>
			<point x="780.1066666667" y="1001.8933333333"/>
			<point x="719.2533333333" y="1042.5066666667"/>
			<point x="640.12" y="1042.5066666667" type="curve" smooth="yes"/>
			<point x="354.88" y="1042.5066666667"/>
			<point x="-1.3866666667" y="496.8"/>
			<point x="-1.3866666667" y="148.9466666667" type="curve" smooth="yes"/>
			<point x="-1.3866666667" y="45"/>
			<point x="58.0666666667" y="-20"/>
			<point x="167.4533333333" y="-20" type="curve" smooth="yes"/>
			<point x="270.3066666667" y="-20"/>
			<point x="378.2533333333" y="49.6933333333"/>
			<point x="663.36" y="450.4" type="curve"/>
			<point x="653.6133333333" y="450.4" type="line"/>
		</contour>
	</outline>
	<anchor name="top" x="658.1733333333" y="1024"/>
	<anchor name="right" x="754.9866666667" y="0"/>
	<anchor name="bottom" x="335.8266666667" y="0"/>
</glyph>
<glyph name="b" format="2">
	<unicode hex="0062"/>
	<advance width="916.6"/>
	<outline>
		<contour>
			<point x="168.4" y="261.1066666667" type="curve" smooth="yes"/>
			<point x="271.8666666667" y="610.24" type="line" smooth="yes"/>
			<point x="390.2533333333" y="815.1066666667"/>
			<point x="537.5866666667" y="964.3466666667"/>
			<point x="661.8533333333" y="964.3466666667" type="curve" smooth="yes"/>
			<point x="740.12" y="964.3466666667"/>
			<point x="775.12" y="913.2266666667"/>
			<point x="775.12" y="798.0133333333" type="curve" smooth="yes"/>
			<point x="775.12" y="436.3466666667"/>
			<point x="488.2133333333" y="9.1066666667"/>
			<point x="269.1733333333" y="9.1066666667" type="curve" smooth="yes"/>
			<point x="194.16" y="9.1066666667"/>
			<point x="150.0133333333" y="58.7466666667"/>
			<point x="150.0133333333" y="148.4133333333" type="curve" smooth="yes"/>
			<point x="150.0133333333" y="181.0533333333"/>
			<point x="155.64" y="219.2"/>
		</contour>
		<contour>
			<point x="391.7866666667" y="1357.52" type="curve"/>
			<point x="74.9866666667" y="299.4266666667" type="line" smooth="yes"/>
			<point x="61.24" y="253.3066666667"/>
			<point x="54.24" y="211.44"/>
			<point x="54.24" y="173.9466666667" type="curve" smooth="yes"/>
			<point x="54.24" y="52.9733333333"/>
			<point x="125.6" y="-20"/>
			<point x="259.4266666667" y="-20" type="curve" smooth="yes"/>
			<point x="536.44" y="-20"/>
			<point x="901.2133333333" y="437.9333333333"/>
			<point x="901.2133333333" y="819.76" type="curve" smooth="yes"/>
			<point x="901.2133333333" y="968.9066666667"/>
			<point x="838.12" y="1044"/>
			<point x="714.2533333333" y="1044" type="curve" smooth="yes"/>
			<point x="589.9866666667" y="1044"/>
			<point x="454.52" y="936.1333333333"/>
			<point x="272.9733333333" y="653.28" type="curve"/>
			<point x="282.4666666667" y="649.1733333333" type="line"/>
			<point x="534.2266666667" y="1484" type="line"/>
			<point x="524.96" y="1484" type="line"/>
			<point x="222.9866666667" y="1425.1733333333" type="line"/>
			<point x="220.2266666667" y="1414.16" type="line"/>
			<point x="278.2266666667" y="1393.7066666667"/>
			<point x="353.7866666667" y="1371.24"/>
		</contour>
	</outline>
	<anchor name="UCtop" x="721.24" y="1430"/>
	<anchor name="bottom" x="246.1066666667" y="0"/>
</glyph>
<glyph name="c" format="2">
	<unicode hex="0063"/>
	<advance width="765.44"/>
	<outline>
		<contour>
			<point x="598.9866666667" y="1015.2666666667" type="curve" smooth="yes"/>
			<point x="654" y="1015.2666666667"/>
			<point x="668.6266666667" y="992.3866666667"/>
			<point x="656.28" y="925.6933333333" type="curve" smooth="yes"/>
			<point x="643.9333333333" y="859"/>
			<point x="658.5333333333" y="837.8933333333"/>
			<point x="705.9866666667" y="837.8933333333" type="curve" smooth="yes"/>
			<point x="756.1733333333" y="837.8933333333"/>
			<point x="797.2933333333" y="882.1066666667"/>
			<point x="797.2933333333" y="934.7066666667" type="curve" smooth="yes"/>
			<point x="797.2933333333" y="995.16"/>
			<point x="749.6933333333" y="1044"/>
			<point x="631.7333333333" y="1044" type="curve" smooth="yes"/>
			<point x="313.7333333333" y="1044"/>
			<point x="42.5066666667" y="640.5733333333"/>
			<point x="42.5066666667" y="246" type="curve" smooth="yes"/>
			<point x="42.5066666667" y="61.72"/>
			<point x="133.88" y="-20"/>
			<point x="285.1066666667" y="-20" type="curve" smooth="yes"/>
			<point x="434.8533333333" y="-20"/>
			<point x="548.3066666667" y="62.4666666667"/>
			<point x="680.2" y="395" type="curve"/>
			<point x="670.4533333333" y="397.6266666667" type="line"/>
			<point x="534.7733333333" y="132.7466666667"/>
			<point x="437.5733333333" y="69.52"/>
			<point x="319.5466666667" y="69.52" type="curve" smooth="yes"/>
			<point x="209.88" y="69.52"/>
			<point x="154.48" y="124.7733333333"/>
			<point x="154.48" y="298.1066666667" type="curve" smooth="yes"/>
			<point x="154.48" y="632.4266666667"/>
			<point x="367.3333333333" y="1015.2666666667"/>
		</contour>
	</outline>
	<anchor name="top" x="555.0933333333" y="1024"/>
	<anchor name="right" x="545.96" y="0"/>
	<anchor name="bottom" x="292.1466666667" y="0"/>
</glyph>
<glyph name="d" format="2">
	<unicode hex="0064"/>
	<advance width="976.36"/>
	<outline>
		<contour>
			<point x="819.9466666667" y="883.1066666667" type="curve"/>
			<point x="830.08" y="903.9466666667" type="line"/>
			<point x="784.96" y="998.16"/>
			<point x="722.24" y="1042.5066666667"/>
			<point x="640.12" y="1042.5066666667" type="curve" smooth="yes"/>
			<point x="347.4133333333" y="1042.5066666667"/>
			<point x="-2.1333333333" y="486.3466666667"/>
			<point x="-2.1333333333" y="148.9466666667" type="curve" smooth="yes"/>
			<point x="-2.1333333333" y="45"/>
			<point x="57.32" y="-20"/>
			<point x="166.7066666667" y="-20" type="curve" smooth="yes"/>
			<point x="263.5866666667" y="-20"/>
			<point x="373.0266666667" y="41.1066666667"/>
			<point x="662.6133333333" y="450.4" type="curve"/>
			<point x="652.8666666667" y="450.4" type="line"/>
			<point x="539.6133333333" y="85.7333333333" type="line" smooth="yes"/>
			<point x="512.9866666667" y="-0.28"/>
			<point x="531.48" y="-20"/>
			<point x="587.1866666667" y="-20" type="curve" smooth="yes"/>
			<point x="684.56" y="-20"/>
			<point x="800.8933333333" y="66.84"/>
			<point x="957.8533333333" y="296.68" type="curve"/>
			<point x="950.1066666667" y="302.4266666667" type="line"/>
			<point x="776.9733333333" y="101.6266666667"/>
			<point x="664.3466666667" y="57.76"/>
			<point x="602.0666666667" y="75.64" type="curve"/>
			<point x="626.1866666667" y="31.8533333333" type="line"/>
			<point x="1076.3333333333" y="1484" type="line"/>
			<point x="1067.0666666667" y="1484" type="line"/>
			<point x="767.6" y="1425.1733333333" type="line"/>
			<point x="764.0933333333" y="1414.16" type="line"/>
			<point x="821.0933333333" y="1394.1369651598"/>
			<point x="899.7733333333" y="1370.1661272675"/>
			<point x="935.7733333333" y="1357.52" type="curve"/>
			<point x="656.52" y="469.8133333333" type="line" smooth="yes"/>
			<point x="393.04" y="114.6666666667"/>
			<point x="297.48" y="65.88"/>
			<point x="211.7066666667" y="65.88" type="curve" smooth="yes"/>
			<point x="147.56" y="65.88"/>
			<point x="113.4533333333" y="107.7866666667"/>
			<point x="113.4533333333" y="189.0266666667" type="curve" smooth="yes"/>
			<point x="113.4533333333" y="441.92"/>
			<point x="404.52" y="999.44"/>
			<point x="658.4266666667" y="999.44" type="curve" smooth="yes"/>
			<point x="722.5466666667" y="999.44"/>
			<point x="777.56" y="973.2"/>
		</contour>
	</outline>
	<anchor name="UCtop" x="795.96" y="1430"/>
	<anchor name="right" x="1070.3333333333" y="1464"/>
	<anchor name="bottom" x="334.1466666667" y="0"/>
	<anchor name="center" x="881.6266666667" y="1209.5066666667"/>
</glyph>
<glyph name="e" format="2">
  <advance width="795.4666666666666"/>
  <unicode hex="0065"/>
  <anchor x="557.76" y="1024.0" name="top"/>
  <anchor x="576.0533333333333" y="0.0" name="right"/>
  <anchor x="284.84000000000003" y="0.0" name="bottom"/>
  <outline>
    <contour>
      <point x="600.4133333333333" y="1014.0266666666666" type="curve" smooth="yes"/>
      <point x="694.76" y="1014.0266666666666"/>
      <point x="735.6533333333334" y="933.2192592592593"/>
      <point x="693.6666666666667" y="836.8533333333334" type="curve" smooth="yes"/>
      <point x="654.8133333333334" y="749.5066666666667"/>
      <point x="509.3066666666666" y="658.5333333333334"/>
      <point x="151.26666666666665" y="536.5333333333333" type="curve"/>
      <point x="150.90666666666664" y="516.1866666666667" type="line"/>
      <point x="362.97333333333336" y="574.5600000000001"/>
      <point x="653.7866666666666" y="681.72"/>
      <point x="763.12" y="743.8800000000001" type="curve"/>
      <point x="798.7333333333333" y="789.72"/>
      <point x="814.36" y="841.6933333333334"/>
      <point x="814.36" y="903.7066666666666" type="curve" smooth="yes"/>
      <point x="814.36" y="979.7472255489022"/>
      <point x="757.6133333333333" y="1044.0"/>
      <point x="634.9066666666666" y="1044.0" type="curve" smooth="yes"/>
      <point x="318.93333333333334" y="1044.0"/>
      <point x="44.4" y="659.5724601175483"/>
      <point x="44.4" y="246.0" type="curve" smooth="yes"/>
      <point x="44.4" y="63.599999999999994"/>
      <point x="137.50963051856954" y="-20.0"/>
      <point x="289.6133333333333" y="-20.0" type="curve" smooth="yes"/>
      <point x="446.8933333333334" y="-20.0"/>
      <point x="568.2266666666667" y="73.01333333333334"/>
      <point x="697.3466666666666" y="395.0" type="curve"/>
      <point x="687.6" y="397.62666666666667" type="line"/>
      <point x="555.4399999999999" y="146.29333333333332"/>
      <point x="454.6" y="70.14666666666668"/>
      <point x="319.16" y="70.14666666666668" type="curve" smooth="yes"/>
      <point x="212.13333333333333" y="70.14666666666668"/>
      <point x="155.12" y="128.53333333333333"/>
      <point x="155.12" y="298.73333333333335" type="curve" smooth="yes"/>
      <point x="155.12" y="634.3866666666668"/>
      <point x="373.90666666666664" y="1014.0266666666666"/>
    </contour>
  </outline>
</glyph>
<glyph name="f" format="2">
	<unicode hex="0066"/>
	<advance width="541.5333333333"/>
	<outline>
		<contour>
			<point x="133.6266666667" y="987.6666666667" type="line"/>
			<point x="692.8" y="987.6666666667" type="line"/>
			<point x="700.2933333333" y="1024" type="line"/>
			<point x="140.7466666667" y="1024" type="line"/>
		</contour>
		<contour>
			<point x="275.1733333333" y="302.1733333333" type="curve" smooth="yes"/>
			<point x="459.4933333333" y="1032.1866666667" type="line" smooth="yes"/>
			<point x="540.1466666667" y="1350.2933333333"/>
			<point x="650.64" y="1455.0266666667"/>
			<point x="763.6666666667" y="1455.0266666667" type="curve" smooth="yes"/>
			<point x="814.8133333333" y="1455.0266666667"/>
			<point x="826.9333333333" y="1427.6533333333"/>
			<point x="812.0533333333" y="1364.9333333333" type="curve" smooth="yes"/>
			<point x="797.1733333333" y="1302.2133333333"/>
			<point x="806.2933333333" y="1278.8666666667"/>
			<point x="848.52" y="1278.8666666667" type="curve" smooth="yes"/>
			<point x="903.7066666667" y="1278.8666666667"/>
			<point x="947.92" y="1318.3333333333"/>
			<point x="947.92" y="1382.4133333333" type="curve" smooth="yes"/>
			<point x="947.92" y="1441.2666666667"/>
			<point x="905.8133333333" y="1484"/>
			<point x="802.7333333333" y="1484" type="curve" smooth="yes"/>
			<point x="614.0666666667" y="1484"/>
			<point x="424.8" y="1337.92"/>
			<point x="335.2666666667" y="965.08" type="curve" smooth="yes"/>
			<point x="147.1866666667" y="175" type="line" smooth="yes"/>
			<point x="26.2266666667" y="-326.5466666667"/>
			<point x="-64.6266666667" y="-432.4133333333"/>
			<point x="-167.6533333333" y="-432.4133333333" type="curve" smooth="yes"/>
			<point x="-202.0266666667" y="-432.4133333333"/>
			<point x="-212.6533333333" y="-415.9066666667"/>
			<point x="-196.0266666667" y="-351.68" type="curve" smooth="yes"/>
			<point x="-179.4" y="-287.4533333333"/>
			<point x="-191.3866666667" y="-264.3333333333"/>
			<point x="-234.9866666667" y="-264.3333333333" type="curve" smooth="yes"/>
			<point x="-287.96" y="-264.3333333333"/>
			<point x="-318.6933333333" y="-306.56"/>
			<point x="-318.6933333333" y="-355.7866666667" type="curve" smooth="yes"/>
			<point x="-318.6933333333" y="-417.88"/>
			<point x="-274.4666666667" y="-465"/>
			<point x="-188.7333333333" y="-465" type="curve" smooth="yes"/>
			<point x="-27.7733333333" y="-465"/>
			<point x="120.2266666667" y="-309.84"/>
		</contour>
	</outline>
	<anchor name="UCtop" x="724.92" y="1430"/>
	<anchor name="bottom" x="-114.4666666667" y="-445"/>
</glyph>
<glyph name="g" format="2">
	<unicode hex="0067"/>
	<advance width="789.04"/>
	<outline>
		<contour>
			<point x="873.48" y="931.96" type="curve" smooth="yes"/>
			<point x="913.2133333333" y="931.96"/>
			<point x="943.04" y="977.44"/>
			<point x="943.04" y="1014.5066666667" type="curve" smooth="yes"/>
			<point x="943.04" y="1035.7466666667"/>
			<point x="934.2933333333" y="1045.36"/>
			<point x="912.9333333333" y="1045.36" type="curve" smooth="yes"/>
			<point x="869.4666666667" y="1045.36"/>
			<point x="783.44" y="1014.7466666667"/>
			<point x="578.4266666667" y="1037.1333333333" type="curve"/>
			<point x="595.8133333333" y="1020.0133333333" type="line"/>
			<point x="822.56" y="1003.3733333333"/>
			<point x="823.0933333333" y="931.96"/>
		</contour>
		<contour>
			<point x="296.7866666667" y="387.3466666667" type="curve"/>
			<point x="240.76" y="386.72"/>
			<point x="217.1333333333" y="425.24"/>
			<point x="214" y="522.7733333333" type="curve" smooth="yes"/>
			<point x="208.36" y="774.2933333333"/>
			<point x="383.1066666667" y="1020.0266666667"/>
			<point x="544.92" y="1020.6533333333" type="curve"/>
			<point x="600.32" y="1021.28"/>
			<point x="624.5733333333" y="982.76"/>
			<point x="627.7066666667" y="884.6" type="curve" smooth="yes"/>
			<point x="633.3466666667" y="633.7066666667"/>
			<point x="458.6" y="387.9733333333"/>
		</contour>
		<contour>
			<point x="535.92" y="1043.6266666667" type="curve"/>
			<point x="302.8133333333" y="1043.6266666667"/>
			<point x="115" y="795.0533333333"/>
			<point x="115" y="567.2" type="curve" smooth="yes"/>
			<point x="115" y="446.6266666667"/>
			<point x="175.8266666667" y="364.3733333333"/>
			<point x="305.7866666667" y="364.3733333333" type="curve"/>
			<point x="537.0266666667" y="364.3733333333"/>
			<point x="726.7066666667" y="606.1066666667"/>
			<point x="726.7066666667" y="836.44" type="curve" smooth="yes"/>
			<point x="726.7066666667" y="958.2666666667"/>
			<point x="665.88" y="1043.6266666667"/>
		</contour>
		<contour>
			<point x="249.88" y="-465" type="curve" smooth="yes"/>
			<point x="541.48" y="-465"/>
			<point x="699.4666666667" y="-331"/>
			<point x="699.4666666667" y="-179.8933333333" type="curve" smooth="yes"/>
			<point x="699.4666666667" y="-72.8133333333"/>
			<point x="633.1333333333" y="8.0266666667"/>
			<point x="395.4133333333" y="89.5333333333" type="curve" smooth="yes"/>
			<point x="157.44" y="171.04"/>
			<point x="135.0533333333" y="199.8133333333"/>
			<point x="135.0533333333" y="252.3333333333" type="curve" smooth="yes"/>
			<point x="135.0533333333" y="306.48"/>
			<point x="179.32" y="346.8533333333"/>
			<point x="267.32" y="371.12" type="curve"/>
			<point x="250.5733333333" y="385.2266666667" type="line"/>
			<point x="132.1333333333" y="351.8666666667"/>
			<point x="57.3866666667" y="288.2666666667"/>
			<point x="57.3866666667" y="207.5333333333" type="curve" smooth="yes"/>
			<point x="57.3866666667" y="126.8"/>
			<point x="101.7466666667" y="71.3066666667"/>
			<point x="322.8666666667" y="3.7866666667" type="curve" smooth="yes"/>
			<point x="548.0933333333" y="-64.8533333333"/>
			<point x="619.32" y="-132.96"/>
			<point x="619.32" y="-220.4533333333" type="curve" smooth="yes"/>
			<point x="619.32" y="-343.8933333333"/>
			<point x="488.0133333333" y="-432.88"/>
			<point x="264.3066666667" y="-432.88" type="curve" smooth="yes"/>
			<point x="66.8666666667" y="-432.88"/>
			<point x="-59.6133333333" y="-369.56"/>
			<point x="-59.6133333333" y="-228.1466666667" type="curve" smooth="yes"/>
			<point x="-59.6133333333" y="-60.68"/>
			<point x="143.7066666667" y="15.8533333333"/>
			<point x="377.16" y="25.88" type="curve"/>
			<point x="377.16" y="43.6266666667" type="line"/>
			<point x="319.2133333333" y="43.6266666667" type="line"/>
			<point x="14.08" y="5.24"/>
			<point x="-151.28" y="-87.9733333333"/>
			<point x="-151.28" y="-235.5333333333" type="curve" smooth="yes"/>
			<point x="-151.28" y="-382.44"/>
			<point x="1.44" y="-465"/>
		</contour>
	</outline>
	<anchor name="top" x="534.2133333333" y="1024"/>
	<anchor name="bottom" x="265.68" y="-445"/>
</glyph>
<glyph name="h" format="2">
  <advance width="992"/>
  <unicode hex="0068"/>
  <anchor x="768.0533333333333" y="1430.0" name="UCtop"/>
  <anchor x="334.02666666666664" y="0.0" name="bottom"/>
  <anchor x="470.4133333333333" y="1209.5066666666667" name="center"/>
  <outline>
    <contour>
      <point x="262.09333333333336" y="521.4933333333333" type="line"/>
      <point x="334.93333333333334" y="686.12"/>
      <point x="509.0133333333334" y="953.1333333333333"/>
      <point x="709.1066666666667" y="953.1333333333333" type="curve" smooth="yes"/>
      <point x="769.9733333333334" y="953.1333333333333"/>
      <point x="814.64" y="929.76"/>
      <point x="814.64" y="871.4666666666667" type="curve" smooth="yes"/>
      <point x="814.64" y="843.08"/>
      <point x="802.64" y="802.4266666666666"/>
      <point x="758.12" y="694.5066666666667" type="curve" smooth="yes"/>
      <point x="504.8533333333333" y="80.09333333333332" type="line" smooth="yes"/>
      <point x="477.4933333333333" y="13.506666666666668"/>
      <point x="490.18666666666667" y="-20.0"/>
      <point x="557.3866666666667" y="-20.0" type="curve" smooth="yes"/>
      <point x="653.3733333333332" y="-20.0"/>
      <point x="765.1733333333333" y="53.18666666666667"/>
      <point x="942.3066666666666" y="302.32" type="curve"/>
      <point x="934.5600000000001" y="308.06666666666666" type="line"/>
      <point x="757.1866666666667" y="105.26666666666667"/>
      <point x="627.7733333333333" y="54.74666666666666"/>
      <point x="569.4000000000001" y="74.38666666666666" type="curve"/>
      <point x="593.9066666666666" y="36.61333333333333" type="line"/>
      <point x="869.1066666666666" y="707.16" type="line" smooth="yes"/>
      <point x="918.4799999999999" y="827.6533333333333"/>
      <point x="928.4799999999999" y="867.6533333333333"/>
      <point x="928.4799999999999" y="911.4" type="curve" smooth="yes"/>
      <point x="928.4799999999999" y="986.8933333333333"/>
      <point x="873.4533333333333" y="1044.0"/>
      <point x="760.6" y="1044.0" type="curve" smooth="yes"/>
      <point x="571.44" y="1044.0"/>
      <point x="421.73333333333335" y="868.0800000000002"/>
      <point x="258.18666666666667" y="546.6133333333332" type="curve"/>
      <point x="276.32000000000005" y="569.8" type="line"/>
      <point x="568.7333333333333" y="1484.0" type="line"/>
      <point x="559.4666666666667" y="1484.0" type="line"/>
      <point x="257.49333333333334" y="1425.1733333333334" type="line"/>
      <point x="253.98666666666668" y="1414.16" type="line"/>
      <point x="310.9866666666667" y="1394.170544478253"/>
      <point x="390.29333333333335" y="1370.1449192768928"/>
      <point x="426.29333333333335" y="1357.52" type="curve"/>
      <point x="-16.746666666666666" y="0.0" type="line"/>
      <point x="87.97333333333333" y="0.0" type="line"/>
    </contour>
  </outline>
</glyph>
<glyph name="i" format="2">
  <advance width="551.0266666666666"/>
  <unicode hex="0069"/>
  <anchor x="547.64" y="1430.0" name="top"/>
  <anchor x="123.73333333333332" y="0.0" name="bottom"/>
  <anchor x="252.2" y="0.0" name="right"/>
  <outline>
    <contour>
      <point x="76.28" y="80.72" type="line" smooth="yes"/>
      <point x="52.54666666666666" y="13.506666666666668"/>
      <point x="56.49333333333333" y="-20.0"/>
      <point x="121.08000000000001" y="-20.0" type="curve" smooth="yes"/>
      <point x="216.32000000000002" y="-20.0"/>
      <point x="325.1333333333333" y="54.30666666666667"/>
      <point x="501.52000000000004" y="302.32" type="curve"/>
      <point x="493.77333333333337" y="308.06666666666666" type="line"/>
      <point x="306.6933333333333" y="96.68"/>
      <point x="188.10666666666665" y="52.50666666666666"/>
      <point x="135.70666666666665" y="77.0" type="curve"/>
      <point x="160.96" y="36.61333333333333" type="line"/>
      <point x="492.25333333333333" y="963.96" type="line" smooth="yes"/>
      <point x="511.73333333333335" y="1018.0400000000001"/>
      <point x="496.8666666666667" y="1044.0"/>
      <point x="441.56" y="1044.0" type="curve" smooth="yes"/>
      <point x="340.82666666666665" y="1044.0"/>
      <point x="221.46666666666667" y="957.16"/>
      <point x="63.879999999999995" y="720.4266666666666" type="curve"/>
      <point x="71.62666666666667" y="714.0533333333333" type="line"/>
      <point x="254.38666666666666" y="926.1199999999999"/>
      <point x="366.93333333333334" y="970.76"/>
      <point x="423.44" y="951.12" type="curve"/>
      <point x="398.8" y="993.0266666666666" type="line"/>
    </contour>
    <contour>
      <point x="461.52000000000004" y="1383.6133333333335" type="curve" smooth="yes"/>
      <point x="461.52000000000004" y="1335.7866666666666"/>
      <point x="495.73333333333335" y="1290.96"/>
      <point x="553.0533333333334" y="1290.96" type="curve" smooth="yes"/>
      <point x="610.0" y="1290.96"/>
      <point x="643.0933333333332" y="1335.7866666666666"/>
      <point x="643.0933333333332" y="1383.6133333333335" type="curve" smooth="yes"/>
      <point x="643.0933333333332" y="1430.6933333333334"/>
      <point x="610.0" y="1472.9066666666668"/>
      <point x="553.0533333333334" y="1472.9066666666668" type="curve" smooth="yes"/>
      <point x="495.73333333333335" y="1472.9066666666668"/>
      <point x="461.52000000000004" y="1430.6933333333334"/>
    </contour>
  </outline>
</glyph>
<glyph name="j" format="2">
	<unicode hex="006A"/>
	<advance width="487.5066666667"/>
	<outline>
		<contour>
			<point x="450.5333333333" y="1383.6133333333" type="curve" smooth="yes"/>
			<point x="450.5333333333" y="1335.7866666667"/>
			<point x="484.7466666667" y="1290.96"/>
			<point x="542.0666666667" y="1290.96" type="curve" smooth="yes"/>
			<point x="599.0133333333" y="1290.96"/>
			<point x="632.1066666667" y="1335.7866666667"/>
			<point x="632.1066666667" y="1383.6133333333" type="curve" smooth="yes"/>
			<point x="632.1066666667" y="1430.6933333333"/>
			<point x="599.0133333333" y="1472.9066666667"/>
			<point x="542.0666666667" y="1472.9066666667" type="curve" smooth="yes"/>
			<point x="484.7466666667" y="1472.9066666667"/>
			<point x="450.5333333333" y="1430.6933333333"/>
		</contour>
		<contour>
			<point x="199.76" y="80.6133333333" type="curve" smooth="yes"/>
			<point x="483.1466666667" y="963.96" type="line" smooth="yes"/>
			<point x="500.5066666667" y="1018.04"/>
			<point x="485.88" y="1044"/>
			<point x="430.5733333333" y="1044" type="curve" smooth="yes"/>
			<point x="329.84" y="1044"/>
			<point x="210.48" y="957.16"/>
			<point x="52.8933333333" y="720.4266666667" type="curve"/>
			<point x="60.64" y="714.0533333333" type="line"/>
			<point x="243.4" y="926.12"/>
			<point x="355.9466666667" y="970.76"/>
			<point x="412.4533333333" y="951.12" type="curve"/>
			<point x="387.8133333333" y="993.0266666667" type="line"/>
			<point x="69.8" y="-23.56" type="line" smooth="yes"/>
			<point x="-28.9466666667" y="-339.0666666667"/>
			<point x="-108.1333333333" y="-429.9066666667"/>
			<point x="-207.9733333333" y="-429.9066666667" type="curve" smooth="yes"/>
			<point x="-244.08" y="-429.9066666667"/>
			<point x="-254.56" y="-412.16"/>
			<point x="-239.68" y="-353.8133333333" type="curve" smooth="yes"/>
			<point x="-224.8" y="-295.4666666667"/>
			<point x="-237.5466666667" y="-273.7333333333"/>
			<point x="-280.8933333333" y="-273.7333333333" type="curve" smooth="yes"/>
			<point x="-332.6133333333" y="-273.7333333333"/>
			<point x="-362.72" y="-309.6933333333"/>
			<point x="-362.72" y="-357.6666666667" type="curve" smooth="yes"/>
			<point x="-362.72" y="-417.1466666667"/>
			<point x="-321.8666666667" y="-465"/>
			<point x="-238.4" y="-465" type="curve" smooth="yes"/>
			<point x="-87.6666666667" y="-465"/>
			<point x="70.3733333333" y="-322.8266666667"/>
		</contour>
	</outline>
	<anchor name="top" x="547.1866666667" y="1430"/>
	<anchor name="bottom" x="-146.7066666667" y="-445"/>
</glyph>
<glyph name="k" format="2">
	<unicode hex="006B"/>
	<advance width="907.32"/>
	<outline>
		<contour>
			<point x="568.7333333333" y="1484" type="line"/>
			<point x="559.4666666667" y="1484" type="line"/>
			<point x="257.4933333333" y="1425.1733333333" type="line"/>
			<point x="253.9866666667" y="1414.16" type="line"/>
			<point x="310.9866666667" y="1394.1705444783"/>
			<point x="390.2933333333" y="1370.1449192769"/>
			<point x="426.2933333333" y="1357.52" type="curve"/>
			<point x="-16.7466666667" y="0" type="line"/>
			<point x="87.9733333333" y="0" type="line"/>
		</contour>
		<contour>
			<point x="278.1333333333" y="593.7066666667" type="line"/>
			<point x="428.92" y="60.9466666667"/>
			<point x="482.44" y="-20"/>
			<point x="559.6666666667" y="-20" type="curve" smooth="yes"/>
			<point x="629.36" y="-20"/>
			<point x="704.72" y="36.8666666667"/>
			<point x="851.08" y="293.4266666667" type="curve"/>
			<point x="842.2133333333" y="299.1733333333" type="line"/>
			<point x="722.2266666667" y="122.5733333333"/>
			<point x="652.2" y="66.16"/>
			<point x="606.8266666667" y="66.16" type="curve" smooth="yes"/>
			<point x="559.2133333333" y="66.16"/>
			<point x="486.68" y="203.9866666667"/>
			<point x="356.52" y="675.6133333333" type="curve"/>
			<point x="317.2" y="612.9066666667" type="line"/>
			<point x="516.5066666667" y="842.48"/>
			<point x="712.04" y="959.48"/>
			<point x="800.5866666667" y="959.48" type="curve" smooth="yes"/>
			<point x="821.84" y="959.48"/>
			<point x="828.84" y="948.1066666667"/>
			<point x="824.6" y="902.24" type="curve" smooth="yes"/>
			<point x="820.36" y="856.3733333333"/>
			<point x="834.48" y="834.0133333333"/>
			<point x="879.5733333333" y="834.0133333333" type="curve" smooth="yes"/>
			<point x="935.4" y="834.0133333333"/>
			<point x="985.6" y="884.9866666667"/>
			<point x="985.6" y="953.4266666667" type="curve" smooth="yes"/>
			<point x="985.6" y="1005.7733333333"/>
			<point x="954.4933333333" y="1044"/>
			<point x="878.2666666667" y="1044" type="curve" smooth="yes"/>
			<point x="762.12" y="1044"/>
			<point x="571.4533333333" y="934.0666666667"/>
			<point x="280.76" y="602.3333333333" type="curve"/>
		</contour>
	</outline>
	<anchor name="UCtop" x="758.8666666667" y="1430"/>
	<anchor name="bottom" x="328.6266666667" y="0"/>
</glyph>
<glyph name="l" format="2">
	<unicode hex="006C"/>
	<advance width="487.8933333333"/>
	<outline>
		<contour>
			<point x="426.4133333333" y="1357.52" type="curve"/>
			<point x="25.2533333333" y="71.9466666667" type="line" smooth="yes"/>
			<point x="3.8933333333" y="3.9866666667"/>
			<point x="22.3866666667" y="-20"/>
			<point x="78.3066666667" y="-20" type="curve" smooth="yes"/>
			<point x="168.8133333333" y="-20"/>
			<point x="289.5333333333" y="58.6933333333"/>
			<point x="460.28" y="289.16" type="curve"/>
			<point x="451.9066666667" y="296.16" type="line"/>
			<point x="270.1866666667" y="103.8133333333"/>
			<point x="138.36" y="53.2533333333"/>
			<point x="90.44" y="77" type="curve"/>
			<point x="116.7066666667" y="38.7466666667" type="line"/>
			<point x="568.4666666667" y="1484" type="line"/>
			<point x="559.2" y="1484" type="line"/>
			<point x="257.6133333333" y="1425.1733333333" type="line"/>
			<point x="254.1066666667" y="1414.16" type="line"/>
			<point x="311.1066666667" y="1394.1705444783"/>
			<point x="390.4133333333" y="1370.1449192769"/>
		</contour>
	</outline>
	<anchor name="UCtop" x="454.5466666667" y="1430"/>
	<anchor name="bottom" x="96.76" y="0"/>
	<anchor name="right" x="562.4666666667" y="1464"/>
	<anchor name="mid" x="494.1733333333" y="582"/>
</glyph>
<glyph name="m" format="2">
	<unicode hex="006D"/>
	<advance width="1531.7466666667"/>
	<outline>
		<contour>
			<point x="1133.0666666667" y="36.6133333333" type="line"/>
			<point x="1413.28" y="719.6933333333" type="line" smooth="yes"/>
			<point x="1460.7733333333" y="835.1733333333"/>
			<point x="1470.7733333333" y="873.92"/>
			<point x="1470.7733333333" y="916.4133333333" type="curve" smooth="yes"/>
			<point x="1470.7733333333" y="988.7733333333"/>
			<point x="1417.6266666667" y="1044"/>
			<point x="1309.16" y="1044" type="curve" smooth="yes"/>
			<point x="1131.9333333333" y="1044"/>
			<point x="988.8933333333" y="864.56"/>
			<point x="842.4133333333" y="568.6533333333" type="curve"/>
			<point x="861.92" y="590.5866666667" type="line"/>
			<point x="928.6533333333" y="779.5333333333" type="line" smooth="yes"/>
			<point x="947.5466666667" y="833.3333333333"/>
			<point x="957.3066666667" y="878.12"/>
			<point x="957.3066666667" y="914.2666666667" type="curve" smooth="yes"/>
			<point x="957.3066666667" y="1001.7733333333"/>
			<point x="904.56" y="1044"/>
			<point x="805.32" y="1044" type="curve" smooth="yes"/>
			<point x="640.8533333333" y="1044"/>
			<point x="513.32" y="895.5866666667"/>
			<point x="360.9333333333" y="579.1066666667" type="curve"/>
			<point x="377.2" y="602.2933333333" type="line"/>
			<point x="509.3466666667" y="1017.24" type="line"/>
			<point x="480.3733333333" y="1031.9866666667"/>
			<point x="456.2666666667" y="1039.6133333333"/>
			<point x="415.4133333333" y="1039.6133333333" type="curve" smooth="yes"/>
			<point x="303.9866666667" y="1039.6133333333"/>
			<point x="196.36" y="958.1733333333"/>
			<point x="56.48" y="629.6666666667" type="curve"/>
			<point x="66.2266666667" y="625.2933333333" type="line"/>
			<point x="213.5066666667" y="899.1333333333"/>
			<point x="307.8933333333" y="944.6"/>
			<point x="349.64" y="944.6" type="curve" smooth="yes"/>
			<point x="375.1466666667" y="944.6"/>
			<point x="384.4133333333" y="927.6133333333"/>
			<point x="372.6533333333" y="892.08" type="curve"/>
			<point x="74.5066666667" y="0" type="line"/>
			<point x="179.2266666667" y="0" type="line"/>
			<point x="359.9866666667" y="543.16" type="line" smooth="yes"/>
			<point x="440.2933333333" y="729.8133333333"/>
			<point x="585.5733333333" y="953.1333333333"/>
			<point x="755.7066666667" y="953.1333333333" type="curve" smooth="yes"/>
			<point x="814.2266666667" y="953.1333333333"/>
			<point x="844.7333333333" y="933.12"/>
			<point x="844.7333333333" y="878.2133333333" type="curve" smooth="yes"/>
			<point x="844.7333333333" y="846.56"/>
			<point x="834.6" y="803.1466666667"/>
			<point x="814.08" y="745.4666666667" type="curve" smooth="yes"/>
			<point x="550.96" y="0" type="line"/>
			<point x="655.68" y="0" type="line"/>
			<point x="846.9466666667" y="543.5333333333" type="line"/>
			<point x="925.9066666667" y="719.8933333333"/>
			<point x="1079.0933333333" y="955.64"/>
			<point x="1255.16" y="955.64" type="curve" smooth="yes"/>
			<point x="1313.52" y="955.64"/>
			<point x="1356.3066666667" y="932.8933333333"/>
			<point x="1356.3066666667" y="877.1066666667" type="curve" smooth="yes"/>
			<point x="1356.3066666667" y="849.9733333333"/>
			<point x="1344.9333333333" y="811.2"/>
			<point x="1302.2933333333" y="707.6666666667" type="curve" smooth="yes"/>
			<point x="1044.0133333333" y="80.0933333333" type="line" smooth="yes"/>
			<point x="1016.6533333333" y="13.5066666667"/>
			<point x="1029.3466666667" y="-20"/>
			<point x="1096.5466666667" y="-20" type="curve" smooth="yes"/>
			<point x="1192.5333333333" y="-20"/>
			<point x="1304.3333333333" y="53.1866666667"/>
			<point x="1481.4666666667" y="302.32" type="curve"/>
			<point x="1473.72" y="308.0666666667" type="line"/>
			<point x="1296.3466666667" y="105.2666666667"/>
			<point x="1166.9333333333" y="54.7466666667"/>
			<point x="1108.56" y="74.3866666667" type="curve"/>
		</contour>
	</outline>
	<anchor name="top" x="939.1333333333" y="1024"/>
	<anchor name="bottom" x="602.6" y="0"/>
</glyph>
<glyph name="n" format="2">
	<unicode hex="006E"/>
	<advance width="1083.2133333333"/>
	<outline>
		<contour>
			<point x="66.2266666667" y="625.2933333333" type="line"/>
			<point x="213.5066666667" y="899.1333333333"/>
			<point x="307.8933333333" y="944.6"/>
			<point x="349.64" y="944.6" type="curve" smooth="yes"/>
			<point x="375.1466666667" y="944.6"/>
			<point x="384.4133333333" y="927.6133333333"/>
			<point x="372.6533333333" y="892.08" type="curve"/>
			<point x="74.5066666667" y="0" type="line"/>
			<point x="179.2266666667" y="0" type="line"/>
			<point x="353.3466666667" y="521.4933333333" type="line"/>
			<point x="426.1866666667" y="686.12"/>
			<point x="600.2666666667" y="953.1333333333"/>
			<point x="800.36" y="953.1333333333" type="curve" smooth="yes"/>
			<point x="861.2266666667" y="953.1333333333"/>
			<point x="905.8933333333" y="929.76"/>
			<point x="905.8933333333" y="871.4666666667" type="curve" smooth="yes"/>
			<point x="905.8933333333" y="843.08"/>
			<point x="893.8933333333" y="802.4266666667"/>
			<point x="849.3733333333" y="694.5066666667" type="curve" smooth="yes"/>
			<point x="596.1066666667" y="80.0933333333" type="line" smooth="yes"/>
			<point x="568.7466666667" y="13.5066666667"/>
			<point x="581.44" y="-20"/>
			<point x="648.64" y="-20" type="curve" smooth="yes"/>
			<point x="744.6266666667" y="-20"/>
			<point x="856.4266666667" y="53.1866666667"/>
			<point x="1033.56" y="302.32" type="curve"/>
			<point x="1025.8133333333" y="308.0666666667" type="line"/>
			<point x="848.44" y="105.2666666667"/>
			<point x="719.0266666667" y="54.7466666667"/>
			<point x="660.6533333333" y="74.3866666667" type="curve"/>
			<point x="685.16" y="36.6133333333" type="line"/>
			<point x="960.36" y="707.16" type="line" smooth="yes"/>
			<point x="1009.7333333333" y="827.6533333333"/>
			<point x="1019.7333333333" y="867.6533333333"/>
			<point x="1019.7333333333" y="911.4" type="curve" smooth="yes"/>
			<point x="1019.7333333333" y="986.8933333333"/>
			<point x="964.7066666667" y="1044"/>
			<point x="851.8533333333" y="1044" type="curve" smooth="yes"/>
			<point x="662.6933333333" y="1044"/>
			<point x="512.9866666667" y="868.08"/>
			<point x="349.44" y="546.6133333333" type="curve"/>
			<point x="367.5733333333" y="569.8" type="line"/>
			<point x="509.3466666667" y="1017.24" type="line"/>
			<point x="480.3733333333" y="1031.9866666667"/>
			<point x="456.2666666667" y="1039.6133333333"/>
			<point x="415.4133333333" y="1039.6133333333" type="curve" smooth="yes"/>
			<point x="303.9866666667" y="1039.6133333333"/>
			<point x="196.36" y="958.1733333333"/>
			<point x="56.48" y="629.6666666667" type="curve"/>
		</contour>
	</outline>
	<anchor name="top" x="719.4933333333" y="1024"/>
	<anchor name="bottom" x="406.6933333333" y="0"/>
</glyph>
<glyph name="o" format="2">
	<unicode hex="006F"/>
	<advance width="895.3066666667"/>
	<outline>
		<contour>
			<point x="617.72" y="1044" type="curve" smooth="yes"/>
			<point x="317.12" y="1044"/>
			<point x="46.2666666667" y="658.6666666667"/>
			<point x="46.2666666667" y="272.12" type="curve" smooth="yes"/>
			<point x="46.2666666667" y="81.36"/>
			<point x="125" y="-20"/>
			<point x="276.2133333333" y="-20" type="curve" smooth="yes"/>
			<point x="576.8133333333" y="-20"/>
			<point x="847.6666666667" y="365.3333333333"/>
			<point x="847.6666666667" y="751.88" type="curve" smooth="yes"/>
			<point x="847.6666666667" y="942.64"/>
			<point x="768.9333333333" y="1044"/>
		</contour>
		<contour>
			<point x="277.3333333333" y="6.48" type="curve" smooth="yes"/>
			<point x="191.16" y="6.48"/>
			<point x="151.88" y="72.1333333333"/>
			<point x="151.88" y="220.3466666667" type="curve" smooth="yes"/>
			<point x="151.88" y="589.2133333333"/>
			<point x="388.0266666667" y="1017.52"/>
			<point x="616.6" y="1017.52" type="curve" smooth="yes"/>
			<point x="702.7733333333" y="1017.52"/>
			<point x="742.0533333333" y="951.8666666667"/>
			<point x="742.0533333333" y="803.6533333333" type="curve" smooth="yes"/>
			<point x="742.0533333333" y="434.7866666667"/>
			<point x="505.9066666667" y="6.48"/>
		</contour>
	</outline>
	<anchor name="top" x="590.9333333333" y="1024"/>
	<anchor name="bottom" x="282" y="0"/>
	<anchor name="horn" x="744.6666666667" y="1024"/>
	<anchor name="right" x="340.6666666667" y="0"/>
</glyph>
<glyph name="p" format="2">
	<unicode hex="0070"/>
	<advance width="1020.1733333333"/>
	<outline>
		<contour>
			<point x="273.6" y="250.1066666667" type="curve" smooth="yes"/>
			<point x="359.0133333333" y="530.3333333333" type="line" smooth="yes"/>
			<point x="454.6266666667" y="748.9333333333"/>
			<point x="625.36" y="963.0933333333"/>
			<point x="774.44" y="963.0933333333" type="curve" smooth="yes"/>
			<point x="845.2133333333" y="963.0933333333"/>
			<point x="885.0933333333" y="919.5866666667"/>
			<point x="885.0933333333" y="805.8" type="curve" smooth="yes"/>
			<point x="885.0933333333" y="452.6666666667"/>
			<point x="601.68" y="9.1066666667"/>
			<point x="391.0133333333" y="9.1066666667" type="curve" smooth="yes"/>
			<point x="297.2266666667" y="9.1066666667"/>
			<point x="260.2266666667" y="73.2266666667"/>
			<point x="260.2266666667" y="164.3733333333" type="curve" smooth="yes"/>
			<point x="260.2266666667" y="190.8666666667"/>
			<point x="264.6" y="220.36"/>
		</contour>
		<contour>
			<point x="183.1733333333" y="127.52" type="line"/>
			<point x="200.52" y="44.3866666667"/>
			<point x="266.1466666667" y="-20"/>
			<point x="385.4933333333" y="-20" type="curve" smooth="yes"/>
			<point x="664.2533333333" y="-20"/>
			<point x="1004.4266666667" y="454.24"/>
			<point x="1004.4266666667" y="833.16" type="curve" smooth="yes"/>
			<point x="1004.4266666667" y="982.28"/>
			<point x="938.8133333333" y="1043.3733333333"/>
			<point x="828.7466666667" y="1043.3733333333" type="curve" smooth="yes"/>
			<point x="694.2266666667" y="1043.3733333333"/>
			<point x="534.1866666667" y="908.3866666667"/>
			<point x="361.3466666667" y="588.4533333333" type="curve"/>
			<point x="375.3466666667" y="588.4533333333" type="line"/>
			<point x="509.6133333333" y="1017.24" type="line"/>
			<point x="480.64" y="1031.9866666667"/>
			<point x="454.0266666667" y="1039.6133333333"/>
			<point x="413.1733333333" y="1039.6133333333" type="curve" smooth="yes"/>
			<point x="301.7466666667" y="1039.6133333333"/>
			<point x="194.12" y="958.1733333333"/>
			<point x="54.24" y="629.6666666667" type="curve"/>
			<point x="63.9866666667" y="625.2933333333" type="line"/>
			<point x="211.2666666667" y="899.1333333333"/>
			<point x="305.6533333333" y="944.6"/>
			<point x="347.4" y="944.6" type="curve" smooth="yes"/>
			<point x="372.16" y="944.6"/>
			<point x="382.5466666667" y="930.1066666667"/>
			<point x="370.4133333333" y="892.08" type="curve"/>
			<point x="-30.1466666667" y="-406.1733333333" type="line"/>
			<point x="-170.0133333333" y="-428.6533333333" type="line"/>
			<point x="-175.76" y="-445" type="line"/>
			<point x="227.8133333333" y="-445" type="line"/>
			<point x="232.9333333333" y="-428.6533333333" type="line"/>
			<point x="73.9466666667" y="-406.1733333333" type="line"/>
			<point x="231.6133333333" y="108.5466666667" type="line"/>
		</contour>
	</outline>
	<anchor name="top" x="667.4133333333" y="1024"/>
	<anchor name="bottom" x="13.7733333333" y="-445"/>
</glyph>
<glyph name="q" format="2">
	<unicode hex="0071"/>
	<advance width="915.7066666667"/>
	<outline>
		<contour>
			<point x="374.6666666667" y="-406.1733333333" type="line"/>
			<point x="203.6666666667" y="-428.6533333333" type="line"/>
			<point x="198.5466666667" y="-445" type="line"/>
			<point x="613.6533333333" y="-445" type="line"/>
			<point x="618.1466666667" y="-428.6533333333" type="line"/>
			<point x="478.76" y="-406.1733333333" type="line"/>
			<point x="941.6133333333" y="1024" type="line"/>
			<point x="839.5066666667" y="1024" type="line"/>
			<point x="807.2533333333" y="926.7466666667" type="line"/>
			<point x="656.52" y="469.8133333333" type="line" smooth="yes"/>
			<point x="393.04" y="114.6666666667"/>
			<point x="297.48" y="65.88"/>
			<point x="211.7066666667" y="65.88" type="curve" smooth="yes"/>
			<point x="147.56" y="65.88"/>
			<point x="113.4533333333" y="107.7866666667"/>
			<point x="113.4533333333" y="189.0266666667" type="curve" smooth="yes"/>
			<point x="113.4533333333" y="441.92"/>
			<point x="404.52" y="999.44"/>
			<point x="658.4266666667" y="999.44" type="curve" smooth="yes"/>
			<point x="722.5466666667" y="999.44"/>
			<point x="777.56" y="973.2"/>
			<point x="819.9466666667" y="883.1066666667" type="curve"/>
			<point x="830.08" y="903.9466666667" type="line"/>
			<point x="784.96" y="998.16"/>
			<point x="722.24" y="1042.5066666667"/>
			<point x="640.12" y="1042.5066666667" type="curve" smooth="yes"/>
			<point x="347.4133333333" y="1042.5066666667"/>
			<point x="-2.1333333333" y="486.3466666667"/>
			<point x="-2.1333333333" y="148.9466666667" type="curve" smooth="yes"/>
			<point x="-2.1333333333" y="45"/>
			<point x="57.32" y="-20"/>
			<point x="166.7066666667" y="-20" type="curve" smooth="yes"/>
			<point x="263.5866666667" y="-20"/>
			<point x="373.0266666667" y="41.1066666667"/>
			<point x="662.6133333333" y="450.4" type="curve"/>
			<point x="652.8666666667" y="450.4" type="line"/>
		</contour>
	</outline>
	<anchor name="top" x="652.12" y="1024"/>
	<anchor name="bottom" x="420.08" y="-445"/>
</glyph>
<glyph name="r" format="2">
	<unicode hex="0072"/>
	<advance width="757.64"/>
	<outline>
		<contour>
			<point x="372.6533333333" y="892.08" type="curve"/>
			<point x="74.5066666667" y="0" type="line"/>
			<point x="179.2266666667" y="0" type="line"/>
			<point x="310.3733333333" y="393.2" type="line" smooth="yes"/>
			<point x="424.7733333333" y="738.4133333333"/>
			<point x="615.5733333333" y="957.7466666667"/>
			<point x="720.2133333333" y="957.7466666667" type="curve" smooth="yes"/>
			<point x="736.7066666667" y="957.7466666667"/>
			<point x="743.08" y="948.3733333333"/>
			<point x="737.08" y="908.2666666667" type="curve" smooth="yes"/>
			<point x="731.08" y="868.16"/>
			<point x="743.8133333333" y="848.04"/>
			<point x="785.5333333333" y="848.04" type="curve" smooth="yes"/>
			<point x="838.48" y="848.04"/>
			<point x="886.4266666667" y="894.88"/>
			<point x="886.4266666667" y="962.32" type="curve" smooth="yes"/>
			<point x="886.4266666667" y="1009.28"/>
			<point x="856.5733333333" y="1044"/>
			<point x="791.3733333333" y="1044" type="curve" smooth="yes"/>
			<point x="653.0533333333" y="1044"/>
			<point x="511.9733333333" y="892.32"/>
			<point x="329.64" y="496.5733333333" type="curve"/>
			<point x="342.7866666667" y="496.5733333333" type="line"/>
			<point x="509.3466666667" y="1017.24" type="line"/>
			<point x="480.3733333333" y="1031.9866666667"/>
			<point x="456.2666666667" y="1039.6133333333"/>
			<point x="415.4133333333" y="1039.6133333333" type="curve" smooth="yes"/>
			<point x="303.9866666667" y="1039.6133333333"/>
			<point x="196.36" y="958.1733333333"/>
			<point x="56.48" y="629.6666666667" type="curve"/>
			<point x="66.2266666667" y="625.2933333333" type="line"/>
			<point x="213.5066666667" y="899.1333333333"/>
			<point x="307.8933333333" y="944.6"/>
			<point x="349.64" y="944.6" type="curve" smooth="yes"/>
			<point x="375.1466666667" y="944.6"/>
			<point x="384.4133333333" y="927.6133333333"/>
		</contour>
	</outline>
	<anchor name="top" x="566.8533333333" y="1024"/>
	<anchor name="bottom" x="131.5333333333" y="0"/>
</glyph>
<glyph name="s" format="2">
	<unicode hex="0073"/>
	<advance width="660.2933333333"/>
	<outline>
		<contour>
			<point x="101.5333333333" y="173.3733333333" type="curve" smooth="yes"/>
			<point x="8.72" y="173.3733333333"/>
			<point x="-27.7466666667" y="142.88"/>
			<point x="-27.7466666667" y="85.56" type="curve" smooth="yes"/>
			<point x="-27.7466666667" y="21.6"/>
			<point x="19.4933333333" y="-20"/>
			<point x="141.68" y="-20" type="curve" smooth="yes"/>
			<point x="354.6666666667" y="-20"/>
			<point x="520.3066666667" y="115.1066666667"/>
			<point x="520.3066666667" y="307.5866666667" type="curve" smooth="yes"/>
			<point x="520.3066666667" y="378.0666666667"/>
			<point x="493.9333333333" y="450.1866666667"/>
			<point x="394.5333333333" y="570.8" type="curve" smooth="yes"/>
			<point x="295.1333333333" y="691.4133333333"/>
			<point x="269.6266666667" y="752.5466666667"/>
			<point x="269.6266666667" y="816.68" type="curve" smooth="yes"/>
			<point x="269.6266666667" y="935.72"/>
			<point x="358.1733333333" y="1006.1333333333"/>
			<point x="480.7066666667" y="1006.1333333333" type="curve" smooth="yes"/>
			<point x="518.7066666667" y="1006.1333333333"/>
			<point x="539.4533333333" y="999.88"/>
			<point x="555.4533333333" y="981.5066666667" type="curve" smooth="yes"/>
			<point x="571.4533333333" y="963.1333333333"/>
			<point x="576.5733333333" y="929.6666666667"/>
			<point x="572.2" y="865.7466666667" type="curve" smooth="yes"/>
			<point x="660.88" y="865.7466666667"/>
			<point x="694.4933333333" y="893.6"/>
			<point x="694.4933333333" y="944.2" type="curve" smooth="yes"/>
			<point x="694.4933333333" y="1003.0266666667"/>
			<point x="651.76" y="1044"/>
			<point x="528.8133333333" y="1044" type="curve" smooth="yes"/>
			<point x="347.88" y="1044"/>
			<point x="190.1066666667" y="919.04"/>
			<point x="190.1066666667" y="742.5333333333" type="curve" smooth="yes"/>
			<point x="190.1066666667" y="667.4133333333"/>
			<point x="223.2533333333" y="586.16"/>
			<point x="319.2666666667" y="473.1733333333" type="curve" smooth="yes"/>
			<point x="415.28" y="360.1866666667"/>
			<point x="444.52" y="298.3333333333"/>
			<point x="444.52" y="238.72" type="curve" smooth="yes"/>
			<point x="444.52" y="99.64"/>
			<point x="352.9733333333" y="27.6133333333"/>
			<point x="202.9066666667" y="27.6133333333" type="curve" smooth="yes"/>
			<point x="167.0133333333" y="27.6133333333"/>
			<point x="140.2533333333" y="35"/>
			<point x="124.1333333333" y="56.7466666667" type="curve" smooth="yes"/>
			<point x="108.0133333333" y="78.4933333333"/>
			<point x="101.1466666667" y="116.2133333333"/>
		</contour>
	</outline>
	<anchor name="top" x="472.1733333333" y="1024"/>
	<anchor name="bottom" x="221.4666666667" y="0"/>
</glyph>
<glyph name="t" format="2">
	<unicode hex="0074"/>
	<advance width="598.5466666667"/>
	<outline>
		<contour>
			<point x="146.6266666667" y="987.6666666667" type="line"/>
			<point x="671.3866666667" y="987.6666666667" type="line"/>
			<point x="680" y="1024" type="line"/>
			<point x="160.12" y="1024" type="line"/>
		</contour>
		<contour>
			<point x="223.1466666667" y="249.6666666667" type="curve" smooth="yes"/>
			<point x="550.1333333333" y="1270" type="line"/>
			<point x="443.04" y="1270" type="line"/>
			<point x="111.2666666667" y="235.0533333333" type="line" smooth="yes"/>
			<point x="88.5466666667" y="164.52"/>
			<point x="83.4133333333" y="124.64"/>
			<point x="83.4133333333" y="94.2533333333" type="curve" smooth="yes"/>
			<point x="83.4133333333" y="13.2533333333"/>
			<point x="127.7866666667" y="-20"/>
			<point x="192.4266666667" y="-20" type="curve" smooth="yes"/>
			<point x="287.0666666667" y="-20"/>
			<point x="385.2533333333" y="40.16"/>
			<point x="547.1466666667" y="309.1866666667" type="curve"/>
			<point x="538.1466666667" y="314.9333333333" type="line"/>
			<point x="387.9066666667" y="97.36"/>
			<point x="304.6666666667" y="62.48"/>
			<point x="252.0266666667" y="62.48" type="curve" smooth="yes"/>
			<point x="215.5066666667" y="62.48"/>
			<point x="195.12" y="78.12"/>
			<point x="195.12" y="120.04" type="curve" smooth="yes"/>
			<point x="195.12" y="148.2"/>
			<point x="203.1333333333" y="188"/>
		</contour>
	</outline>
	<anchor name="bottom" x="211.0266666667" y="0"/>
	<anchor name="right" x="571.6666666667" y="1516.2"/>
</glyph>
<glyph name="u" format="2">
  <advance width="1038.5466666666666"/>
  <unicode hex="0075"/>
  <anchor x="669.2133333333333" y="1024.0" name="top"/>
  <anchor x="844.6533333333333" y="0.0" name="right"/>
  <anchor x="366.41333333333336" y="0.0" name="bottom"/>
  <anchor x="955.9866666666667" y="1024.0" name="horn"/>
  <outline>
    <contour>
      <point x="590.04" y="74.28" type="line" smooth="yes"/>
      <point x="565.8933333333333" y="-0.28000000000000114"/>
      <point x="579.36" y="-20.0"/>
      <point x="632.8266666666667" y="-20.0" type="curve" smooth="yes"/>
      <point x="729.4533333333334" y="-20.0"/>
      <point x="845.0400000000001" y="61.239999999999995"/>
      <point x="998.64" y="296.67999999999995" type="curve"/>
      <point x="990.8933333333334" y="302.4266666666667" type="line"/>
      <point x="824.8533333333334" y="103.12"/>
      <point x="712.6" y="57.38666666666666"/>
      <point x="649.5733333333334" y="76.01333333333334" type="curve"/>
      <point x="674.4666666666666" y="36.239999999999995" type="line"/>
      <point x="1005.2533333333334" y="1024.0" type="line"/>
      <point x="900.5333333333333" y="1024.0" type="line"/>
      <point x="718.1999999999999" y="478.23999999999995" type="line" smooth="yes"/>
      <point x="645.36" y="313.9866666666666"/>
      <point x="487.0133333333333" y="70.86666666666666"/>
      <point x="304.84" y="70.86666666666666" type="curve" smooth="yes"/>
      <point x="245.09333333333333" y="70.86666666666666"/>
      <point x="206.45333333333332" y="91.62666666666667"/>
      <point x="206.45333333333332" y="152.16" type="curve" smooth="yes"/>
      <point x="206.45333333333332" y="180.17333333333335"/>
      <point x="218.21333333333334" y="220.94666666666666"/>
      <point x="253.63999999999996" y="310.4533333333333" type="curve" smooth="yes"/>
      <point x="505.50666666666666" y="950.8000000000001" type="line" smooth="yes"/>
      <point x="531.24" y="1016.1333333333333"/>
      <point x="517.04" y="1044.0"/>
      <point x="455.3333333333333" y="1044.0" type="curve" smooth="yes"/>
      <point x="361.24" y="1044.0"/>
      <point x="238.13333333333335" y="975.2133333333334"/>
      <point x="66.64" y="729.2133333333333" type="curve"/>
      <point x="74.38666666666667" y="722.8399999999999" type="line"/>
      <point x="243.71999999999997" y="924.8266666666667"/>
      <point x="385.8" y="970.7466666666667"/>
      <point x="435.5866666666667" y="948.12" type="curve"/>
      <point x="410.3333333333333" y="987.3866666666667" type="line"/>
      <point x="138.92000000000002" y="288.4666666666667" type="line" smooth="yes"/>
      <point x="103.49333333333333" y="197.21333333333334"/>
      <point x="92.24" y="156.34666666666666"/>
      <point x="92.24" y="114.83999999999999" type="curve" smooth="yes"/>
      <point x="92.24" y="37.48"/>
      <point x="139.37333333333333" y="-20.0"/>
      <point x="252.2266666666667" y="-20.0" type="curve" smooth="yes"/>
      <point x="440.64" y="-20.0"/>
      <point x="577.2266666666667" y="165.25333333333333"/>
      <point x="720.6133333333333" y="454.24" type="curve"/>
      <point x="704.72" y="431.05333333333334" type="line"/>
    </contour>
  </outline>
</glyph>
<glyph name="v" format="2">
	<unicode hex="0076"/>
	<advance width="933.8"/>
	<outline>
		<contour>
			<point x="896.1866666667" y="871.84" type="curve" smooth="yes"/>
			<point x="896.1866666667" y="995.0266666667"/>
			<point x="861.3466666667" y="1040.4933333333"/>
			<point x="805.9066666667" y="1040.4933333333" type="curve" smooth="yes"/>
			<point x="761.5866666667" y="1040.4933333333"/>
			<point x="732.8533333333" y="1012.16"/>
			<point x="732.8533333333" y="967.44" type="curve" smooth="yes"/>
			<point x="732.8533333333" y="876.52"/>
			<point x="839.0933333333" y="910.6133333333"/>
			<point x="839.0933333333" y="740.1866666667" type="curve" smooth="yes"/>
			<point x="839.0933333333" y="488.7466666667"/>
			<point x="557.9066666667" y="50.16"/>
			<point x="321.44" y="50.16" type="curve" smooth="yes"/>
			<point x="267.08" y="50.16"/>
			<point x="238.84" y="70.28"/>
			<point x="238.84" y="127.88" type="curve" smooth="yes"/>
			<point x="238.84" y="162.7466666667"/>
			<point x="249.2133333333" y="211.7333333333"/>
			<point x="269.96" y="277.4666666667" type="curve" smooth="yes"/>
			<point x="503.1466666667" y="1016.8666666667" type="line"/>
			<point x="474.5466666667" y="1031.24"/>
			<point x="447.1733333333" y="1039.6133333333"/>
			<point x="406.6933333333" y="1039.6133333333" type="curve" smooth="yes"/>
			<point x="295.2666666667" y="1039.6133333333"/>
			<point x="187.64" y="958.1733333333"/>
			<point x="47.76" y="629.6666666667" type="curve"/>
			<point x="57.5066666667" y="625.2933333333" type="line"/>
			<point x="204.7866666667" y="899.1333333333"/>
			<point x="299.1733333333" y="944.6"/>
			<point x="340.92" y="944.6" type="curve" smooth="yes"/>
			<point x="366.4266666667" y="944.6"/>
			<point x="375.6933333333" y="928.36"/>
			<point x="363.9333333333" y="892.08" type="curve"/>
			<point x="167.4933333333" y="268.1333333333" type="line" smooth="yes"/>
			<point x="147.4933333333" y="204.1333333333"/>
			<point x="137.4933333333" y="152.2666666667"/>
			<point x="137.4933333333" y="111.6533333333" type="curve" smooth="yes"/>
			<point x="137.4933333333" y="19.3333333333"/>
			<point x="187.5866666667" y="-20"/>
			<point x="280.76" y="-20" type="curve" smooth="yes"/>
			<point x="524.16" y="-20"/>
			<point x="896.1866666667" y="436.9333333333"/>
		</contour>
	</outline>
	<anchor name="top" x="607.0666666667" y="1024"/>
	<anchor name="bottom" x="320.5333333333" y="0"/>
</glyph>
<glyph name="w" format="2">
	<unicode hex="0077"/>
	<advance width="1337.3733333333"/>
	<outline>
		<contour>
			<point x="827.5333333333" y="1024" type="line"/>
			<point x="705.32" y="515.3333333333" type="line" smooth="yes"/>
			<point x="597.8666666667" y="189.1466666667"/>
			<point x="414.7733333333" y="50.16"/>
			<point x="302.1866666667" y="50.16" type="curve" smooth="yes"/>
			<point x="256.8266666667" y="50.16"/>
			<point x="231.96" y="65.28"/>
			<point x="231.96" y="115.76" type="curve" smooth="yes"/>
			<point x="231.96" y="147.12"/>
			<point x="241.08" y="191.72"/>
			<point x="260.6933333333" y="254.3066666667" type="curve" smooth="yes"/>
			<point x="501.0133333333" y="1016.8666666667" type="line"/>
			<point x="472.4133333333" y="1031.24"/>
			<point x="446.2933333333" y="1039.6133333333"/>
			<point x="405.8133333333" y="1039.6133333333" type="curve" smooth="yes"/>
			<point x="294.3866666667" y="1039.6133333333"/>
			<point x="186.76" y="958.1733333333"/>
			<point x="46.88" y="629.6666666667" type="curve"/>
			<point x="56.6266666667" y="625.2933333333" type="line"/>
			<point x="203.9066666667" y="899.1333333333"/>
			<point x="298.2933333333" y="944.6"/>
			<point x="340.04" y="944.6" type="curve" smooth="yes"/>
			<point x="365.5466666667" y="944.6"/>
			<point x="374.8133333333" y="928.36"/>
			<point x="363.0533333333" y="892.08" type="curve"/>
			<point x="162.1066666667" y="253.8533333333" type="line" smooth="yes"/>
			<point x="141.36" y="188.6133333333"/>
			<point x="131.36" y="137.2533333333"/>
			<point x="131.36" y="97.8933333333" type="curve" smooth="yes"/>
			<point x="131.36" y="13.2133333333"/>
			<point x="176.32" y="-20"/>
			<point x="257.64" y="-20" type="curve" smooth="yes"/>
			<point x="386.84" y="-20"/>
			<point x="577.72" y="117.9333333333"/>
			<point x="703.88" y="451.0666666667" type="curve"/>
			<point x="698.6266666667" y="451.0666666667" type="line"/>
			<point x="635.2533333333" y="217.8133333333" type="line" smooth="yes"/>
			<point x="621.3733333333" y="167.1733333333"/>
			<point x="614.3733333333" y="126.6666666667"/>
			<point x="614.3733333333" y="93.6666666667" type="curve" smooth="yes"/>
			<point x="614.3733333333" y="13.5866666667"/>
			<point x="656.84" y="-20"/>
			<point x="745.3866666667" y="-20" type="curve" smooth="yes"/>
			<point x="974.3733333333" y="-20"/>
			<point x="1280.84" y="392.44"/>
			<point x="1280.84" y="871.84" type="curve" smooth="yes"/>
			<point x="1280.84" y="995.0266666667"/>
			<point x="1246" y="1040.4933333333"/>
			<point x="1187.4266666667" y="1040.4933333333" type="curve" smooth="yes"/>
			<point x="1144.9866666667" y="1040.4933333333"/>
			<point x="1117.5066666667" y="1011.5333333333"/>
			<point x="1117.5066666667" y="967.44" type="curve" smooth="yes"/>
			<point x="1117.5066666667" y="876.52"/>
			<point x="1223.7466666667" y="910.6133333333"/>
			<point x="1223.7466666667" y="740.1866666667" type="curve" smooth="yes"/>
			<point x="1223.7466666667" y="441.7466666667"/>
			<point x="1012.88" y="50.16"/>
			<point x="779.5466666667" y="50.16" type="curve" smooth="yes"/>
			<point x="734.2133333333" y="50.16"/>
			<point x="713.2133333333" y="65.3866666667"/>
			<point x="713.2133333333" y="114.76" type="curve" smooth="yes"/>
			<point x="713.2133333333" y="143.7466666667"/>
			<point x="719.7066666667" y="183.48"/>
			<point x="733.08" y="236.4666666667" type="curve" smooth="yes"/>
			<point x="924.3866666667" y="1024" type="line"/>
		</contour>
	</outline>
	<anchor name="top" x="848.2" y="1024"/>
	<anchor name="bottom" x="605.5333333333" y="0"/>
</glyph>
<glyph name="x" format="2">
  <advance width="947"/>
  <unicode hex="0078"/>
  <anchor x="619.1466666666666" y="1024.0" name="top"/>
  <anchor x="353.9466666666667" y="0.0" name="bottom"/>
  <outline>
    <contour>
      <point x="499.90666666666664" y="527.76" type="line"/>
      <point x="622.5466666666666" y="712.64" type="line" smooth="yes"/>
      <point x="748.6266666666667" y="902.12"/>
      <point x="804.24" y="952.3733333333333"/>
      <point x="862.3733333333333" y="952.3733333333333" type="curve" smooth="yes"/>
      <point x="890.7466666666667" y="952.3733333333333"/>
      <point x="898.6266666666667" y="940.12"/>
      <point x="892.4933333333333" y="901.1333333333333" type="curve" smooth="yes"/>
      <point x="886.36" y="862.1466666666666"/>
      <point x="898.6" y="846.7733333333333"/>
      <point x="936.4533333333334" y="846.7733333333333" type="curve" smooth="yes"/>
      <point x="991.3866666666667" y="846.7733333333333"/>
      <point x="1033.1066666666666" y="894.3466666666667"/>
      <point x="1033.1066666666666" y="954.0400000000001" type="curve" smooth="yes"/>
      <point x="1033.1066666666666" y="1009.6533333333333"/>
      <point x="996.2533333333333" y="1044.0"/>
      <point x="931.6533333333334" y="1044.0" type="curve" smooth="yes"/>
      <point x="844.5333333333333" y="1044.0"/>
      <point x="771.7866666666666" y="989.4666666666667"/>
      <point x="658.36" y="815.1466666666666" type="curve" smooth="yes"/>
      <point x="492.04" y="557.7466666666667" type="line"/>
      <point x="448.2" y="514.4133333333333" type="line"/>
      <point x="316.08" y="309.3066666666667" type="line" smooth="yes"/>
      <point x="191.2" y="116.61333333333334"/>
      <point x="139.76" y="72.0"/>
      <point x="85.49333333333334" y="72.0" type="curve" smooth="yes"/>
      <point x="58.239999999999995" y="72.0"/>
      <point x="49.86666666666666" y="83.99999999999999"/>
      <point x="55.74666666666666" y="123.24" type="curve" smooth="yes"/>
      <point x="61.626666666666665" y="162.48"/>
      <point x="50.64" y="178.34666666666666"/>
      <point x="12.16" y="178.34666666666666" type="curve" smooth="yes"/>
      <point x="-43.653333333333336" y="178.34666666666666"/>
      <point x="-83.74666666666667" y="130.14666666666668"/>
      <point x="-83.74666666666667" y="70.33333333333333" type="curve" smooth="yes"/>
      <point x="-83.74666666666667" y="12.84"/>
      <point x="-47.266666666666666" y="-20.0"/>
      <point x="17.333333333333336" y="-20.0" type="curve" smooth="yes"/>
      <point x="101.67999999999999" y="-20.0"/>
      <point x="176.51999999999998" y="37.25333333333334"/>
      <point x="281.66666666666663" y="204.65333333333334" type="curve" smooth="yes"/>
      <point x="457.6933333333333" y="485.68" type="line"/>
    </contour>
    <contour>
      <point x="872.7866666666666" y="354.93333333333334" type="curve"/>
      <point x="862.6666666666667" y="354.93333333333334" type="line"/>
      <point x="777.6533333333333" y="150.9333333333333"/>
      <point x="707.0133333333333" y="70.16000000000001"/>
      <point x="653.48" y="70.16000000000001" type="curve" smooth="yes"/>
      <point x="626.2133333333334" y="70.16000000000001"/>
      <point x="608.3333333333334" y="87.41333333333334"/>
      <point x="598.4533333333333" y="144.84" type="curve" smooth="yes"/>
      <point x="461.28" y="896.2933333333333" type="line" smooth="yes"/>
      <point x="440.14666666666665" y="1017.52"/>
      <point x="411.4266666666667" y="1044.0"/>
      <point x="365.32" y="1044.0" type="curve" smooth="yes"/>
      <point x="271.09333333333336" y="1044.0"/>
      <point x="195.6" y="954.2133333333334"/>
      <point x="126.46666666666667" y="669.0666666666666" type="curve"/>
      <point x="136.58666666666667" y="669.0666666666666" type="line"/>
      <point x="208.48" y="878.08"/>
      <point x="267.9866666666667" y="951.08"/>
      <point x="319.40000000000003" y="951.08" type="curve" smooth="yes"/>
      <point x="340.9066666666667" y="951.08"/>
      <point x="354.65333333333336" y="932.96"/>
      <point x="364.53333333333336" y="879.16" type="curve" smooth="yes"/>
      <point x="504.21333333333337" y="112.66666666666667" type="line" smooth="yes"/>
      <point x="520.96" y="18.76"/>
      <point x="557.2" y="-20.0"/>
      <point x="612.0799999999999" y="-20.0" type="curve" smooth="yes"/>
      <point x="702.6666666666666" y="-20.0"/>
      <point x="786.7866666666666" y="67.90666666666667"/>
    </contour>
  </outline>
</glyph>
<glyph name="y" format="2">
	<unicode hex="0079"/>
	<advance width="961.36"/>
	<outline>
		<contour>
			<point x="73.1466666667" y="605.2666666667" type="line"/>
			<point x="158.6266666667" y="889.5066666667"/>
			<point x="206.8666666667" y="945.8933333333"/>
			<point x="260.6266666667" y="945.8933333333" type="curve" smooth="yes"/>
			<point x="292.1333333333" y="945.8933333333"/>
			<point x="317.3733333333" y="910.88"/>
			<point x="346" y="777.5733333333" type="curve" smooth="yes"/>
			<point x="374.6266666667" y="644.2666666667"/>
			<point x="402.24" y="346.1466666667"/>
			<point x="410.6" y="-209.2" type="curve"/>
			<point x="507.7066666667" y="-94.12" type="line"/>
			<point x="507.5733333333" y="382.16"/>
			<point x="472.9733333333" y="729.5333333333"/>
			<point x="435.48" y="866.2" type="curve" smooth="yes"/>
			<point x="397.9866666667" y="1002.8666666667"/>
			<point x="361.88" y="1044"/>
			<point x="311.2666666667" y="1044" type="curve" smooth="yes"/>
			<point x="221.0666666667" y="1044"/>
			<point x="133.6133333333" y="947.0133333333"/>
			<point x="63.5333333333" y="605.2666666667" type="curve"/>
		</contour>
		<contour>
			<point x="448.0133333333" y="-137.1866666667" type="line"/>
			<point x="297.64" y="-323.68"/>
			<point x="151.08" y="-414.6533333333"/>
			<point x="23.56" y="-414.6533333333" type="curve" smooth="yes"/>
			<point x="-18.44" y="-414.6533333333"/>
			<point x="-34.32" y="-397.5333333333"/>
			<point x="-20.3333333333" y="-334.44" type="curve" smooth="yes"/>
			<point x="-6.3466666667" y="-271.3466666667"/>
			<point x="-20.0933333333" y="-250.88"/>
			<point x="-67.4133333333" y="-250.88" type="curve" smooth="yes"/>
			<point x="-121.3733333333" y="-250.88"/>
			<point x="-154.0933333333" y="-289.4533333333"/>
			<point x="-154.0933333333" y="-342.6533333333" type="curve" smooth="yes"/>
			<point x="-154.0933333333" y="-414.3866666667"/>
			<point x="-111.48" y="-465"/>
			<point x="-13.52" y="-465" type="curve" smooth="yes"/>
			<point x="163.5866666667" y="-465"/>
			<point x="337.2533333333" y="-344.7733333333"/>
			<point x="543.5866666667" y="-62.84" type="curve" smooth="yes"/>
			<point x="751.1733333333" y="220.9733333333"/>
			<point x="946.5466666667" y="742.8933333333"/>
			<point x="946.5466666667" y="990.88" type="curve" smooth="yes"/>
			<point x="946.5466666667" y="1024.8933333333"/>
			<point x="937.0666666667" y="1032.7466666667"/>
			<point x="900.5866666667" y="1032.7466666667" type="curve" smooth="yes"/>
			<point x="884.36" y="1032.7466666667"/>
			<point x="869" y="1031.12"/>
			<point x="847.4" y="1024.6266666667" type="curve"/>
			<point x="854.2933333333" y="626.9466666667"/>
			<point x="716.8133333333" y="230.9333333333"/>
			<point x="471.2666666667" y="-107.56" type="curve"/>
		</contour>
	</outline>
	<anchor name="top" x="580.5066666667" y="1024"/>
	<anchor name="bottom" x="618.9333333333" y="-160.4266666667"/>
</glyph>
<glyph name="z" format="2">
	<unicode hex="007A"/>
	<advance width="815.6133333333"/>
	<outline>
		<contour>
			<point x="-40.4266666667" y="-1.3866666667" type="line"/>
			<point x="-19.0666666667" y="-20" type="line"/>
			<point x="848.7466666667" y="1025.64" type="line"/>
			<point x="826.76" y="1044.3733333333" type="line"/>
		</contour>
		<contour>
			<point x="107.9866666667" y="703.72" type="line"/>
			<point x="264.6933333333" y="972.8"/>
			<point x="341.92" y="982.96"/>
			<point x="459.08" y="931.04" type="curve" smooth="yes"/>
			<point x="682.1733333333" y="839.6933333333" type="line"/>
			<point x="751.2" y="923.8266666667" type="line"/>
			<point x="496.4666666667" y="1024.64" type="line" smooth="yes"/>
			<point x="369.1774928213" y="1075.4132196197"/>
			<point x="254.1866666667" y="1042.52"/>
			<point x="97.4933333333" y="706.72" type="curve"/>
		</contour>
		<contour>
			<point x="301.9066666667" y="16.8533333333" type="line" smooth="yes"/>
			<point x="446.3151423986" y="-67.1377713706"/>
			<point x="580.92" y="-12.3066666667"/>
			<point x="762.9733333333" y="359.0133333333" type="curve"/>
			<point x="751.8533333333" y="364.0133333333" type="line"/>
			<point x="597.36" y="89.6266666667"/>
			<point x="492.3650674021" y="20.6813444951"/>
			<point x="330.9866666667" y="122.1866666667" type="curve" smooth="yes"/>
			<point x="168.3866666667" y="220.7866666667" type="line"/>
			<point x="90.6133333333" y="139.8" type="line"/>
		</contour>
	</outline>
	<anchor name="top" x="523.88" y="1024"/>
	<anchor name="bottom" x="278.68" y="0"/>
</glyph>
<glyph name="braceleft" format="2">
	<unicode hex="007B"/>
	<advance width="551.96"/>
	<outline>
		<contour>
			<point x="73.2533333333" y="609.4" type="line"/>
			<point x="158.6666666667" y="605.6533333333" type="line" smooth="yes"/>
			<point x="223.5333333333" y="602.16"/>
			<point x="249.28" y="563.3866666667"/>
			<point x="249.28" y="510.12" type="curve" smooth="yes"/>
			<point x="249.28" y="345.1333333333"/>
			<point x="44.2" y="129.0933333333"/>
			<point x="44.2" y="-54.7866666667" type="curve" smooth="yes"/>
			<point x="44.2" y="-146.7333333333"/>
			<point x="88.6666666667" y="-215.96"/>
			<point x="200.12" y="-229.3333333333" type="curve" smooth="yes"/>
			<point x="267.9733333333" y="-237.3333333333" type="line"/>
			<point x="276.96" y="-213.0933333333" type="line"/>
			<point x="221.7066666667" y="-204.72" type="line" smooth="yes"/>
			<point x="152.84" y="-193.9733333333"/>
			<point x="121.5866666667" y="-156.48"/>
			<point x="121.5866666667" y="-85.12" type="curve" smooth="yes"/>
			<point x="121.5866666667" y="81.1333333333"/>
			<point x="309.9466666667" y="305.5466666667"/>
			<point x="309.9466666667" y="483.16" type="curve" smooth="yes"/>
			<point x="309.9466666667" y="556.7866666667"/>
			<point x="272.84" y="615.1733333333"/>
			<point x="182.1066666667" y="627.7866666667" type="curve"/>
			<point x="176.1066666667" y="610.7733333333" type="line"/>
			<point x="314.96" y="628.0133333333"/>
			<point x="399.1733333333" y="707.48"/>
			<point x="433.3066666667" y="836.6933333333" type="curve" smooth="yes"/>
			<point x="467.44" y="966.28"/>
			<point x="476.4266666667" y="1127.7333333333"/>
			<point x="512.1866666667" y="1251.12" type="curve" smooth="yes"/>
			<point x="548.5733333333" y="1374.5066666667"/>
			<point x="618.7066666667" y="1437.1333333333"/>
			<point x="731.5866666667" y="1452.1333333333" type="curve" smooth="yes"/>
			<point x="792.2133333333" y="1460.1333333333" type="line"/>
			<point x="791.4533333333" y="1484" type="line"/>
			<point x="719.2266666667" y="1476.3733333333" type="line" smooth="yes"/>
			<point x="553.6266666667" y="1458.24"/>
			<point x="444.7866666667" y="1354.1333333333"/>
			<point x="408.9333333333" y="1218.8933333333" type="curve" smooth="yes"/>
			<point x="373.08" y="1083.6533333333"/>
			<point x="378.6933333333" y="935.7333333333"/>
			<point x="349.5466666667" y="809" type="curve" smooth="yes"/>
			<point x="320.4" y="682.2666666667"/>
			<point x="263.1466666667" y="646.2533333333"/>
			<point x="169.16" y="641.3866666667" type="curve" smooth="yes"/>
			<point x="82" y="637.64" type="line"/>
		</contour>
	</outline>
</glyph>
<glyph name="bar" format="2">
	<unicode hex="007C"/>
	<advance width="458.4666666667"/>
	<outline>
		<contour>
			<point x="-90.8666666667" y="-465" type="line"/>
			<point x="-26.2933333333" y="-465" type="line"/>
			<point x="562.3333333333" y="1535" type="line"/>
			<point x="497.1333333333" y="1535" type="line"/>
		</contour>
	</outline>
</glyph>
<glyph name="braceright" format="2">
	<unicode hex="007D"/>
	<advance width="551.2133333333"/>
	<outline>
		<contour>
			<point x="545.72" y="637.2666666667" type="line"/>
			<point x="460.3066666667" y="641.0133333333" type="line" smooth="yes"/>
			<point x="395.44" y="644.5066666667"/>
			<point x="369.6933333333" y="683.28"/>
			<point x="369.6933333333" y="736.5466666667" type="curve" smooth="yes"/>
			<point x="369.6933333333" y="901.5333333333"/>
			<point x="574.7733333333" y="1117.5733333333"/>
			<point x="574.7733333333" y="1301.4533333333" type="curve" smooth="yes"/>
			<point x="574.7733333333" y="1393.4"/>
			<point x="530.3066666667" y="1462.6266666667"/>
			<point x="418.8533333333" y="1476" type="curve" smooth="yes"/>
			<point x="351" y="1484" type="line"/>
			<point x="342.0133333333" y="1459.76" type="line"/>
			<point x="397.2666666667" y="1451.3866666667" type="line" smooth="yes"/>
			<point x="466.1333333333" y="1440.64"/>
			<point x="497.3866666667" y="1403.1466666667"/>
			<point x="497.3866666667" y="1331.7866666667" type="curve" smooth="yes"/>
			<point x="497.3866666667" y="1165.5333333333"/>
			<point x="309.0266666667" y="941.12"/>
			<point x="309.0266666667" y="763.5066666667" type="curve" smooth="yes"/>
			<point x="309.0266666667" y="689.88"/>
			<point x="346.1333333333" y="631.4933333333"/>
			<point x="436.8666666667" y="618.88" type="curve"/>
			<point x="442.8666666667" y="635.8933333333" type="line"/>
			<point x="304.0133333333" y="618.6533333333"/>
			<point x="219.8" y="539.1866666667"/>
			<point x="185.6666666667" y="409.9733333333" type="curve" smooth="yes"/>
			<point x="151.5333333333" y="280.3866666667"/>
			<point x="142.5466666667" y="118.9333333333"/>
			<point x="106.7866666667" y="-4.4533333333" type="curve" smooth="yes"/>
			<point x="70.4" y="-127.84"/>
			<point x="0.2666666667" y="-190.4666666667"/>
			<point x="-112.6133333333" y="-205.4666666667" type="curve" smooth="yes"/>
			<point x="-173.24" y="-213.4666666667" type="line"/>
			<point x="-172.48" y="-237.3333333333" type="line"/>
			<point x="-100.2533333333" y="-229.7066666667" type="line" smooth="yes"/>
			<point x="65.3466666667" y="-211.5733333333"/>
			<point x="174.1866666667" y="-107.4666666667"/>
			<point x="210.04" y="27.7733333333" type="curve" smooth="yes"/>
			<point x="245.8933333333" y="163.0133333333"/>
			<point x="240.28" y="310.9333333333"/>
			<point x="269.4266666667" y="437.6666666667" type="curve" smooth="yes"/>
			<point x="298.5733333333" y="564.4"/>
			<point x="355.8266666667" y="600.4133333333"/>
			<point x="449.8133333333" y="605.28" type="curve" smooth="yes"/>
			<point x="536.9733333333" y="609.0266666667" type="line"/>
		</contour>
	</outline>
</glyph>
<glyph name="asciitilde" format="2">
	<unicode hex="007E"/>
	<advance width="1150"/>
	<outline>
		<contour>
			<point x="688.4933333333" y="541.3866666667" type="curve"/>
			<point x="686.3066666667" y="541.3866666667" type="line"/>
			<point x="668.5066666667" y="503.2266666667"/>
			<point x="659.7066666667" y="485.28"/>
			<point x="626.84" y="485.28" type="curve" smooth="yes"/>
			<point x="588.2266666667" y="485.28"/>
			<point x="566" y="543.4133333333"/>
			<point x="516.1733333333" y="543.4133333333" type="curve" smooth="yes"/>
			<point x="487.5466666667" y="543.4133333333"/>
			<point x="477.9733333333" y="519.5866666667"/>
			<point x="461.5066666667" y="482.6133333333" type="curve"/>
			<point x="463.6933333333" y="482.6133333333" type="line"/>
			<point x="481.4933333333" y="520.7733333333"/>
			<point x="490.2933333333" y="538.72"/>
			<point x="523.16" y="538.72" type="curve" smooth="yes"/>
			<point x="561.7733333333" y="538.72"/>
			<point x="584" y="480.5866666667"/>
			<point x="633.8266666667" y="480.5866666667" type="curve" smooth="yes"/>
			<point x="662.4533333333" y="480.5866666667"/>
			<point x="672.0266666667" y="504.4133333333"/>
		</contour>
	</outline>
</glyph>
<glyph name="exclamdown" format="2">
	<unicode hex="00A1"/>
	<advance width="440.7866666667"/>
	<outline>
		<contour>
			<point x="-124.8133333333" y="-359.48" type="line" smooth="yes"/>
			<point x="-138.04" y="-402.28"/>
			<point x="-102.7333333333" y="-423.4933333333"/>
			<point x="-59.4266666667" y="-423.4933333333" type="curve" smooth="yes"/>
			<point x="-19" y="-423.4933333333"/>
			<point x="19.0533333333" y="-402.9066666667"/>
			<point x="31.6533333333" y="-361.9866666667" type="curve" smooth="yes"/>
			<point x="40.28" y="-333.48" type="line" smooth="yes"/>
			<point x="51.52" y="-296.1333333333"/>
			<point x="154.5333333333" y="193.5066666667"/>
			<point x="262.1066666667" y="602.9866666667" type="curve"/>
			<point x="236.12" y="602.9866666667" type="line"/>
			<point x="98.5333333333" y="209.1866666667"/>
			<point x="-100.72" y="-279.4533333333"/>
			<point x="-116.1866666667" y="-330.9733333333" type="curve" smooth="yes"/>
		</contour>
		<contour>
			<point x="336.88" y="830.1733333333" type="curve" smooth="yes"/>
			<point x="406.9466666667" y="830.1733333333"/>
			<point x="455.3866666667" y="882.7466666667"/>
			<point x="455.3866666667" y="949.0533333333" type="curve" smooth="yes"/>
			<point x="455.3866666667" y="1002.64"/>
			<point x="417.16" y="1039.8666666667"/>
			<point x="360.8266666667" y="1039.8666666667" type="curve" smooth="yes"/>
			<point x="290.76" y="1039.8666666667"/>
			<point x="242.32" y="987.2933333333"/>
			<point x="242.32" y="921.36" type="curve" smooth="yes"/>
			<point x="242.32" y="867.4"/>
			<point x="280.5466666667" y="830.1733333333"/>
		</contour>
	</outline>
</glyph>
<glyph name="currency" format="2">
	<unicode hex="00A4"/>
	<advance width="927"/>
	<outline>
		<contour>
			<point x="219.76" y="824.5066666667" type="line"/>
			<point x="307.1466666667" y="692.4933333333" type="line"/>
			<point x="350.8666666667" y="725.3466666667" type="line"/>
			<point x="260.48" y="855.9866666667" type="line"/>
		</contour>
		<contour>
			<point x="852.0266666667" y="844.76" type="line"/>
			<point x="683.64" y="716" type="line"/>
			<point x="711.7466666667" y="675.6533333333" type="line"/>
			<point x="881.76" y="801.7866666667" type="line"/>
		</contour>
		<contour>
			<point x="704.9866666667" y="199.4933333333" type="line"/>
			<point x="617.6" y="331.5066666667" type="line"/>
			<point x="573.88" y="298.6533333333" type="line"/>
			<point x="664.2666666667" y="168.0133333333" type="line"/>
		</contour>
		<contour>
			<point x="42.9866666667" y="222.2133333333" type="line"/>
			<point x="72.72" y="179.24" type="line"/>
			<point x="241.1066666667" y="308" type="line"/>
			<point x="213" y="348.3466666667" type="line"/>
		</contour>
		<contour>
			<point x="519.36" y="802.9866666667" type="curve" smooth="yes"/>
			<point x="313.08" y="802.9866666667"/>
			<point x="161.0133333333" y="649.5866666667"/>
			<point x="161.0133333333" y="451.5066666667" type="curve" smooth="yes"/>
			<point x="161.0133333333" y="313.6266666667"/>
			<point x="256.6666666667" y="221.0133333333"/>
			<point x="405.76" y="221.0133333333" type="curve" smooth="yes"/>
			<point x="612.04" y="221.0133333333"/>
			<point x="764.1066666667" y="374.4133333333"/>
			<point x="764.1066666667" y="572.4933333333" type="curve" smooth="yes"/>
			<point x="764.1066666667" y="710.3733333333"/>
			<point x="668.4533333333" y="802.9866666667"/>
		</contour>
		<contour>
			<point x="413.4" y="271.7333333333" type="curve" smooth="yes"/>
			<point x="292.1333333333" y="271.7333333333"/>
			<point x="216.9733333333" y="345.1066666667"/>
			<point x="216.9733333333" y="460.7466666667" type="curve" smooth="yes"/>
			<point x="216.9733333333" y="625.8533333333"/>
			<point x="334.96" y="752.2666666667"/>
			<point x="511.72" y="752.2666666667" type="curve" smooth="yes"/>
			<point x="632.9866666667" y="752.2666666667"/>
			<point x="708.1466666667" y="678.8933333333"/>
			<point x="708.1466666667" y="563.2533333333" type="curve" smooth="yes"/>
			<point x="708.1466666667" y="398.1466666667"/>
			<point x="590.16" y="271.7333333333"/>
		</contour>
	</outline>
</glyph>
<glyph name="brokenbar" format="2">
  <advance width="458"/>
  <unicode hex="00A6"/>
  <outline>
    <contour>
      <point x="322.4666666666667" y="725.0" type="line"/>
      <point x="564.4533333333333" y="1535.0" type="line"/>
      <point x="505.22666666666663" y="1535.0" type="line"/>
      <point x="263.49333333333334" y="725.0" type="line"/>
    </contour>
    <contour>
      <point x="-91.73333333333333" y="-465.0" type="line"/>
      <point x="-32.760000000000005" y="-465.0" type="line"/>
      <point x="208.60000000000002" y="345.0" type="line"/>
      <point x="150.0" y="345.0" type="line"/>
    </contour>
  </outline>
</glyph>
<glyph name="section" format="2">
	<unicode hex="00A7"/>
	<advance width="1001.6266666667"/>
	<outline>
		<contour>
			<point x="477.36" y="929.6133333333" type="curve"/>
			<point x="460.1066666667" y="944.6" type="line"/>
			<point x="233.88" y="879.84"/>
			<point x="130.68" y="765.5733333333"/>
			<point x="130.68" y="606.3733333333" type="curve" smooth="yes"/>
			<point x="130.68" y="287.3866666667"/>
			<point x="605.8533333333" y="365.4266666667"/>
			<point x="605.8533333333" y="81.64" type="curve" smooth="yes"/>
			<point x="605.8533333333" y="-63.2266666667"/>
			<point x="488.9066666667" y="-188.6666666667"/>
			<point x="288.3466666667" y="-188.6666666667" type="curve" smooth="yes"/>
			<point x="87.9866666667" y="-188.6666666667"/>
			<point x="64.8" y="-30.52"/>
			<point x="19.8666666667" y="-30.52" type="curve" smooth="yes"/>
			<point x="-22.2" y="-30.52"/>
			<point x="-47.6666666667" y="-58.7333333333"/>
			<point x="-47.6666666667" y="-94.0666666667" type="curve" smooth="yes"/>
			<point x="-47.6666666667" y="-150.6533333333"/>
			<point x="40.1466666667" y="-218"/>
			<point x="246.2" y="-218" type="curve" smooth="yes"/>
			<point x="519.2266666667" y="-218"/>
			<point x="692.96" y="-58.1333333333"/>
			<point x="692.96" y="140.4" type="curve" smooth="yes"/>
			<point x="692.96" y="468.1333333333"/>
			<point x="214.3066666667" y="380.8"/>
			<point x="214.3066666667" y="661.64" type="curve" smooth="yes"/>
			<point x="214.3066666667" y="785.7733333333"/>
			<point x="309.16" y="888.7066666667"/>
		</contour>
		<contour>
			<point x="862.8533333333" y="598.56" type="curve" smooth="yes"/>
			<point x="862.8533333333" y="473.2303030303"/>
			<point x="755.3485949794" y="372.4032089496"/>
			<point x="564.08" y="344.3733333333" type="curve"/>
			<point x="576.32" y="326.88" type="line"/>
			<point x="821.1173680031" y="372.0910525719"/>
			<point x="945.8533333333" y="480.7504761905"/>
			<point x="945.8533333333" y="651.9466666667" type="curve" smooth="yes"/>
			<point x="945.8533333333" y="960.28"/>
			<point x="452.5066666667" y="894.7733333333"/>
			<point x="452.5066666667" y="1176.68" type="curve" smooth="yes"/>
			<point x="452.5066666667" y="1300.24"/>
			<point x="558.8" y="1420.6666666667"/>
			<point x="754.9733333333" y="1420.6666666667" type="curve" smooth="yes"/>
			<point x="955.3333333333" y="1420.6666666667"/>
			<point x="978.52" y="1262.52"/>
			<point x="1023.4533333333" y="1262.52" type="curve" smooth="yes"/>
			<point x="1063.64" y="1262.52"/>
			<point x="1090.9866666667" y="1288.2266666667"/>
			<point x="1090.9866666667" y="1324.1866666667" type="curve" smooth="yes"/>
			<point x="1090.9866666667" y="1382.6533333333"/>
			<point x="1003.1733333333" y="1450"/>
			<point x="797.12" y="1450" type="curve" smooth="yes"/>
			<point x="523.4666666667" y="1450"/>
			<point x="367.28" y="1291.3866666667"/>
			<point x="367.28" y="1119.1733333333" type="curve" smooth="yes"/>
			<point x="367.28" y="798.96"/>
			<point x="862.8533333333" y="858.72"/>
		</contour>
	</outline>
</glyph>
<glyph name="copyright" format="2">
	<unicode hex="00A9"/>
	<advance width="1751.24"/>
	<outline>
		<contour>
			<point x="898.7066666667" y="298.1066666667" type="curve" smooth="yes"/>
			<point x="736.5333333333" y="298.1066666667"/>
			<point x="624.8533333333" y="403.8666666667"/>
			<point x="624.8533333333" y="601.16" type="curve" smooth="yes"/>
			<point x="624.8533333333" y="885.5466666667"/>
			<point x="787.7333333333" y="1132.64"/>
			<point x="1073.2" y="1132.64" type="curve" smooth="yes"/>
			<point x="1158.48" y="1132.64"/>
			<point x="1223.3866666667" y="1107.76"/>
			<point x="1284.04" y="1052.6266666667" type="curve"/>
			<point x="1246.6666666667" y="1110.76" type="line"/>
			<point x="1290.88" y="861.76" type="line"/>
			<point x="1309" y="863.64" type="line"/>
			<point x="1348.48" y="1187.9866666667" type="line"/>
			<point x="1339.48" y="1187.9866666667" type="line"/>
			<point x="1272.28" y="1123.4933333333" type="line"/>
			<point x="1316.2533333333" y="1125.7333333333" type="line"/>
			<point x="1253.1333333333" y="1154.4933333333"/>
			<point x="1176.0266666667" y="1168.12"/>
			<point x="1095.76" y="1168.12" type="curve" smooth="yes"/>
			<point x="742.92" y="1168.12"/>
			<point x="508.0133333333" y="917.1066666667"/>
			<point x="508.0133333333" y="625.6" type="curve" smooth="yes"/>
			<point x="508.0133333333" y="406.2"/>
			<point x="659.8933333333" y="269.88"/>
			<point x="883.2133333333" y="269.88" type="curve" smooth="yes"/>
			<point x="974.2" y="269.88"/>
			<point x="1061.3733333333" y="285.8933333333"/>
			<point x="1135.7333333333" y="313.64" type="curve"/>
			<point x="1249.2266666667" y="519.6" type="line"/>
			<point x="1231.1066666667" y="519.6" type="line"/>
			<point x="1044.16" y="311.24" type="line"/>
			<point x="1113.28" y="350.24" type="line"/>
			<point x="1045.3866666667" y="316.36"/>
			<point x="967.8533333333" y="298.1066666667"/>
		</contour>
		<contour>
			<point x="845.6533333333" y="20.8533333333" type="curve" smooth="yes"/>
			<point x="465" y="20.8533333333"/>
			<point x="236.24" y="259.88"/>
			<point x="236.24" y="604.9066666667" type="curve" smooth="yes"/>
			<point x="236.24" y="1039.64"/>
			<point x="567.56" y="1409.1466666667"/>
			<point x="1028.5866666667" y="1409.1466666667" type="curve" smooth="yes"/>
			<point x="1409.24" y="1409.1466666667"/>
			<point x="1638" y="1170.12"/>
			<point x="1638" y="825.0933333333" type="curve" smooth="yes"/>
			<point x="1638" y="390.36"/>
			<point x="1306.68" y="20.8533333333"/>
		</contour>
		<contour>
			<point x="1028.08" y="1450" type="curve" smooth="yes"/>
			<point x="534.08" y="1450"/>
			<point x="183.2666666667" y="1063.2666666667"/>
			<point x="183.2666666667" y="600.7866666667" type="curve" smooth="yes"/>
			<point x="183.2666666667" y="233.16"/>
			<point x="431.4933333333" y="-20"/>
			<point x="846.16" y="-20" type="curve" smooth="yes"/>
			<point x="1340.16" y="-20"/>
			<point x="1690.9733333333" y="366.7333333333"/>
			<point x="1690.9733333333" y="829.2133333333" type="curve" smooth="yes"/>
			<point x="1690.9733333333" y="1196.84"/>
			<point x="1442.7466666667" y="1450"/>
		</contour>
	</outline>
</glyph>
<glyph name="ordfeminine" format="2">
	<unicode hex="00AA"/>
	<advance width="856.2266666667"/>
	<outline>
		<contour>
			<point x="188.4266666667" y="574.3866666667" type="line"/>
			<point x="716.44" y="574.3866666667" type="line"/>
			<point x="731.9333333333" y="624.6133333333" type="line"/>
			<point x="203.6666666667" y="624.6133333333" type="line"/>
		</contour>
		<contour>
			<point x="619.0133333333" y="842.6266666667" type="line" smooth="yes"/>
			<point x="605.2533333333" y="803.7333333333"/>
			<point x="616.6133333333" y="790.3733333333"/>
			<point x="656.2266666667" y="790.3733333333" type="curve" smooth="yes"/>
			<point x="725" y="790.3733333333"/>
			<point x="803" y="836.3733333333"/>
			<point x="909.6133333333" y="978.9733333333" type="curve"/>
			<point x="901.36" y="986.6" type="line"/>
			<point x="786.9466666667" y="866.3066666667"/>
			<point x="708.56" y="844.04"/>
			<point x="665.28" y="856.4133333333" type="curve"/>
			<point x="694.1333333333" y="825.04" type="line"/>
			<point x="913.08" y="1430" type="line"/>
			<point x="830.3066666667" y="1430" type="line"/>
			<point x="808.9333333333" y="1374.6266666667" type="line"/>
			<point x="708.8133333333" y="1096.5466666667" type="line" smooth="yes"/>
			<point x="535.6266666667" y="884.2533333333"/>
			<point x="473.4" y="853.9333333333"/>
			<point x="422.1333333333" y="853.9333333333" type="curve" smooth="yes"/>
			<point x="378.2266666667" y="853.9333333333"/>
			<point x="351.84" y="879.8266666667"/>
			<point x="351.2133333333" y="937.0933333333" type="curve" smooth="yes"/>
			<point x="349.3333333333" y="1085.84"/>
			<point x="548.92" y="1409.4133333333"/>
			<point x="716.1066666667" y="1409.4133333333" type="curve" smooth="yes"/>
			<point x="754.5066666667" y="1409.4133333333"/>
			<point x="789.5333333333" y="1395.9066666667"/>
			<point x="817.4266666667" y="1353.2533333333" type="curve"/>
			<point x="825.9333333333" y="1363.76" type="line"/>
			<point x="794.4266666667" y="1418.2533333333"/>
			<point x="753.3066666667" y="1443.4933333333"/>
			<point x="699.04" y="1443.4933333333" type="curve" smooth="yes"/>
			<point x="490.0666666667" y="1443.4933333333"/>
			<point x="248.72" y="1116.2666666667"/>
			<point x="250.6" y="908.6266666667" type="curve" smooth="yes"/>
			<point x="251.2266666667" y="841.6533333333"/>
			<point x="291.7066666667" y="790.3733333333"/>
			<point x="377.8133333333" y="790.3733333333" type="curve" smooth="yes"/>
			<point x="443.96" y="790.3733333333"/>
			<point x="522.2" y="827.36"/>
			<point x="715.6666666667" y="1081.64" type="curve"/>
			<point x="703.4133333333" y="1079.76" type="line"/>
		</contour>
	</outline>
</glyph>
<glyph name="guillemotleft" format="2">
	<unicode hex="00AB"/>
	<advance width="831.2666666667"/>
	<outline>
		<contour>
			<point x="170.12" y="563.32" type="line"/>
			<point x="142.24" y="447.16" type="line"/>
			<point x="565.0533333333" y="923.5866666667" type="line"/>
			<point x="552.0533333333" y="937.84" type="line"/>
			<point x="63.8666666667" y="527.7466666667" type="line"/>
			<point x="60.12" y="516.2533333333" type="line"/>
			<point x="301.5866666667" y="106.16" type="line"/>
			<point x="317.7066666667" y="112.9066666667" type="line"/>
		</contour>
		<contour>
			<point x="478.1866666667" y="563.32" type="line"/>
			<point x="450.3066666667" y="447.16" type="line"/>
			<point x="873.12" y="923.5866666667" type="line"/>
			<point x="860.12" y="937.84" type="line"/>
			<point x="371.9333333333" y="527.7466666667" type="line"/>
			<point x="368.1866666667" y="516.2533333333" type="line"/>
			<point x="609.6533333333" y="106.16" type="line"/>
			<point x="625.7733333333" y="112.9066666667" type="line"/>
		</contour>
	</outline>
</glyph>
<glyph name="logicalnot" format="2">
	<unicode hex="00AC"/>
	<advance width="1150"/>
	<outline>
		<contour>
			<point x="229" y="735.1066666667" type="line"/>
			<point x="213.3866666667" y="682.52" type="line"/>
			<point x="982.8" y="682.52" type="line"/>
			<point x="855.2933333333" y="268" type="line"/>
			<point x="907.88" y="268" type="line"/>
			<point x="1051" y="735.1066666667" type="line"/>
		</contour>
	</outline>
</glyph>
<glyph name="registered" format="2">
  <advance width="1103.1466666666668"/>
  <unicode hex="00AE"/>
  <outline>
    <contour>
      <point x="882.64" y="832.9866666666667" type="line"/>
      <point x="850.5066666666667" y="832.36"/>
      <point x="844.64" y="837.36"/>
      <point x="838.2533333333333" y="876.6133333333333" type="curve" smooth="yes"/>
      <point x="823.6" y="964.7733333333333" type="line" smooth="yes"/>
      <point x="815.96" y="1016.52"/>
      <point x="798.2266666666667" y="1038.6266666666666"/>
      <point x="748.7333333333333" y="1039.3733333333332" type="curve"/>
      <point x="752.4933333333333" y="1038.3733333333332" type="line"/>
      <point x="836.08" y="1044.6266666666668"/>
      <point x="895.5866666666667" y="1088.0933333333335"/>
      <point x="900.6" y="1149.7066666666667" type="curve" smooth="yes"/>
      <point x="905.6133333333333" y="1201.3466666666666"/>
      <point x="876.12" y="1244.0"/>
      <point x="778.48" y="1244.0" type="curve" smooth="yes"/>
      <point x="679.0133333333334" y="1244.0" type="line"/>
      <point x="671.8933333333334" y="1218.3866666666665" type="line"/>
      <point x="753.2666666666667" y="1218.3866666666665" type="line" smooth="yes"/>
      <point x="814.2933333333333" y="1218.3866666666665"/>
      <point x="840.1733333333333" y="1194.8666666666666"/>
      <point x="837.04" y="1147.4666666666667" type="curve" smooth="yes"/>
      <point x="832.6533333333333" y="1080.5866666666666"/>
      <point x="777.3733333333333" y="1050.12"/>
      <point x="710.64" y="1050.12" type="curve" smooth="yes"/>
      <point x="622.2666666666667" y="1050.12" type="line"/>
      <point x="613.5200000000001" y="1024.5066666666667" type="line"/>
      <point x="715.9066666666666" y="1024.5066666666667" type="line" smooth="yes"/>
      <point x="747.4" y="1024.5066666666667"/>
      <point x="758.7733333333333" y="1014.5066666666667"/>
      <point x="765.4133333333333" y="971.7466666666667" type="curve" smooth="yes"/>
      <point x="778.6933333333334" y="883.48" type="line" smooth="yes"/>
      <point x="787.5866666666667" y="819.0"/>
      <point x="790.32" y="812.1333333333333"/>
      <point x="877.8933333333333" y="817.0" type="curve"/>
    </contour>
    <contour>
      <point x="710.12" y="1244.0" type="line"/>
      <point x="581.8" y="1244.0" type="line"/>
      <point x="578.4266666666666" y="1232.76" type="line"/>
      <point x="639.4399999999999" y="1218.76" type="line"/>
      <point x="524.9333333333333" y="843.6133333333333" type="line"/>
      <point x="454.91999999999996" y="829.24" type="line"/>
      <point x="451.1733333333333" y="818.0" type="line"/>
      <point x="644.2533333333333" y="818.0" type="line"/>
      <point x="648.0" y="829.24" type="line"/>
      <point x="587.8666666666667" y="843.6133333333333" type="line"/>
    </contour>
    <contour>
      <point x="648.4266666666666" y="634.2266666666667" type="curve" smooth="yes"/>
      <point x="423.64" y="634.2266666666667"/>
      <point x="312.8666666666667" y="777.4133333333334"/>
      <point x="312.8666666666667" y="962.4266666666667" type="curve" smooth="yes"/>
      <point x="312.8666666666667" y="1210.2666666666667"/>
      <point x="500.94666666666666" y="1411.7733333333333"/>
      <point x="757.0933333333334" y="1411.7733333333333" type="curve" smooth="yes"/>
      <point x="981.88" y="1411.7733333333333"/>
      <point x="1092.6533333333332" y="1268.5866666666666"/>
      <point x="1092.6533333333332" y="1083.5733333333335" type="curve" smooth="yes"/>
      <point x="1092.6533333333332" y="835.7333333333333"/>
      <point x="904.5733333333333" y="634.2266666666667"/>
    </contour>
    <contour>
      <point x="760.72" y="1450.0" type="curve" smooth="yes"/>
      <point x="476.0933333333333" y="1450.0"/>
      <point x="269.26666666666665" y="1230.3866666666665"/>
      <point x="269.26666666666665" y="960.5600000000001" type="curve" smooth="yes"/>
      <point x="269.26666666666665" y="746.9066666666666"/>
      <point x="402.29333333333335" y="596.0"/>
      <point x="644.8" y="596.0" type="curve" smooth="yes"/>
      <point x="929.4266666666666" y="596.0"/>
      <point x="1136.2533333333333" y="815.6133333333333"/>
      <point x="1136.2533333333333" y="1085.44" type="curve" smooth="yes"/>
      <point x="1136.2533333333333" y="1299.0933333333332"/>
      <point x="1003.2266666666667" y="1450.0"/>
    </contour>
  </outline>
</glyph>
<glyph name="degree" format="2">
	<unicode hex="00B0"/>
	<advance width="752"/>
	<outline>
		<contour>
			<point x="596.4933333333" y="1441.4933333333" type="curve" smooth="yes"/>
			<point x="397.8666666667" y="1441.4933333333"/>
			<point x="264.5066666667" y="1281.6266666667"/>
			<point x="264.5066666667" y="1103.2666666667" type="curve" smooth="yes"/>
			<point x="264.5066666667" y="956.5066666667"/>
			<point x="365.7733333333" y="858.5066666667"/>
			<point x="530.88" y="858.5066666667" type="curve" smooth="yes"/>
			<point x="728.88" y="858.5066666667"/>
			<point x="862.24" y="1019"/>
			<point x="862.24" y="1197.36" type="curve" smooth="yes"/>
			<point x="862.24" y="1343.4933333333"/>
			<point x="760.9733333333" y="1441.4933333333"/>
		</contour>
		<contour>
			<point x="534.2533333333" y="904.3466666667" type="curve" smooth="yes"/>
			<point x="393.2533333333" y="904.3466666667"/>
			<point x="316.9733333333" y="987.48"/>
			<point x="316.9733333333" y="1107.2666666667" type="curve" smooth="yes"/>
			<point x="316.9733333333" y="1260.5066666667"/>
			<point x="422.6133333333" y="1395.6533333333"/>
			<point x="592.4933333333" y="1395.6533333333" type="curve" smooth="yes"/>
			<point x="733.4933333333" y="1395.6533333333"/>
			<point x="809.7733333333" y="1312.52"/>
			<point x="809.7733333333" y="1193.36" type="curve" smooth="yes"/>
			<point x="809.7733333333" y="1040.12"/>
			<point x="704.1333333333" y="904.3466666667"/>
		</contour>
	</outline>
</glyph>
<glyph name="plusminus" format="2">
	<unicode hex="00B1"/>
	<advance width="1150"/>
	<outline>
		<contour>
			<point x="705.1466666667" y="1023.6266666667" type="line"/>
			<point x="453.1466666667" y="201.6266666667" type="line"/>
			<point x="506.1066666667" y="201.6266666667" type="line"/>
			<point x="758.1066666667" y="1023.6266666667" type="line"/>
		</contour>
		<contour>
			<point x="202.7466666667" y="638.7333333333" type="line"/>
			<point x="186.5066666667" y="586.52" type="line"/>
			<point x="1008.5066666667" y="586.52" type="line"/>
			<point x="1024.7466666667" y="638.7333333333" type="line"/>
		</contour>
		<contour>
			<point x="23.24" y="52.2133333333" type="line"/>
			<point x="7" y="0" type="line"/>
			<point x="829" y="0" type="line"/>
			<point x="845.24" y="52.2133333333" type="line"/>
		</contour>
	</outline>
</glyph>
<glyph name="uni00B2" format="2">
	<unicode hex="00B2"/>
	<advance width="643.7466666667"/>
	<outline>
		<contour>
			<point x="511.32" y="700.0666666667" type="line"/>
			<point x="604.7066666667" y="748.2666666667" type="line"/>
			<point x="231.96" y="748.2666666667" type="line"/>
			<point x="211.3066666667" y="715.8666666667" type="line"/>
			<point x="461.4533333333" y="922.1333333333" type="line" smooth="yes"/>
			<point x="704.4133333333" y="1120.3733333333"/>
			<point x="732.4133333333" y="1195.9066666667"/>
			<point x="732.4133333333" y="1277.0133333333" type="curve" smooth="yes"/>
			<point x="732.4133333333" y="1373.1333333333"/>
			<point x="664.7866666667" y="1441.4933333333"/>
			<point x="547.1866666667" y="1441.4933333333" type="curve" smooth="yes"/>
			<point x="409.6133333333" y="1441.4933333333"/>
			<point x="309.8933333333" y="1353.28"/>
			<point x="259.0266666667" y="1188.1866666667" type="curve"/>
			<point x="279.76" y="1183.8133333333" type="line"/>
			<point x="320.2533333333" y="1308.16"/>
			<point x="392.9866666667" y="1366.9466666667"/>
			<point x="502.28" y="1366.9466666667" type="curve" smooth="yes"/>
			<point x="582.4" y="1366.9466666667"/>
			<point x="633.5333333333" y="1322.9466666667"/>
			<point x="633.5333333333" y="1245.9466666667" type="curve" smooth="yes"/>
			<point x="633.5333333333" y="1162.5033089306"/>
			<point x="579.2683253862" y="1074.5078360316"/>
			<point x="395.6933333333" y="909.08" type="curve" smooth="yes"/>
			<point x="132.48" y="672.12" type="line"/>
			<point x="129.1066666667" y="662" type="line"/>
			<point x="534.6666666667" y="662" type="line"/>
			<point x="567.52" y="636.3866666667" type="line"/>
			<point x="573.76" y="636.3866666667" type="line"/>
			<point x="707.96" y="875.52" type="line"/>
			<point x="697.2133333333" y="875.52" type="line"/>
		</contour>
	</outline>
</glyph>
<glyph name="uni00B3" format="2">
	<unicode hex="00B3"/>
	<advance width="594.1466666667"/>
	<outline>
		<contour>
			<point x="350.9733333333" y="1037.1333333333" type="line"/>
			<point x="392.9866666667" y="1048.8933333333" type="line" smooth="yes"/>
			<point x="497.2" y="1076.88"/>
			<point x="561.0133333333" y="1034.7733333333"/>
			<point x="561.0133333333" y="942.24" type="curve" smooth="yes"/>
			<point x="561.0133333333" y="803.84"/>
			<point x="449.3466666667" y="684.9866666667"/>
			<point x="320.72" y="684.9866666667" type="curve" smooth="yes"/>
			<point x="226.32" y="684.9866666667"/>
			<point x="188.84" y="769.8133333333"/>
			<point x="168.4666666667" y="769.8133333333" type="curve" smooth="yes"/>
			<point x="141.7333333333" y="769.8133333333"/>
			<point x="122" y="748.4533333333"/>
			<point x="122" y="721.2266666667" type="curve" smooth="yes"/>
			<point x="122" y="686.12"/>
			<point x="155.24" y="650.5066666667"/>
			<point x="274.9333333333" y="650.5066666667" type="curve" smooth="yes"/>
			<point x="504.7733333333" y="650.5066666667"/>
			<point x="655.8933333333" y="793.2666666667"/>
			<point x="655.8933333333" y="953.1333333333" type="curve" smooth="yes"/>
			<point x="655.8933333333" y="1050.6666666667"/>
			<point x="581.84" y="1112.1493333333"/>
			<point x="484.1333333333" y="1101.12" type="curve"/>
			<point x="478.5333333333" y="1091.3733333333" type="line"/>
			<point x="634.2291962895" y="1139.0690627967"/>
			<point x="691.68" y="1223.6533333333"/>
			<point x="691.68" y="1307.3866666667" type="curve" smooth="yes"/>
			<point x="691.68" y="1384.0133333333"/>
			<point x="643.2933333333" y="1441.4933333333"/>
			<point x="542.1733333333" y="1441.4933333333" type="curve" smooth="yes"/>
			<point x="427.48" y="1441.4933333333"/>
			<point x="341.6266666667" y="1367.7733333333"/>
			<point x="294.5066666667" y="1237.04" type="curve"/>
			<point x="313.12" y="1230.92" type="line"/>
			<point x="354.3866666667" y="1330.3333333333"/>
			<point x="420.2666666667" y="1371.8266666667"/>
			<point x="498.8933333333" y="1371.8266666667" type="curve" smooth="yes"/>
			<point x="567.92" y="1371.8266666667"/>
			<point x="604.5466666667" y="1334.9466666667"/>
			<point x="604.5466666667" y="1278.1866666667" type="curve" smooth="yes"/>
			<point x="604.5466666667" y="1201.2892582998"/>
			<point x="560.3808965024" y="1130.7819116412"/>
			<point x="348.4666666667" y="1060.9866666667" type="curve"/>
		</contour>
	</outline>
</glyph>
<glyph name="uni00B5" format="2">
  <advance width="1073.92"/>
  <unicode hex="00B5"/>
  <outline>
    <contour>
      <point x="700.0933333333334" y="478.23999999999995" type="line"/>
      <point x="627.2533333333333" y="313.9866666666666"/>
      <point x="490.90666666666664" y="70.86666666666666"/>
      <point x="308.73333333333335" y="70.86666666666666" type="curve" smooth="yes"/>
      <point x="248.98666666666662" y="70.86666666666666"/>
      <point x="208.72" y="91.62666666666667"/>
      <point x="204.72" y="152.16" type="curve" smooth="yes"/>
      <point x="203.09333333333333" y="180.17333333333335"/>
      <point x="212.85333333333332" y="220.94666666666666"/>
      <point x="242.14666666666668" y="310.4533333333333" type="curve" smooth="yes"/>
      <point x="475.1333333333333" y="1024.0" type="line"/>
      <point x="370.41333333333336" y="1024.0" type="line"/>
      <point x="-108.50666666666666" y="-454.12" type="line"/>
      <point x="-99.13333333333333" y="-454.12" type="line"/>
      <point x="28.33333333333333" y="-443.1333333333333" type="line"/>
      <point x="119.97333333333334" y="138.51999999999998" type="line"/>
      <point x="114.22666666666666" y="138.52" type="line"/>
      <point x="116.21333333333332" y="33.013333333333335"/>
      <point x="168.25333333333336" y="-20.0"/>
      <point x="261.9866666666666" y="-20.0" type="curve" smooth="yes"/>
      <point x="450.40000000000003" y="-20.0"/>
      <point x="559.12" y="165.25333333333333"/>
      <point x="702.5066666666667" y="454.24" type="curve"/>
      <point x="686.6133333333333" y="431.05333333333334" type="line"/>
      <point x="571.9333333333334" y="74.28" type="line" smooth="yes"/>
      <point x="547.7866666666667" y="-0.28000000000000114"/>
      <point x="561.2533333333333" y="-20.0"/>
      <point x="614.7199999999999" y="-20.0" type="curve" smooth="yes"/>
      <point x="711.3466666666667" y="-20.0"/>
      <point x="826.9333333333333" y="61.239999999999995"/>
      <point x="980.5333333333333" y="296.67999999999995" type="curve"/>
      <point x="972.7866666666666" y="302.4266666666667" type="line"/>
      <point x="806.7466666666667" y="103.12"/>
      <point x="694.4933333333332" y="57.38666666666666"/>
      <point x="631.4666666666667" y="76.01333333333334" type="curve"/>
      <point x="656.36" y="36.239999999999995" type="line"/>
      <point x="987.1466666666666" y="1024.0" type="line"/>
      <point x="882.4266666666666" y="1024.0" type="line"/>
    </contour>
  </outline>
</glyph>
<glyph name="paragraph" format="2">
  <advance width="1136.4399999999998"/>
  <unicode hex="00B6"/>
  <outline>
    <contour>
      <point x="448.96" y="-218.0" type="line"/>
      <point x="938.0933333333334" y="1382.0266666666666" type="line"/>
      <point x="1112.0933333333335" y="1382.0266666666666" type="line"/>
      <point x="1126.96" y="1430.0" type="line"/>
      <point x="899.3599999999999" y="1430.0" type="line"/>
      <point x="395.36" y="-218.0" type="line"/>
    </contour>
    <contour>
      <point x="661.32" y="-218.0" type="line"/>
      <point x="1151.4533333333331" y="1384.0266666666666" type="line"/>
      <point x="1334.9466666666667" y="1414.2666666666667" type="line"/>
      <point x="1340.0666666666666" y="1430.0" type="line"/>
      <point x="1112.0933333333332" y="1430.0" type="line"/>
      <point x="608.0933333333334" y="-218.0" type="line"/>
    </contour>
    <contour>
      <point x="941.0933333333334" y="1430.0" type="line"/>
      <point x="695.0533333333333" y="1430.0" type="line" smooth="yes"/>
      <point x="369.2412121628878" y="1430.0"/>
      <point x="216.52" y="1183.68"/>
      <point x="216.52" y="969.9066666666666" type="curve" smooth="yes"/>
      <point x="216.52" y="834.68"/>
      <point x="292.74666666666667" y="740.92"/>
      <point x="498.7333333333333" y="740.92" type="curve" smooth="yes"/>
      <point x="730.1066666666667" y="740.92" type="line"/>
    </contour>
  </outline>
</glyph>
<glyph name="uni00B9" format="2">
  <advance width="502.3066666666667"/>
  <unicode hex="00B9"/>
  <outline>
    <contour>
      <point x="297.28000000000003" y="704.36" type="line"/>
      <point x="138.88" y="675.8666666666667" type="line"/>
      <point x="135.13333333333333" y="662.0" type="line"/>
      <point x="511.81333333333333" y="662.0" type="line"/>
      <point x="515.56" y="675.8666666666667" type="line"/>
      <point x="388.28" y="704.36" type="line"/>
      <point x="613.5333333333334" y="1440.8666666666666" type="line"/>
      <point x="596.1733333333333" y="1440.8666666666666" type="line"/>
      <point x="265.26666666666665" y="1285.3999999999999" type="line"/>
      <point x="270.0133333333333" y="1270.0400000000002" type="line"/>
      <point x="534.4533333333333" y="1340.1733333333334" type="line"/>
      <point x="496.29333333333335" y="1353.7733333333333" type="line"/>
    </contour>
  </outline>
</glyph>
<glyph name="ordmasculine" format="2">
	<unicode hex="00BA"/>
	<advance width="808.5866666667"/>
	<outline>
		<contour>
			<point x="158.6666666667" y="574.3866666667" type="line"/>
			<point x="686.68" y="574.3866666667" type="line"/>
			<point x="702.1733333333" y="624.6133333333" type="line"/>
			<point x="173.9066666667" y="624.6133333333" type="line"/>
		</contour>
		<contour>
			<point x="684.9466666667" y="1450" type="curve" smooth="yes"/>
			<point x="497.0666666667" y="1450"/>
			<point x="309" y="1244.64"/>
			<point x="309" y="1006.44" type="curve" smooth="yes"/>
			<point x="309" y="866.5333333333"/>
			<point x="376.5066666667" y="790"/>
			<point x="499.3866666667" y="790" type="curve" smooth="yes"/>
			<point x="687.2666666667" y="790"/>
			<point x="875.3333333333" y="995.36"/>
			<point x="875.3333333333" y="1233.56" type="curve" smooth="yes"/>
			<point x="875.3333333333" y="1373.4666666667"/>
			<point x="807.8266666667" y="1450"/>
		</contour>
		<contour>
			<point x="496.4933333333" y="815.1066666667" type="curve" smooth="yes"/>
			<point x="434.0533333333" y="815.1066666667"/>
			<point x="398.88" y="861.8933333333"/>
			<point x="398.88" y="974.3866666667" type="curve" smooth="yes"/>
			<point x="398.88" y="1191.7466666667"/>
			<point x="547.4133333333" y="1424.8933333333"/>
			<point x="687.84" y="1424.8933333333" type="curve" smooth="yes"/>
			<point x="750.28" y="1424.8933333333"/>
			<point x="785.4533333333" y="1378.1066666667"/>
			<point x="785.4533333333" y="1265.6133333333" type="curve" smooth="yes"/>
			<point x="785.4533333333" y="1048.2533333333"/>
			<point x="636.92" y="815.1066666667"/>
		</contour>
	</outline>
</glyph>
<glyph name="guillemotright" format="2">
  <advance width="900"/>
  <unicode hex="00BB"/>
  <outline>
    <contour>
      <point x="381.4666666666667" y="480.68" type="line"/>
      <point x="409.3466666666667" y="596.8399999999999" type="line"/>
      <point x="-13.466666666666667" y="120.41333333333333" type="line"/>
      <point x="-0.4666666666666668" y="106.16" type="line"/>
      <point x="487.71999999999997" y="516.2533333333333" type="line"/>
      <point x="491.46666666666664" y="527.7466666666667" type="line"/>
      <point x="250.0" y="937.84" type="line"/>
      <point x="233.88000000000002" y="931.0933333333334" type="line"/>
    </contour>
    <contour>
      <point x="694.64" y="480.68" type="line"/>
      <point x="722.52" y="596.8399999999999" type="line"/>
      <point x="299.70666666666665" y="120.41333333333333" type="line"/>
      <point x="312.7066666666667" y="106.16" type="line"/>
      <point x="800.8933333333333" y="516.2533333333333" type="line"/>
      <point x="804.64" y="527.7466666666667" type="line"/>
      <point x="563.1733333333334" y="937.84" type="line"/>
      <point x="547.0533333333334" y="931.0933333333334" type="line"/>
    </contour>
  </outline>
</glyph>
<glyph name="questiondown" format="2">
	<unicode hex="00BF"/>
	<advance width="939.5866666667"/>
	<outline>
		<contour>
			<point x="654.0133333333" y="829.8" type="curve" smooth="yes"/>
			<point x="724.08" y="829.8"/>
			<point x="772.52" y="882.3733333333"/>
			<point x="772.52" y="948.68" type="curve" smooth="yes"/>
			<point x="772.52" y="1002.2666666667"/>
			<point x="734.2933333333" y="1039.4933333333"/>
			<point x="677.96" y="1039.4933333333" type="curve" smooth="yes"/>
			<point x="607.8933333333" y="1039.4933333333"/>
			<point x="559.4533333333" y="986.92"/>
			<point x="559.4533333333" y="920.9866666667" type="curve" smooth="yes"/>
			<point x="559.4533333333" y="867.0266666667"/>
			<point x="597.68" y="829.8"/>
		</contour>
		<contour>
			<point x="405.2933333333" y="-426.3733333333" type="curve" smooth="yes"/>
			<point x="577.5466666667" y="-426.3733333333"/>
			<point x="632.32" y="-383.0266666667"/>
			<point x="632.32" y="-328.5733333333" type="curve" smooth="yes"/>
			<point x="632.32" y="-295.72"/>
			<point x="609.96" y="-270.2266666667"/>
			<point x="583.48" y="-270.2266666667" type="curve" smooth="yes"/>
			<point x="570.4933333333" y="-270.2266666667"/>
			<point x="476.68" y="-355.5333333333"/>
			<point x="316.0933333333" y="-355.5333333333" type="curve" smooth="yes"/>
			<point x="136.6666666667" y="-355.5333333333"/>
			<point x="14.96" y="-240.36"/>
			<point x="14.96" y="-40.0266666667" type="curve" smooth="yes"/>
			<point x="14.96" y="190.7466666667"/>
			<point x="155.6933333333" y="279.1066666667"/>
			<point x="510.8533333333" y="230.76" type="curve"/>
			<point x="589.5733333333" y="602.6133333333" type="line"/>
			<point x="565.72" y="602.6133333333" type="line"/>
			<point x="444.28" y="253.4666666667" type="line"/>
			<point x="502.72" y="335.3733333333" type="line"/>
			<point x="112.56" y="387.2266666667"/>
			<point x="-46.8533333333" y="252.72"/>
			<point x="-46.8533333333" y="0.4" type="curve" smooth="yes"/>
			<point x="-46.8533333333" y="-240.44"/>
			<point x="161" y="-426.3733333333"/>
		</contour>
	</outline>
</glyph>
<glyph name="AE" format="2">
	<unicode hex="00C6"/>
	<advance width="1989.0666666667"/>
	<outline>
		<contour>
			<point x="48.9733333333" y="47.3333333333" type="line"/>
			<point x="1269.6933333333" y="1402.5333333333" type="line"/>
			<point x="1258.6933333333" y="1409.5333333333" type="line"/>
			<point x="842.92" y="44.96" type="line"/>
			<point x="664.2933333333" y="14.9866666667" type="line"/>
			<point x="628.84" y="0" type="line"/>
			<point x="949.7333333333" y="0" type="line"/>
			<point x="1385.9866666667" y="1430" type="line"/>
			<point x="1062.52" y="1430" type="line"/>
			<point x="1057.7733333333" y="1415.0133333333" type="line"/>
			<point x="1210.9866666667" y="1388.7866666667" type="line"/>
			<point x="-2.36" y="48.4533333333" type="line"/>
			<point x="-179" y="14.9866666667" type="line"/>
			<point x="-183.12" y="0" type="line"/>
			<point x="209" y="0" type="line"/>
			<point x="213.12" y="14.9866666667" type="line"/>
		</contour>
		<contour>
			<point x="1670.5866666667" y="-50.8666666667" type="line"/>
			<point x="1676.96" y="-50.8666666667" type="line"/>
			<point x="1905.7066666667" y="368.3733333333" type="line"/>
			<point x="1891.3466666667" y="378.36" type="line"/>
			<point x="1583.36" y="24.84" type="line"/>
			<point x="1682.2666666667" y="38.4533333333" type="line"/>
			<point x="863.5733333333" y="38.4533333333" type="line"/>
			<point x="851.2133333333" y="0" type="line"/>
			<point x="1594.3466666667" y="0" type="line"/>
		</contour>
		<contour>
			<point x="504.64" y="578.3066666667" type="line"/>
			<point x="1050.4266666667" y="578.3066666667" type="line"/>
			<point x="1062.7866666667" y="616.76" type="line"/>
			<point x="517.3733333333" y="616.76" type="line"/>
		</contour>
		<contour>
			<point x="1572.5066666667" y="460.0133333333" type="line"/>
			<point x="1585.9866666667" y="460.0133333333" type="line"/>
			<point x="1641.1066666667" y="747.2533333333" type="line"/>
			<point x="1762.48" y="1035.8666666667" type="line"/>
			<point x="1748.3733333333" y="1035.8666666667" type="line"/>
			<point x="1581.04" y="776.48" type="line"/>
			<point x="1118.92" y="758.5066666667" type="line"/>
			<point x="1111.2933333333" y="737.6266666667" type="line"/>
			<point x="1569.1733333333" y="722.4" type="line"/>
		</contour>
		<contour>
			<point x="2015.44" y="1057.9466666667" type="line"/>
			<point x="2033.1733333333" y="1057.9466666667" type="line"/>
			<point x="2088.3733333333" y="1477.1066666667" type="line"/>
			<point x="2083.2533333333" y="1477.1066666667" type="line"/>
			<point x="1981.3733333333" y="1430" type="line"/>
			<point x="1319.5466666667" y="1430" type="line"/>
			<point x="1307.1866666667" y="1391.5466666667" type="line"/>
			<point x="2045.8666666667" y="1391.5466666667" type="line"/>
			<point x="1971" y="1407.16" type="line"/>
		</contour>
	</outline>
	<anchor name="UCtop" x="1325.96" y="1430"/>
	<anchor name="bottom" x="888.96" y="0"/>
</glyph>
<glyph name="multiply" format="2">
	<unicode hex="00D7"/>
	<advance width="1150"/>
	<outline>
		<contour>
			<point x="135.1333333333" y="207.9866666667" type="line"/>
			<point x="162.8666666667" y="168.0133333333" type="line"/>
			<point x="1014.8666666667" y="816.0133333333" type="line"/>
			<point x="987.1333333333" y="855.9866666667" type="line"/>
		</contour>
		<contour>
			<point x="333.0133333333" y="825.1333333333" type="line"/>
			<point x="776.8933333333" y="168.0133333333" type="line"/>
			<point x="816.9866666667" y="198.8666666667" type="line"/>
			<point x="373.1066666667" y="855.9866666667" type="line"/>
		</contour>
	</outline>
</glyph>
<glyph name="Oslash" format="2">
	<unicode hex="00D8"/>
	<advance width="1542.4266666667"/>
	<outline>
		<contour>
			<point x="1714.5466666667" y="1430" type="line"/>
			<point x="1628.4666666667" y="1430" type="line"/>
			<point x="1411.4666666667" y="1246.4933333333" type="line"/>
			<point x="1368.9066666667" y="1211.6666666667" type="line"/>
			<point x="261.9066666667" y="261.56" type="line"/>
			<point x="219.9866666667" y="227.7466666667" type="line"/>
			<point x="-48.7466666667" y="0" type="line"/>
			<point x="37.96" y="0" type="line"/>
			<point x="254.96" y="184.1333333333" type="line"/>
			<point x="298.1466666667" y="218.96" type="line"/>
			<point x="1405.1466666667" y="1169.0666666667" type="line"/>
			<point x="1446.44" y="1202.88" type="line"/>
		</contour>
		<contour>
			<point x="267.2" y="475.44" type="curve" smooth="yes"/>
			<point x="267.2" y="884.84"/>
			<point x="557.4133333333" y="1415.5333333333"/>
			<point x="1007.9866666667" y="1415.5333333333" type="curve" smooth="yes"/>
			<point x="1258.5733333333" y="1415.5333333333"/>
			<point x="1398.2266666667" y="1257.7466666667"/>
			<point x="1398.2266666667" y="954.56" type="curve" smooth="yes"/>
			<point x="1398.2266666667" y="545.16"/>
			<point x="1108.0133333333" y="14.4666666667"/>
			<point x="657.44" y="14.4666666667" type="curve" smooth="yes"/>
			<point x="406.8533333333" y="14.4666666667"/>
			<point x="267.2" y="172.2533333333"/>
		</contour>
		<contour>
			<point x="1515.0533333333" y="912.0133333333" type="curve" smooth="yes"/>
			<point x="1515.0533333333" y="1240.24"/>
			<point x="1340.8933333333" y="1450"/>
			<point x="1000.2533333333" y="1450" type="curve" smooth="yes"/>
			<point x="512.1066666667" y="1450"/>
			<point x="150.3733333333" y="968.8266666667"/>
			<point x="150.3733333333" y="517.9866666667" type="curve" smooth="yes"/>
			<point x="150.3733333333" y="189.76"/>
			<point x="324.5333333333" y="-20"/>
			<point x="665.1733333333" y="-20" type="curve" smooth="yes"/>
			<point x="1153.32" y="-20"/>
			<point x="1515.0533333333" y="461.1733333333"/>
		</contour>
	</outline>
	<anchor name="UCtop" x="1051.2133333333" y="1430"/>
	<anchor name="bottom" x="602.0133333333" y="0"/>
</glyph>
<glyph name="Thorn" format="2">
	<unicode hex="00DE"/>
	<advance width="1185.32"/>
	<outline>
		<contour>
			<point x="520.04" y="384.0933333333" type="curve" smooth="yes"/>
			<point x="249.5333333333" y="384.0933333333" type="line"/>
			<point x="236.8" y="345.64" type="line"/>
			<point x="561.5466666667" y="345.64" type="line" smooth="yes"/>
			<point x="943.4266666667" y="345.64"/>
			<point x="1179.6933333333" y="533.24"/>
			<point x="1179.6933333333" y="814.9066666667" type="curve" smooth="yes"/>
			<point x="1179.6933333333" y="980.0133333333"/>
			<point x="1062.7066666667" y="1117.36"/>
			<point x="756.28" y="1117.36" type="curve" smooth="yes"/>
			<point x="479.3066666667" y="1117.36" type="line"/>
			<point x="460.68" y="1078.9066666667" type="line"/>
			<point x="702.0666666667" y="1078.9066666667" type="line" smooth="yes"/>
			<point x="954.3333333333" y="1078.9066666667"/>
			<point x="1058.3866666667" y="974.9466666667"/>
			<point x="1058.3866666667" y="822.28" type="curve" smooth="yes"/>
			<point x="1058.3866666667" y="558.6266666667"/>
			<point x="882.4933333333" y="384.0933333333"/>
		</contour>
		<contour>
			<point x="508.1333333333" y="1385.04" type="line"/>
			<point x="99.7333333333" y="44.96" type="line"/>
			<point x="-78.8933333333" y="14.9866666667" type="line"/>
			<point x="-83.0133333333" y="0" type="line"/>
			<point x="383.4266666667" y="0" type="line"/>
			<point x="387.8" y="14.9866666667" type="line"/>
			<point x="220.16" y="44.96" type="line"/>
			<point x="629.1866666667" y="1385.04" type="line"/>
			<point x="807.1866666667" y="1415.0133333333" type="line"/>
			<point x="811.9333333333" y="1430" type="line"/>
			<point x="344.8666666667" y="1430" type="line"/>
			<point x="340.12" y="1415.0133333333" type="line"/>
		</contour>
	</outline>
</glyph>
